<svg id="_レイヤー_2" data-name="レイヤー 2" xmlns="http://www.w3.org/2000/svg" viewBox="0 0 226.77 127.8"><defs><style>.cls-1{fill:#231815}</style></defs><g id="_レイヤー_1-2" data-name="レイヤー 1"><path class="cls-1" d="M70.06 66.49v61.31h41.18V88.85H93.46v20.42h-4.43V84.42h22.21V44.13H67.42v-4.28h43.82V0H70.06v14.73h21.61v4.28H65.63V0H46.66v19.01H20.61v-4.28h21.62V0H0v39.85h44.87v4.28H0v40.29h23.25v24.85h-4.42V88.85H0v38.95h42.23V66.49H20.61v-4.28h26.05v65.59h18.97V62.21h26.04v4.28H70.06zM115.67 0v106.78h14.01v4.28h-14.01v16.73h45.06v-16.73h-15.05v-4.28h15.05V0h-12.26v87.06h-4.13V0h-12.26v87.06h-4.15V0h-12.26zM226.77 14.73V0h-61.91v71.21h16.39v39.85h-4.13V75.49h-12.26v52.32h28.89v-56.6h4.13v56.6h28.89v-16.74h-16.39v-4.28h16.39V75.5h-16.39v-4.28h16.39V19.01h-49.65v-4.28h49.65ZM210.4 89.17h3.93v3.93h-3.93v-3.93Zm-8.12-55.62h11.56v4.28h-11.56v-4.28Zm0 18.83h11.56v4.28h-11.56v-4.28Zm-24.49-18.83h11.56v4.28h-11.56v-4.28Zm0 18.83h11.56v4.28h-11.56v-4.28Z"/></g></svg>