<svg id="_レイヤー_2" data-name="レイヤー 2" xmlns="http://www.w3.org/2000/svg" viewBox="0 0 241.79 216.78"><defs><style>.cls-1{fill:#231815}</style></defs><g id="_レイヤー_1-2" data-name="レイヤー 1"><path class="cls-1" d="M231.04 185.39h10.75V216h-10.75zM208.41 216h11.27l-11-30.61h-12.25L185.99 216h11.28l.96-3.5h9.24l.96 3.5Zm-3.5-12.42h-4.11l2.03-7.3 2.07 7.3ZM141.17 185.39h10.32V216h-10.32zM163.24 216h11.52l-10.74-15.6 9.71-15.01h-11.54l-9.7 14.99L163.24 216zM96.29 185.39h10.32V216H96.29zM118.36 216h11.52l-10.74-15.6 9.72-15.01h-11.55l-9.7 14.99L118.36 216zM68.54 184.68h-2c-9.01 0-16.34 7.2-16.34 16.05s7.33 16.05 16.34 16.05h2c9.01 0 16.34-7.2 16.34-16.05s-7.33-16.05-16.34-16.05Zm5.44 16.48c0 3.5-2.89 6.34-6.45 6.34s-6.45-2.85-6.45-6.34v-.86c0-3.5 2.89-6.34 6.45-6.34s6.45 2.85 6.45 6.34v.86ZM22.96 215.97l5.5-17.12V216h10.32v-30.61H25.47l-6.07 19.93-6.07-19.93H0V216h10.32v-17.15l5.5 17.12s.03.04.05.04h7.04s.04-.01.05-.04Z"/><path d="M178.11 146.48v-7.1h1.04v6.15h2.47v.95h-3.5ZM183.41 146.48v-4.41h-.72v-.91h.72v-1.79h1v1.79h.87v.91h-.87v4.41h-1ZM190.92 146.48v-.76h-.02c-.41.58-1.1.89-1.88.89-1.55 0-2.77-1.17-2.77-2.74s1.15-2.86 2.74-2.86c.72 0 1.4.26 1.83.8h.02v-2.44h1v7.1h-.92Zm-1.85-4.55c-1.02 0-1.81.85-1.81 1.9s.82 1.87 1.81 1.87 1.85-.83 1.85-1.83c0-1.08-.73-1.94-1.85-1.94Z"/><circle cx="193.77" cy="145.89" r=".59"/><path d="M128.6 47.48 94.4 67.29l26.39 15.28 21.73-12.58-11.39-6.6-11.39 6.6-2.84-1.65 13.86-8.02 14.23 8.24 22.48-13.02-28.08-16.26 2.38-1.39 28.09 16.27 22.22-12.87L165.69 26l-8.21 4.76 13.85 8.02-2.39 1.38-16.69-9.66 10.6-6.14-12.16-7.04-10.6 6.13-16.68-9.66 2.38-1.38 13.85 8.02 8.22-4.76L120.8 0 98.57 12.87l28.75 16.65-2.39 1.39-28.75-16.66-22.47 13.02 14.9 8.63-13.86 8.03-2.84-1.64 11.39-6.6-12.06-6.99-21.73 12.59 27.06 15.67 34.2-19.81-13.85-8.02 2.39-1.38 16.68 9.66L79.41 58.6l12.16 7.04 36.58-21.19 16.69 9.67-2.39 1.38-13.85-8.02zM97.2 141.54v-2.73l22.25 12.99V84.9L98.37 72.6v55.38l-2.35-1.38V71.23l-23.14-13.5v55.37l-2.35-1.38V56.35L49.44 44.04v66.89l22.27 13v2.73l-22.27-13v11.52l70.01 40.87v-11.52L97.2 141.54zM173.79 125.16l-.03.02v-2.72l18.59-10.74V91.96l-11.29 6.52-7.27 4.2v-.02l-.04.02v-2.72l18.59-10.74V56.27l-56.12 32.42v-.1l-.11.06v-2.71l56.23-32.48v-9.34l-70.11 40.5v45.1l16.15-9.33 2.36-1.37v.04l.05-.03v25.26l-2.62 1.51v-22.55l-15.95 9.21v33.16l33.9-19.58v-35.91l2.36-1.36v35.91l33.86-19.56v-10.61l-18.56 10.72v-.07Zm-23.78-20.66-13.78 7.96v-2.72l.65-.37 13.09-7.57.04-.01v2.72Zm0-11.89-13.78 7.96v-2.72l.65-.37v-.05l13.09-7.56v.05l.04-.02v2.72Zm28.38 15.92v2.72l-4.63 2.68v-2.72l4.63-2.68Zm-14.46-26.68.69-.4v-.05l13.09-7.56v2.77l-13.78 7.96v-2.72Zm0 11.89.69-.4 13.09-7.57v2.73l-13.78 7.96v-2.72Z"/></g></svg>