<svg id="_レイヤー_2" data-name="レイヤー 2" xmlns="http://www.w3.org/2000/svg" viewBox="0 0 259.94 152.5"><defs><style>.cls-1{fill:#231815}</style></defs><g id="_レイヤー_1-2" data-name="レイヤー 1"><path class="cls-1" d="m248.67 152.5-.18-.27c-.32-.48-.65-.99-.99-1.45-.14-.19-.35-.35-.48-.35-.6-.03-1.28-.04-2.01.12.25.08.5.16.74.27.3.14.57.33.84.51.12.08.23.16.35.24l.12.08-.2.86h1.8Z"/><path class="cls-1" d="m259.47 150.18.43.12v-.52c-.57-.29-1.13-.58-1.7-.87-1.35-.69-2.75-1.41-4.14-2.08-1.37-.66-2.78-1.29-4.13-1.91-.59-.27-1.19-.54-1.78-.81l-.13-.06.09-.76.22.06c.24.06.48.12.73.17.55.12 1.12.25 1.66.48.22.09.44.19.65.28.87.39 1.7.75 2.66.84 1.47.14 2.93.7 4.34 1.24.5.19 1.02.39 1.53.57v-1.11c-.48-.21-.96-.43-1.44-.64-1.27-.57-2.58-1.16-3.88-1.67-.64-.25-1.35-.32-2.04-.38l-.2-.02c-.34-.03-.67-.02-1.02 0-.33.01-.67.03-1 0-1.2-.09-2.4-.18-3.61-.28-3.28-.25-6.65-.5-10-.82l8.04 1.24v.79l-.47.04c-.23.02-.46.05-.7.06-.12 0-.26-.01-.39-.03-.2-.03-.39-.05-.51.03-.29.2-.55.5-.82.82-.08.09-.16.19-.24.28.06.09.13.18.19.27.19.28.38.56.59.68.57.32 1.18.57 1.77.8.25.1.49.2.74.3l.15.06-.2.91-.2-.05c-.18-.04-.37-.06-.56-.09-.46-.05-.94-.11-1.32-.42-.72-.59-1.45-.52-2.22-.46-.3.03-.61.05-.92.04-1.42-.06-2.82-.23-4.3-.42-.62-.08-1.24-.16-1.88-.23l-.26-.03.09-.24c.73-1.93 1.85-2.04 3.03-2 1.22.05 2.26 0 3.23-.16-.52-.42-1.14-.41-1.79-.4-.88 0-1.88.03-2.57-1.13l-.03-.06.09-.76c-.13-.01-.25-.02-.38-.04-1.77-.18-3.55-.51-5.27-.84-.74-.14-1.48-.28-2.22-.41-.34-.06-.46-.44-.5-.57l-.08-.26h1.49c1.21 0 2.47-.01 3.7.03.22 0 .39.16.55.31.1.09.2.19.29.22l.15.05c.49.16 1 .33 1.48.32.87-.03 1.75-.09 2.61-.15 1.72-.12 3.5-.25 5.25-.11.5.04 1 .1 1.5.16.41.05.82.1 1.23.14 2.37.23 4.77.69 7.09 1.13.8.15 1.6.31 2.4.45 1.28.23 2.56.48 3.84.72l1.5.29v-.51l-11.13-2.66.07-.95 6.15.5.02-.28-2.22-.66.16-.23c.15-.21.29-.42.43-.63.36-.53.73-1.09 1.13-1.57.25-.3.7-.27 1-.26 1.13.06 2.25.14 3.38.21l1.01.07v-.52l-8.56-.93h-.06l-6.55-.72c-.15-.02-.31-.05-.46-.09-.06-.02-.13-.03-.2-.05l-.16-.03v-.88h.2c.6 0 1.2-.01 1.8-.02 1.32-.03 2.68-.06 4.02.05 2.4.19 4.83.47 7.18.74.93.11 1.86.21 2.79.31v-.52l-10.56-1.65c-.09-.01-.19-.04-.29-.07-.14-.04-.29-.09-.37-.05-1.79.84-3.52.35-5.18-.12-.83-.24-1.69-.48-2.53-.55-1-.08-2-.23-2.97-.38-.43-.07-.86-.13-1.29-.19-.39-.05-.78-.11-1.16-.17l-.74-.11-.06-.71.15-.05c.09-.03.18-.07.28-.11.23-.1.47-.2.73-.18 1.22.12 2.46.27 3.66.42 2.47.3 5.02.61 7.53.67.92.02 1.84.17 2.73.32 1.56.25 3.17.52 4.79.08.97-.26 2-.02 3 .21.43.1.87.2 1.3.26.28.04.56.09.83.14l.16.03v-1.11c-.23-.03-.46-.05-.7-.08-.67-.08-1.36-.15-2.03-.27-.54-.1-1.09-.23-1.62-.35-.41-.1-.83-.2-1.24-.28-.39-.08-.8-.1-1.19-.11h-.09c-.42-.03-.86-.01-1.28 0-.95.02-1.93.04-2.86-.26-1.48-.49-2.62-.76-3.83.05-.18.12-.41.11-.58.08-2.64-.41-4.85-.78-7.23-1.41l-.54-.14.5-.23c.08-.04.16-.09.24-.14.22-.14.47-.31.72-.21 1.25.5 2.48.37 3.79.23.59-.06 1.19-.13 1.8-.13h.03c2.93 0 5.9.3 8.77.6 1.11.11 2.22.23 3.32.32.98.09 1.96.2 2.92.3l1.1.12v-3.19c-2.08.28-4.04-.44-5.87-1.21l-.48-.2.5-.17c1.58-.54 3.08-.07 4.52.39.44.14.89.28 1.33.4v-1.1c-.52-.09-1.05-.18-1.57-.26-1.26-.2-2.56-.41-3.82-.76-4.79-1.32-9.88-2.58-14.88-2.26-5.09.33-10.18-.2-15.11-.71-1.48-.15-2.96-.31-4.44-.44-.66-.06-1.31-.11-1.97-.16-1.98-.15-4.02-.31-6.06-.7l-1.17-.23 1.18-.17c.17-.02.35-.06.52-.09.39-.08.79-.16 1.2-.13 3.94.33 7.88.68 11.82 1.03 2.01.18 4.03.36 6.04.53.14.01.29.03.43.06.64.1 1.2.18 1.67-.59.16-.27.54-.26.81-.26h.11c.58 0 1.16-.02 1.74-.03 1.47-.04 2.99-.08 4.48.07 1 .1 2.01.36 2.98.62.73.19 1.49.39 2.24.52 2.55.42 5.15.81 7.66 1.19 1.61.24 3.23.49 4.84.74.37.06.73.19 1.08.31.07.03.14.05.22.08v-.77l-4.09-.77.09-.91 4 .38v-.81c-.35-.03-.69-.05-1.04-.08-.95-.07-1.93-.14-2.89-.29-1.01-.16-1.97-.57-2.77-.96l-.64-.31.71-.07c2.15-.22 4.32.08 6.64.93v-1.07c-.54-.12-1.08-.25-1.62-.37-1.33-.3-2.7-.61-4.05-.95-1.08-.27-2.17-.58-3.22-.88-1-.28-2.03-.57-3.05-.83-1.47-.38-2.97-.73-4.43-1.08-.65-.15-1.31-.31-1.96-.46l-.17-.04.09-.84.21.04c.67.12 1.33.23 2 .35 1.53.26 3.11.54 4.66.85 1.17.23 2.44.54 3.99.98.57.16 1.15.36 1.71.55.68.23 1.39.47 2.09.65.91.23 1.84.39 2.75.55l.99.18v-.72c-1.34.29-2.58-.04-3.69-.99l-.53-.46 4.23.66v-4.45l-3.05-.27.03-.72h3.02V98.18l-1.01-.05c-.91-.05-1.82-.09-2.72-.15h-.11c-1.07-.07-2.18-.14-3.27-.27-.64-.07-1.29-.19-1.91-.3-.27-.05-.54-.1-.82-.14l-.17-.03v-1.08l1.1-.05 1.84-.09h.56c.41 0 .8 0 1.17-.1.07-.02.22-.28.33-.48.1-.17.2-.36.34-.56l.07-.1 4.53.56-.04.78-2.93-.2c.53.61 1.18.73 1.86.84.39.07.79.14 1.18.3v-6.15c-2.79.08-5.63.11-8.38.14-6.39.07-12.99.15-19.46.79-7.76.77-15.63 2.19-23.23 3.56-2.17.39-4.34.78-6.52 1.16-3.89.68-6.87.34-9.66-1.09-1.19-.61-2.43-1.17-3.62-1.71-.98-.44-1.99-.9-2.98-1.38-2.04-1-4.26-1.58-6.97-1.81-4.84-.41-9.75-.92-14.51-1.4-2.7-.28-5.39-.55-8.09-.81-.33-.03-.68.05-1.04.14-.12.03-.24.06-.36.08v.23l8.1 1.04-.04.68h-.19c-.33 0-.67 0-1 .02-.72.02-1.47.04-2.2-.03-7.83-.73-14.89-1.41-21.58-2.08-2.25-.23-4.52-.53-6.72-.82l-1.03-.14c-.89-.12-1.78-.25-2.67-.38-1.64-.24-3.33-.49-5-.65-.72-.08-1.53.3-2.07.59-.35.18-.73.27-1.1.36-.86.2-1.61.37-2.01 1.62l-.03.08-1.63.86c-2.38 1.25-4.75 2.49-7.13 3.73-.26.14-.56.02-.88-.36l-.16-.19.22-.12c.28-.15.55-.3.82-.46.61-.35 1.25-.71 1.9-1 .86-.39 1.52-1.11 2.21-1.88.13-.14.25-.28.38-.42.25-.27.49-.55.74-.83 1.26-1.43 2.56-2.92 4.54-3.09 4.11-.35 8.1.2 11.83.8 4.1.66 8.29 1.07 12.34 1.46 1.23.12 2.47.24 3.7.37 2.19.23 4.23.3 6.21.23-.28-.16-.54-.29-.81-.33-.93-.14-1.89-.24-2.81-.34-.99-.11-2.01-.22-3.01-.37-1.91-.29-3.85-.62-5.73-.94-3.73-.63-7.59-1.29-11.39-1.69-2.42-.26-4.91-.11-7.32.03-1.02.06-2.07.12-3.1.15-.41.01-.82.07-1.29.14-.24.04-.49.07-.76.11l-.39.05.18-.34.31-.56c.23-.41.42-.77.59-1.14.02-.06.01-.28-.01-.39a.741.741 0 0 0-.26 0c-.21.59-.48.95-.81 1.1-.41.19-.84.01-1.22-.14-.3-.12-.59-.24-.83-.17l-.2.06-.19-.73.1-.08c.07-.05.14-.13.21-.2.22-.22.46-.45.69-.32.42.25.68.06 1.1-.31.19-.16.38-.33.6-.43 1.51-.67 3.09-1.17 4.45-1.59.33-.1.65.3.94.65.26.32.52.61.75.61.15 0 .32-.12.5-.36.26-.33.75-.57 1.14-.56.83 0 1.67.01 2.5.02 5.31.02 10.8.05 16.18 1.6 1.75.5 3.62.48 5.43.45 1.05-.02 2.13-.03 3.19.06 4.02.33 8.29.69 12.48 1.27 1.46.2 2.93.54 4.35.87 1.42.33 2.89.67 4.34.87 1.54.21 3.12.25 4.66.29.98.02 1.98.05 2.97.12l1.39.1c3.2.22 6.51.45 9.75.85 2.03.25 4.33.54 6.54 1.83 1.73 1.01 3.5 1.59 5.13 1.68 1.07.06 2.14-.23 3.27-.54.66-.18 1.34-.37 2.01-.47 1.7-.27 3.42-.51 5.09-.73 1.42-.19 2.88-.39 4.32-.61.64-.1 1.29-.25 1.92-.39.79-.18 1.61-.37 2.43-.46.93-.1 1.87-.07 2.78-.04.35.01.7.03 1.04.03.15 0 .3.03.44.06.16.03.3.06.44.05 1.04-.06 2.09-.14 3.13-.21 2.11-.16 4.29-.32 6.43-.33 3 0 6.08.12 9.04.26.85.04 1.69.08 2.54.11 3.26.14 5.96-.26 8.5-1.25.82-.32 1.69-.38 2.54-.43.32-.02.64-.04.96-.08v-2.01l-.65.12c-.66.13-1.33.25-1.99.36-.55.09-1.1.19-1.66.28-1.44.25-2.92.51-4.39.64-2.65.24-5.79.48-8.89.49-3.69.01-7.44-.03-11.07-.06-3.12-.03-6.35-.06-9.53-.06h-.13c-3.65 0-7.35.13-10.94.26l-.65.02c-.25 0-.51.16-.79.31-.18.1-.36.2-.55.27l-.13.05c-.29.12-.63.25-.95.17-1.38-.35-2.79-.73-4.14-1.09l-2.58-.69-.09-.02c-.61-.16-1.25-.33-1.87-.37-.63-.05-1.26-.1-1.89-.14-2.62-.2-5.33-.41-8-.47-.83-.03-1.69.16-2.52.34-.55.12-1.12.24-1.69.3-5.17.59-10.4.27-16-.97-3.5-.78-7.11-1.25-10.59-1.7-1.16-.15-2.33-.3-3.49-.47-.71-.1-1.41-.21-2.12-.33-2.09-.34-4.26-.7-6.36-.59-3.76.18-7.54-.21-11.2-.59-2.81-.29-5.73-.59-8.59-.63-.33 0-.61-.1-.87-.29l-.48-.36h2.34c1.24 0 2.52-.01 3.78.01l2.23.05c5.84.13 11.89.26 17.83.47 1.02.04 2.04.25 3.03.46.45.09.89.19 1.34.26l.81.15c.5.1 1.02.2 1.52.26 1.72.2 3.44.4 5.17.59 3.02.34 6.14.7 9.21 1.08.54.07 1.09.25 1.61.42.69.23 1.34.46 2 .42 2.01-.07 4.06-.22 6.04-.37 2.29-.17 4.67-.35 7.01-.4 1.66-.03 3.35.14 4.98.32.99.11 2.01.22 3.01.28.83.05 1.68-.01 2.5-.08.32-.02.63-.05.95-.07.08 0 .16-.03.25-.06.13-.04.27-.08.43-.08.93.05 1.86.11 2.78.17 1.4.09 2.84.18 4.27.24 2.23.09 4.46.17 6.69.24 3.2.11 6.5.22 9.75.38 1.54.07 3.1.21 4.61.33 1.58.13 3.22.27 4.83.34.8.03 1.6.1 2.39.15 2.46.19 5.01.38 7.54-.28 1.97-.51 4.03-.59 6.01-.66.7-.03 1.4-.05 2.09-.1 1.87-.12 3.77-.19 5.61-.26l2.2-.09v-.52c-.88.01-1.76.02-2.64.02-2.09.01-4.24.03-6.36.11-3.4.13-6.85.29-10.2.46-1.77.09-3.55.17-5.33.25-.33 0-.58-.16-.82-.58l-.14-.24.27-.06c.17-.04.34-.08.52-.13.38-.1.77-.2 1.17-.22 5.82-.27 13.5-.62 21.26-.92.58-.02 1.16.08 1.72.17.18.03.36.06.55.09v-.82c-5.76-1.05-10.46-1.08-14.78-.1-.44.1-.96.19-1.44.06-2.23-.59-4.51-.41-6.72-.24-.63.05-1.27.1-1.9.13-2.44.12-4.92-.17-7.31-.45-.68-.08-1.36-.16-2.04-.23-2.74-.29-5.52-.65-8.21-.99l-2.32-.3c-.6-.08-1.08-.29-1.51-.69l-.38-.35h2.02c1.14 0 2.31.01 3.47-.02 1.35-.03 2.68-.13 3.93-.24.9-.08 1.65-.29 2.35-1.09.52-.6 1.44-.72 2.08-.65.65.08 1.29.13 1.94.19 2.13.19 4.33.38 6.47 1.29 1.44.61 2.99.91 4.49 1.19.59.11 1.19.23 1.77.36.37.08.72.06.99-.06 3.16-1.42 6.41-1.13 9.55-.84l1.04.09c1.07.09 2.17.06 3.23.04.57-.01 1.14-.03 1.71-.03.42 0 .84.03 1.25.06l.35.02v-1.13c-.23-.03-.45-.05-.68-.08-.6-.07-1.22-.15-1.83-.18-1.09-.06-2.18-.12-3.27-.17-1.72-.08-3.5-.17-5.25-.3-.58-.04-1.15-.17-1.7-.3-.5-.11-1.01-.23-1.52-.28l-.3-.03c-.78-.08-1.58-.17-2.23.16-1.49.75-2.78.54-3.95-.62-.7-.71-1.28-.77-2.14-.25-.7.43-1.63.29-2.44.1-1.41-.33-2.94-.6-4.59-.33-1.91.31-3.86.4-5.75.48-1.12.05-2.28.1-3.42.2-.4.04-.81.26-1.23.5-.22.12-.43.24-.65.34-.1.05-.21.1-.31.16-.29.16-.59.33-.92.3-1.65-.09-3.32-.2-4.94-.31-1.39-.1-2.78-.19-4.17-.27-.52-.03-1.05-.02-1.56 0-.71.01-1.44.03-2.16-.06-2.61-.32-5.38-.69-8.16-1.26-1.08-.22-2.16-.6-3.2-.96-.67-.23-1.37-.47-2.06-.67-.5-.14-1.02-.22-1.52-.29-.37-.05-.76-.11-1.14-.19-2.55-.56-5.14-.18-7.64.19-1.8.26-3.66.53-5.51.46-1.77-.07-3.51-.19-5.36-.31-.82-.05-1.65-.11-2.5-.16l-.26-.02.08-.24c.57-1.79 1.48-2.02 2.36-2.24 2.41-.6 4.86-1.24 7.23-1.86l1.48-.39s.12-.06.24-.14c.03-.02.07-.05.11-.07-.4-.26-.79-.51-1.17-.76-.96-.62-1.86-1.21-2.78-1.73-3.7-2.12-7.58-2.75-11.91-3.3-9.25-1.18-20.19-2.73-31.22-5.31-.96-.22-1.98-.22-2.96-.22-.49 0-1 0-1.5-.03-.35-.02-.71-.06-1.06-.1-.16-.02-.32-.04-.49-.05l-.17-.02-.05-.74 3.38-.72v-.02h-6.39l-.06-.79 1.42-.26-1.07-.7.57-.05c4.37-.4 9.05-.63 13.95 1.28l.82.32-6.47.51v.05h.02c.09.03.16.05.23.06 6.21-.47 12.38.86 18.34 2.15 1.6.34 3.25.7 4.88 1.02 1.77.34 3.59.48 5.36.61 1.63.12 3.32.25 4.96.54 1.15.2 2.33.32 3.48.44 2.79.28 5.67.58 8.33 2.04 2.75 1.51 5.66 2.32 8.47 3.1 1.34.37 2.73.76 4.09 1.22.23.08.48.15.72.16 2.86.07 5.72.69 8.48 1.29 2.62.57 5.32 1.16 8.01 1.27 2.03.08 4.11.12 6.11.16 1.3.03 2.6.05 3.9.09 1.23.03 2.47.08 3.7.12 1.92.07 3.91.13 5.87.17.31 0 .65-.11 1-.22.19-.06.38-.13.57-.17l.45-.12c.4-.12.82-.23 1.25-.24 1.17-.02 2.35-.03 3.52-.03 2.05 0 4.18-.02 6.26-.14.8-.05 1.61-.3 2.4-.55.59-.19 1.21-.38 1.82-.49 4.9-.86 9.83-.16 14.6.52l1.19.17v-2.01l-4.13-.17c-3.37-.13-6.73-.27-10.1-.4-6.01-.23-12 .08-18.29.94-6.66.91-13.74.76-21.65-.45-.06 0-.12-.02-.17-.03-.09-.02-.17-.04-.24-.04-3.49.06-6.96-.66-10.32-1.35-1.89-.39-3.85-.79-5.78-1.05-3.44-.46-6.27-1.29-8.92-2.62-1.67-.84-3.62-1.4-6.14-1.76-4.43-.64-8.94-1.22-13.31-1.78-2.82-.36-5.63-.72-8.45-1.1-.4-.05-.76-.3-1.11-.54-.15-.1-.3-.21-.46-.29l-.13-.07.2-.82 1.51.16 3.08.33c1.86.19 3.72.38 5.58.56 4.95.5 10.07 1.01 15.1 1.57.75.08 1.48.38 2.18.66.39.16.79.32 1.19.44 1.3.4 2.73.81 4.49 1.29l1.24.34c1.5.42 3.05.85 4.58 1.19 2.54.57 5.13 1.1 7.63 1.62l2.04.42c.21.04.43.06.66.08.39.03.79.06 1.17.23 3.57 1.61 7.29 1.29 10.88.99l1.42-.12c1.18-.09 2.37-.21 3.53-.32 1.53-.15 3.12-.3 4.68-.4 5.09-.31 10.08-.61 15.09-.76 1.99-.06 4 .17 5.94.38l.27.03c5.55.62 11.09-.07 16.75-.9V59.3l-2.99.08c-2.87.08-5.75.16-8.62.23-1.03.02-2.08.02-3.09.01H243.6l-.05-.76.18-.03c.36-.06.73-.13 1.09-.19.79-.15 1.61-.3 2.43-.35 2.86-.16 5.76-.28 8.57-.4l3.58-.15c.15 0 .3-.02.45-.04h.03v-.25l-1.56-.15c-1.27-.12-2.58-.24-3.87-.46-3.39-.58-6.81-.15-10.13.26l-.38.05c-5.48.69-11.29.63-18.27-.18-2.27-.26-4.6-.33-6.85-.39-1.7-.05-3.46-.1-5.19-.23-4.03-.31-8.12-.73-12.07-1.13-1.45-.15-2.89-.29-4.34-.43-.22-.02-.42-.1-.62-.17-.08-.03-.17-.06-.25-.09l-.12-.04-.13-.75.14-.06c.14-.06.28-.14.42-.22.34-.19.69-.39 1.05-.38 2.36.06 4.88.14 7.33.38 1.71.16 3.44.38 5.12.58 2.3.28 4.67.57 7.01.74 1.29.09 2.59.21 3.89.32 4.19.37 8.52.76 12.73.38 5.74-.52 11.57-.52 17.21-.52 2.71 0 5.51 0 8.27-.06.19 0 .37.01.56.03h.03v-.75l-.1.03c-.26.07-.54.13-.8.13-1.73-.04-3.45-.1-5.18-.15-3.58-.12-7.28-.25-10.92-.22-1.34 0-2.7.22-4.02.43-1.21.19-2.47.39-3.71.43-3.11.1-6.28.03-9.34-.03-.98-.02-1.96-.04-2.95-.05-.28 0-.53-.13-.78-.25-.1-.05-.2-.1-.3-.14l-.14-.05.04-.71h.17c.12-.02.25-.03.37-.05.31-.03.64-.05.97-.05.83 0 1.67 0 2.5.02 1.82.02 3.7.04 5.55-.04 1.04-.04 2.1-.17 3.12-.29 1.11-.13 2.26-.28 3.39-.31 2.45-.07 4.94-.05 7.35-.04 1.34 0 2.67.01 4.01.01.38 0 .74-.06 1.08-.17-5.01-.87-10.09-.49-15.01-.12-3.09.23-6.29.48-9.44.4h-.17l-.11-.94.18-.04c.15-.03.3-.08.44-.12.33-.09.68-.19 1.03-.21 1.75-.06 3.51-.12 5.26-.17 2.56-.08 5.21-.16 7.81-.28.98-.04 1.97-.19 2.94-.34.39-.06.78-.12 1.18-.17v-.17l-23.62.72-.03-.97h8.18v-.05l-.71-.7.08-.14s.03-.06.05-.09c.06-.11.14-.28.32-.23l.29.08c.46.12.94.24 1.4.42.16.06.27.2.38.34.05.06.14.17.18.19 3.64-.1 7.3-.24 11.36-.4-.02 0 .02-.04.06-.08l-1.34-.96h7.42v.71h-4.61v.2c.1.03.21.06.32.09.34.09.65.2.99.17 2.95-.07 5.9-.14 8.85-.23-.06 0-.13-.01-.19-.02-.15-.02-.3-.04-.46-.05h-.18l-.04-.89 3.08-.5c-1.51-.04-3.04-.09-4.53-.14-3.75-.13-7.63-.27-11.44-.14-1.41.05-2.83.12-4.22.19-4.08.21-8.3.42-12.48.01-5.8-.57-11.63-.89-16.65-1.14l-1.31-.07c-5.02-.25-10.21-.5-15.28-1.38l-.17-.03v-.87l.18-.02c.25-.02.5-.05.76-.08.55-.07 1.12-.14 1.69-.1 1.76.13 3.55.29 5.28.44 2.77.24 5.63.49 8.45.65 1.78.1 3.59.09 5.34.08 1.71-.01 3.48-.01 5.22.07 2.83.14 5.71.37 8.5.59 2.01.16 4.09.32 6.13.45 1.74.11 3.48.06 5.16 0 .5-.01 1-.02 1.5-.02 1.54-.01 3.13-.03 4.64-.37 1.61-.36 3.13-.3 4.55-.21 2.38.16 4.81.06 7.16-.04.69-.03 1.37-.06 2.06-.08.29 0 .61-.14.98-.28.13-.05.27-.11.41-.16l-.89-1.27.05-.74h-76.58c.36.12.71.21 1.06.24 1.1.08 2.22.11 3.3.14.84.02 1.68.04 2.52.09.29.02.55.17.8.32.1.06.21.12.31.17l.13.06-.13.89-.19-.02L177 44.17l.57-.7h-47.54c.13.03.26.07.39.11.25.07.52.15.75.18l.18.03-.06 1.09h-8.99l-.09-.55h1.33c.29 0 .58 0 .86-.01 1.47-.01 2.86-.02 4.24-.79.03-.02.06-.03.09-.04H91.12s.06.02.08.02c1.16.32 2.36.66 3.54.69 1.07.04 2.17-.02 3.23-.08 1.3-.07 2.65-.14 4-.05l1.17.08-1.13.31c-.19.05-.39.12-.58.18-.43.14-.87.28-1.32.33-1.11.13-2.23.24-3.34.34-1.81.17-3.69.36-5.52.62-1.24.18-2.48.61-3.69 1.03l-.65.22c-.1.03-.24.29-.36.51-.09.16-.18.33-.29.5l-.09.14-.15-.07c-1.99-.91-4.05-.56-6.22-.2-.9.15-1.83.31-2.76.37-.41.03-.83 0-1.23-.02-.39-.02-.8-.04-1.2-.02-.31.02-.61.1-.94.19-.29.08-.59.16-.9.19-.79.08-1.59.21-2.37.33-1.93.3-3.93.61-5.87.34-1.22-.17-2.42.08-3.58.33-1.07.23-2.17.46-3.3.36-.25-.02-.51-.02-.77 0h-.56l-.12-.9.16-.05c.2-.06.39-.14.59-.22.45-.18.91-.36 1.38-.39 1.05-.07 2.12-.09 3.15-.11.85-.02 1.73-.03 2.59-.08.43-.02.86-.13 1.31-.25l.47-.12v-.04h-2.72v-1.04l7.64.02c.02.01.06.04.11.08.12.1.37.31.59.31h.01c1.12-.05 2.12-.17 3.05-.38l-1.67-.11-.02-.95 4.22-.34-.13.66c.1.09.19.19.28.29.18.19.45.46.56.45 3.37-.61 6.78-1.32 10.09-2.01l.49-.1c.19-.04.38-.14.6-.27.08-.04.16-.09.25-.13l-.24-.99H13.24l1.2.12-.03.86h-2.52l.04-.98H0v14.47l1.14-.17 4.43-.66h.09c.04 0 .09 0 .11-.02.41-.56.83-.83 1.25-.84h.02c.62 0 1.11.59 1.57 1.17.14.18.29.35.43.51.1.1.23.17.41.27.11.06.24.13.38.22l.31.19-.33.16c-2.05.98-4.09 1.02-6.07 1.07-1.29.03-2.52.05-3.74.32v.24c.51-.04 1.04-.11 1.54-.19 1.36-.2 2.77-.41 4.22.13l.24.09-.14.21c-1.36 1.99-3.02 2.08-4.63 2.17-.4.02-.82.04-1.22.1v2.38c.11.01.21.02.27 0 2.6-1.13 5.28-1.06 7.88-1 1.44.04 2.92.07 4.36-.1 3.09-.37 6.04.92 8.9 2.16.63.27 1.25.54 1.88.8l.16.07-.77 2.89-.23-.14c-.39-.25-.79-.49-1.19-.73-.9-.55-1.83-1.11-2.72-1.76-1.64-1.19-2.94-1.64-4.34-1.53-2.88.23-5.81.35-8.64.46-1.02.04-2.05.08-3.07.13-.61.03-1.23.03-1.84.04H0v36.46c1.16-1 1.33-1.03 2.42-.53l.26.12-1.71 1.74.62.53-1.58 1.12v.47c.28-.16.56-.31.85-.46.82-.44 1.66-.89 2.44-1.44 1.86-1.31 3.74-2.71 5.55-4.05l2.52-1.86c.08-.06.17-.09.32-.13.09-.03.21-.06.37-.12l.47-.16-.23.44c-.12.23-.22.45-.3.64-.17.38-.3.69-.53.85-3.57 2.59-7.22 5.18-10.75 7.68l-.46.33c-.08.06-.17.07-.24.06v.91c.94-.66 1.88-1.32 2.81-1.97 2.8-1.96 5.7-4 8.53-6.04.43-.31.84-.74 1.23-1.16.33-.35.68-.72 1.05-1.02.4-.33.85-.55 1.28-.77.19-.09.38-.19.56-.29l.2-.11.37 1-.11.09c-.47.4-.93.8-1.39 1.2-1.01.88-2.06 1.79-3.13 2.6-2.3 1.74-4.6 3.37-7.35 5.28-.94.65-1.92 1.26-2.87 1.84-.4.25-.8.49-1.19.74v30.96l4.74-.91.1.91-4.84 1.02v9.97h236.66l-1.02-2.04.16-.09c1.14-.66 2.31-.55 3.44-.43.74.07 1.45.15 2.15.01l-13.65-1.47 1.19 1.97-5.77-.69-.09-.77.17-.05.42-.12c.32-.1.66-.2 1-.25.32-.04.64-.04 1-.03l-1.3-.85.17-.75.12-.03c.08-.02.17-.04.25-.07.2-.06.41-.11.62-.11l1.91.05c2.48.07 5.04.14 7.55.3.6.04 1.19.32 1.75.58.25.12.5.24.75.33.05.02.11.05.17.09.03.02.08.04.11.06 1.74-1.09 3.43-.58 5.07-.08.5.15 1.02.31 1.53.41 2.05.42 4.1 1.01 6.09 1.59.99.29 1.98.58 2.98.85.3.08.6.1.93.13.09 0 .17.01.26.02l.02-.17-8.85-2.62-.09-.81.75-.28c.66-.25 1.32-.5 1.99-.74.13-.04.31-.03.42.03.1.05.13.12.15.17.15.46.32.74.51.81.21.09.48-.06.78-.22.22-.12.46-.24.7-.29.72-.13 1.52-.03 2.2.28.92.42 1.83.91 2.72 1.38.69.37 1.41.75 2.12 1.1.46.22.94.36 1.45.5ZM243.24 123c.38-1.33.71-1.89 1.16-2 .46-.12.91.3 1.33.76l.05.05.06.78-2.69.76.1-.35Zm7.83-18.77 4.57 1.54-.17.93-4.55-1.44.15-1.03Zm-.97 1.94 4.05 1.18-.14.9-4.07-1.11.15-.98Zm-33.4-26.79 13.35 1.22-.06 1.11-.21-.03c-1.62-.21-3.28-.29-4.89-.36-2.66-.12-5.4-.25-8.08-.98l-.16-.04.05-.92Zm-4.74 1.12-5.48-.57.04-.82 5.5.58-.07.81Zm-5.56-2.89.07-.06c1.44-1.27 2.84-.69 4.2-.12.54.22 1.1.46 1.65.56l-.04.4h-5.89v-.78Zm20.53-17.58-1.32.39c-2.99.89-5.97 1.14-8.91 1.14-2.05 0-4.08-.12-6.08-.25-2.62-.16-5.33-.33-7.98-.2h-.21l.03-1.08h24.48Zm-1.97-2.33.05.4c-2.97.61-6.35 1.18-9.85 1.18-1.07 0-2.16-.05-3.25-.18-2.41-.27-4.85-.58-7.21-.88-2.55-.32-5.19-.66-7.79-.95-.96-.11-1.94-.15-2.89-.19-1.31-.05-2.66-.11-3.98-.34-2.58-.45-5.1-1.42-7-2.21l-1.35-.56 1.45.18c3.12.38 6.29.82 9.36 1.24 10.61 1.47 21.57 2.98 32.44 2.31ZM219 49.85l-.04.75h-.18c-.5.02-1.02.03-1.54.03-2.04 0-4.23-.19-6.36-1.31l-.94-.5 9.07 1.03Zm-15.33-.05c.67.11 1.36.22 2.03.27v.4h-8.36l.79-.38c1.86-.9 3.73-.59 5.54-.29Zm-5.31-3.17v.83l-.16.04c-.74.18-1.49.27-2.26.27-1.27 0-2.58-.25-3.91-.75l-1.02-.39h7.36Zm-6.03 3.52c5.6.61 11.4 1.24 17.1 1.84 1 .1 2.03.08 3.03.05.47-.01.95-.03 1.42-.03h.18l.15 1.11-.16.05c-.16.05-.32.12-.48.2-.34.15-.69.31-1.04.31h-.12c-5.39-.55-10.93-1.15-16.95-1.84-3.52-.4-7.09-.85-10.55-1.28l-3.57-.44c-.16-.02-.3-.06-.45-.11-.06-.02-.12-.04-.19-.05l-.14-.04-.03-.71.18-.03c.12-.02.24-.04.36-.07.28-.06.57-.12.87-.09 3.47.37 6.94.75 10.4 1.13Zm-8.79-3.54.22.03c.35.05.72-.02 1.1-.09.93-.17 1.98-.38 3.01 1.12l.25.36-4.62-.5.05-.92Zm-.5 1.4 5.36.47-.05.86-5.36-.54.05-.79Zm-3.76-1.95 3.13.32-.07.96-3.12-.41.06-.88Zm-1.75 1.04 3.6.52-.04.82-3.6-.34.04-1Zm-7.07.32 5.86.75-.06 1.02-5.86-.73.06-1.04Zm-11.78-1.41.21.02c.39.04.78.09 1.17.13.9.1 1.82.21 2.73.27.35.02.7.11 1.04.2.87.22 1.63.42 2.38-.38.23-.24.67.07.85.21.34.27.67.57.98.86l.45.4-.06.75-9.82-1.32.06-1.15Zm-25.4-1.7h4.66c4.45.08 8.89 1 13.18 1.88 2.14.44 4.35.9 6.53 1.25.18.03.37.06.55.08.6.09 1.22.18 1.82.36.34.1.65.31.96.51.19.13.37.25.56.34.12.06.25.13.37.21.34.2.69.41.98.37 6.68-.73 13.37.36 19.84 1.42 1.19.2 2.38.39 3.57.58 2.09.32 4.23.62 6.29.9.96.13 1.92.26 2.88.4l.15.02.1.8-.19.03c-.14.02-.27.06-.41.09-.27.07-.55.13-.83.13h-.14c-4.17-.35-8.41-.74-12.51-1.11l-1.1-.1h-.18c-.24 0-.54 0-.72-.23-.8-.99-1.66-.92-2.66-.83-.31.03-.63.06-.96.04-5.69-.13-10.42-.43-14.88-.92-1.3-.15-2.59-.6-3.84-1.03-1.01-.35-2.06-.72-3.1-.92-4.75-.89-9.58-1.7-14.26-2.49-1.91-.32-3.83-.64-5.74-.97-.34-.06-.7-.14-1.05-.46l-.37-.35h.51Zm-6.39 5.16c2.02-.93 3.87-1.62 6.01-.58 1.21.59 2.65.53 4.02.41 4.18-.35 7.92 1.34 12.03 3.4.09.04.15.1.27.21.07.07.17.16.31.28l.29.25-.38.09c-.22.05-.41.12-.57.17-.24.08-.45.15-.64.15-.06 0-.13 0-.19-.02-.74-.19-1.5-.31-2.24-.42-1.47-.22-2.99-.45-4.49-1.3-1.52-.86-3.31-1.01-5.05-1.16-.61-.05-1.24-.11-1.85-.19-1.51-.21-3.05-.34-4.55-.48l-2.3-.21c-.14-.01-.25-.07-.4-.13-.07-.03-.16-.07-.26-.11l-.45-.17.43-.2ZM1.69 51.95l.38-.35c.22-.21.43-.41.63-.61.43-.42.83-.82 1.28-1.11.06-.04.12-.08.19-.13.39-.27.83-.57 1.24-.39.33.14.54.55.65 1.28.02.13.12.27.27.48.1.14.22.3.35.51l.19.31H1.69Zm230.54 97.53 2.87.65-.93 1.61-2-1.66.06-.59Zm8.56-10.15-6.25-.48.06-1.01 6.23.65-.04.84Zm12.27-3.47-.26.28c-.69.74-1.5 1.13-2.35 1.13h-.05c-1.08-.02-2.2-.66-3.24-1.85l-.35-.4 6.26.83Zm-16.26-9.09.03.7h-5.84l-.02-.7h5.83Zm6.56 5.8-.26.29c-.34.37-1.45.54-2.9.54-3.31 0-8.42-.85-10.3-2l-.78-.47 14.23 1.65Zm-18.62 1.2c.23-.06.46-.13.68-.19.08-.02.15-.05.23-.08.14-.06.31-.11.48-.13.68.02 1.37.02 2.05.03 1.8.02 3.65.04 5.48.21 2.64.24 5.31.63 7.9 1.01l1.73.25c.53.08 1.05.24 1.56.39.23.07.46.14.7.2l.16.04-.09 1.01-.2-.02c-1.08-.09-2.16-.2-3.24-.31-2.42-.24-4.93-.49-7.39-.59-2.62-.12-5.34-.08-8.24.09l.29.03-.07 1.01-.21-.03c-.31-.04-.63-.07-.95-.11-.71-.07-1.44-.14-2.15-.35-1.56-.46-2.94-.69-4.18 1.03-.23.31-.59.43-.8.49-.05.02-.1.03-.13.04l-.16.08-1.77-2.77.16-.11c.1-.07.21-.16.31-.24.24-.2.48-.41.76-.42.88-.05 1.77-.08 2.63-.1.94-.03 1.9-.05 2.85-.12.53-.04 1.08-.19 1.61-.34ZM201 135.41c-4.23.3-8.09.59-11.8.9l-.3.03c-.48.04-.97.08-1.45.08-.98 0-1.96-.17-2.9-.85-.22-.16-.53-.18-.84-.19-1.03-.05-2.03-.13-3-.2-2.38-.18-4.85-.37-7.26-.22-1.24.08-2.44-.19-3.6-.45-1.02-.23-2.09-.48-3.13-.45-1.38.03-2.77-.06-4.12-.14-.87-.05-1.76-.1-2.64-.13-.55-.02-1.11.05-1.65.11-.21.02-.42.05-.63.07l-.04.15 1.97 1.84-8.69-.55.35-1.12-.3-.06c-.39-.08-.75-.15-1.11-.3-.09-.04-.22-.04-.36-.04-.39 0-.96-.01-1.04-1.01-.12-.04-.36-.08-.54-.09l-3.47-.12c-1.62-.06-3.24-.11-4.86-.18-.28-.01-.55-.1-.81-.18-.11-.04-.22-.07-.34-.1l-.16-.04.05-.83h5.74c.17 0 .32.06.46.11.11.04.22.08.32.08 1 .04 2.02.11 3 .18 2.29.16 4.66.32 6.96.12 4.9-.42 9.8.25 14.54.89l.44.06c1.27.17 2.67.44 4.26.83 2.98.72 6.05.69 9.02.67 1 0 2.04-.02 3.07 0 5.25.11 10.6.09 15.77.06 3.1-.01 6.31-.03 9.47-.01.89 0 1.79.18 2.66.34.4.08.81.15 1.21.22l.17.03v.97h-.2c-.27 0-.53.01-.8.01-.61 0-1.25.02-1.87.08-.22.02-.44.09-.67.17-.27.09-.56.19-.85.2-.36 0-.73-.08-1.07-.18-.15-.04-.31-.08-.46-.11-.31-.06-.62-.14-.94-.21-.72-.17-1.47-.35-2.2-.38-.45-.03-.9.16-1.43.36-.26.1-.53.2-.82.29l-.08.02-.07-.04a2.38 2.38 0 0 1-.23-.14c-.23-.15-.55-.36-.87-.44-.55-.13-1.15-.17-1.85-.12Zm.47 2.54-.03.74h-3.46l.02-1.09 3.48.35Zm-27.42 1.48-.04 1-4.99-.39.04-1.09 4.98.48Zm-10.59-3.23-4.07-1.98h6.71l.03.89-2.96.18.29.91Zm-1.39 2.93h-7.54l-.15-.78.14-.07c.12-.06.25-.14.37-.22.31-.19.62-.4.96-.37 1.48.14 2.97.34 4.42.53l1.58.21.16.02.06.68Zm-15.29-3.32-.03.74-5.28-.48.77-.31c1.55-.62 3.03-.62 4.42 0l.12.06Zm-80.65 10.17.03.79-.19.04-2.76.18v-1.01h2.92Zm-3.06-1.36c-.24 0-.48-.01-.75-.03-.18-.02-.23-.18-.32-.45-.03-.1-.07-.22-.12-.34l-.08-.2.2-.06c.1-.03.19-.07.27-.1.16-.06.31-.12.46-.11.31 0 .61.05.9.08l.56.06-.04.21c-.01.08-.03.18-.04.27-.05.4-.08.59-.27.62-.25.03-.5.05-.78.05Zm2.72-7.62.71-.43c1.54-.93 3.12-.9 4.66-.87.5 0 1.01.02 1.51 0h.24l-.12.8-7 .51Zm46.5-30.83c.88-.28 1.79-.51 2.67-.73 2.21-.56 4.49-1.13 6.59-2.52 1.31-.87 2.83-1.22 4.29-1.55.37-.08.74-.17 1.11-.26 2.07-.53 4.26-.99 6.7-1.4.91-.15 1.91-.07 3.06.27l.82.24-1.99.35c-.9.16-1.8.31-2.7.48-4.05.75-8.12 2.06-12.1 3.91-2.91 1.35-5.76 2.25-8.47 2.69-2.67.43-5.42.56-8.06.69-1.13.05-2.31.11-3.46.19h-.15l-.14-.43.19-.09c.17-.04.33-.09.49-.15.36-.11.73-.23 1.11-.28 1.07-.14 2.15-.23 3.21-.32 2.27-.19 4.62-.4 6.83-1.09Zm-5.58-1.06 3.58-.37.07.82-3.61.54-.04-.99Zm24.97 12.63-14.7.74.03-1.19h14.83l.05.39-.21.07Zm3.1 5.28.09.93-3.96.65-.13-.99 4.01-.59Zm-9.58-1.88h-6.05l-.03-.54 6.04-.42.04.96Zm-7.55-2.15h3.73v.74h-3.74v-.74Zm6.25 3.06-.56.57c-.46.47-.86.88-1.35.88-.3 0-.6-.16-.9-.47-.07-.08-.48 0-.8.23-.19.13-.44.29-.7.29a.57.57 0 0 1-.22-.04c-.3-.12-.5-.5-.62-1.23l-.04-.23h5.2Zm2.1 1.69.02 1.06h-4.15l-.02-.69 4.15-.38Zm-3.07 9.08-.13.1-.12-.14c-.06-.04-.11-.1-.12-.16l-.04-.15.14-.07c.06-.03.12-.03.17 0 .15-.12.29-.25.44-.38.46-.41.94-.84 1.48-1.03.44-.15 1.57-.46 2.53.02 1.37.69 2.65.89 4.04.64.86-.16 1.75-.07 2.61 0 .38.04.76.07 1.13.09h.19l.03.81-1.33.42h1.99l-.07 1.09-.26-.1c-.27-.11-.58-.03-.9.05-.22.05-.46.11-.71.11-.48 0-.97-.22-1.39-1.11-.06-.13-.59-.08-.91-.05-.21.02-.43.04-.61.04l-3.16-.07c-1.67-.03-3.33-.07-5-.1Zm2.35 3.21-2.69.41-.09-.93.07-.07c.33-.32 1.33-1.31 2.56-.34l.07.05.09.88Zm-23.62-16.13c1.76-.1 3.58-.2 5.38-.25.24 0 .45.25.64.51.07.09.14.19.21.26l.12.13-.11.13c-.06.08-.12.18-.18.27-.17.27-.33.53-.59.56-.16.02-.33.06-.51.11-.24.06-.5.13-.77.13-.44 0-.89-.19-1.27-.89-.1-.19-.64-.15-.99-.12h-.22c-.76.05-1.53.13-2.28.2l-.94.09-.22.02v-1.08l1.74-.09Zm-.01-2.57.23-.32c.85-1.18 1.03-1.21 2.36-.47l.1.06.02.73h-2.71Zm6.01 1.36.16-.32c.53-1.06 1.26-1.68 2.1-1.79.89-.11 1.82.36 2.69 1.37l.26.3-5.2.44Zm-7.2-.24.14.92-4.9 1.42.1 1.33h-1.83l.25-1.16-5.86.49-.06-.7 12.16-2.31Zm-2.53-8.99c-.13.04-.25.09-.36.14-.26.11-.5.21-.76.23-1.06.09-2.11.18-3.17.28-3.05.27-6.21.55-9.32.71-3.36.17-6.77.24-10.07.31l-4.24.09h-1.3l-.05-.9 30.57-1.31-1.28.45Zm-25.16 15.19-3.81.31-.05-.93 3.84-.38.03 1Zm-.93 16.64c1.25-1.08 2.52-.65 3.7-.03l.71.38h-4.82l.41-.35Zm1.87-4.62v-.91l.07-.06c.91-.75 1.85-.5 2.68-.27.29.08.57.15.84.19l.17.02.02.8-3.78.23Zm2.61-8.31c-.32.1-.6.15-.85.15s-.45-.05-.63-.15c-1.55-.9-3.09-.72-4.39-.43-.2.05-.4.02-.6-.01l-.23-.03h-.18l-.03-.78 11.63-1.04.06 1-.19.02c-.2.02-.41.04-.61.05-.45.03-.88.06-1.29.19-.47.14-.94.34-1.4.53-.43.18-.87.36-1.31.5Zm4.22 7.07c1.73-.89 3.62-.9 5.78 0l.93.38h-7.44l.73-.38Zm2.52-1.16-.05-.75.1-.06c1.13-.7 2.3-.6 3.44-.51.27.02.53.04.79.05h.18l.05.78-4.52.48Zm1.5-8.54h3v.69l-2.98.26-.02-.95Zm-3.63-.79h-.07c-.89 0-1.77-.38-2.7-.78-.44-.19-.9-.39-1.36-.55l-.64-.22 3.58-.89v-.09l-1.66-1.11.21-.17c.08-.07.17-.14.25-.2.61-.51 1.25-1.04 2.1-.31.05.05.29-.04.42-.08.08-.03.16-.05.23-.07.22-.06.43-.13.65-.21.1-.04.2-.07.3-.1l.17-.06.47.95-.18.09c-.06.03-.12.06-.19.1-.14.08-.29.16-.46.21-.68.19-.65.68-.54 1.54.02.13.03.25.04.38.03.31.1.52.21.61.12.1.32.07.54.05.08 0 .16-.02.24-.02 1.49-.08 2.98-.17 4.49-.27l1.31-.08c0-1.42.74-1.5 1.34-1.57.2-.02.4-.05.55-.12.27-.13.51-.15.72-.07.37.15.53.58.71 1.04.07.18.14.37.23.55l.1.19-.2.08c-.11.05-.2.1-.29.14-.19.1-.37.19-.57.21-.87.08-1.73.17-2.6.27-2.42.26-4.93.52-7.4.58Zm8.36 15.7c1.39-1.35 3.07-1.55 4.26-.51l.34.29-5.03.64.43-.42Zm1.64-5.4.03-.86h3v.86h-3.03Zm3.01-1.96c-.13 0-.26.02-.39.02-.95 0-1.86-.31-2.42-1.84l-.1-.27h.29c.34 0 .71-.05 1.08-.1.84-.12 1.71-.23 2.36.25.85.63 1.7.65 2.6.67.81.02 1.64.04 2.48.51l.41.23-.46.13c-.11.03-.22.07-.34.11-.26.09-.53.19-.82.2-.62.02-1.25.02-1.88.02-.93 0-1.89 0-2.83.07Zm1.36.65 13.88-.88.1.83-.17.05c-.25.07-.5.15-.74.23-.56.18-1.14.37-1.73.4-.93.05-1.87 0-2.78-.03-.54-.02-1.08-.04-1.61-.05-.26 0-.68 0-.78.15-.4.68-.86.86-1.33.86-.28 0-.57-.07-.84-.13l-.18-.04c-.45-.1-.89-.14-1.37-.17-.32-.02-.64-.05-.97-.09a8.2 8.2 0 0 1-.98-.23l-.42-.12-.17-.04.08-.74Zm13.98-9.2.89-.34c-.55-.72-1.15-.7-1.96-.59l-3.8.52c-3.85.53-7.71 1.06-11.56 1.58-.17.02-.34.03-.51.03-.2 0-.4-.01-.6-.02h-.17c-.14-.02-.25-.08-.36-.13-.04-.02-.07-.04-.11-.05l-.12-.05-.04-.65.16-.08c.17-.04.33-.08.5-.13.37-.1.75-.2 1.14-.24.74-.07 1.48-.12 2.22-.17 1.08-.08 2.2-.15 3.29-.29.57-.07 1.16-.24 1.72-.41.37-.11.74-.22 1.12-.31.2-.04.4-.09.6-.14.79-.19 1.61-.39 2.43-.43 1.16-.06 2.33-.06 3.47-.06.9 0 1.82 0 2.73-.03.78-.02 1.55-.11 2.29-.2.32-.04.63-.07.92-.1l.4-.04-.21.34c-.1.16-.2.38-.32.6-.31.63-.67 1.35-1.2 1.71-.56.37-1.23.38-1.88.38-.26 0-.54 0-.79.03l-.2.02-.07-.78Zm3.93 9.41c-.37 0-.74-.11-1.09-.21-.35-.1-.68-.21-.99-.2h-.19l-.06-.89 3.78-.52.06.88-.04.06c-.47.68-.97.88-1.47.88Zm.36 4.69-2.82.5-.09-1.15 2.85-.19.05.85Zm-.3-13.73.73-.38c1.47-.76 3.1-.77 4.98 0l.95.39h-6.66Zm4.24 14.78c.16-.08.31-.2.47-.31.38-.26.77-.53 1.18-.52 1.25.06 2.52.19 3.74.32.74.08 1.47.16 2.21.22.55.04 1.12 0 1.68-.04h.18c1.08-.1 2.16-.19 3.23-.28 1.62-.13 3.24-.27 4.85-.39.21-.03.42.07.6.15.07.03.15.06.22.08l.12.04.1.7-.15.06c-.11.04-.22.09-.33.14-.26.12-.53.24-.82.26-5.03.25-10.25.49-15.53.71h-.11c-.33 0-.65-.05-.96-.11-.16-.03-.32-.05-.47-.07l-.14-.02-.18-.88.13-.07Zm18.44-21.43-.1-1.16h.22c3.11.08 6.27-.38 9.32-.83 4.4-.65 8.94-1.32 13.48-.4l1.37.27-24.3 2.12Zm2.29-19.38 4.2-.27c3.68-.23 7.16-.45 10.67-.64.41-.02.8.1 1.26.25.22.07.45.14.7.21l.42.1-.35.25c-.71.51-5.87.84-10.2.84-2.69 0-5.05-.13-5.81-.41l-.88-.33Zm19.18.42v-.72h3.75v.72h-3.75Zm28.83 21.31c.37.14.73.28 1.1.42 2.7 1.05 5.49 2.12 8.4 1.96h.21l-.01.82-.73.09c-.47.06-.95.12-1.42.17-.46.04-.91.08-1.37.11l-.45.04-.02.25 3.86.21-.06 1.12-.13.04c-.67.24-1.35.36-2.03.36-1.54 0-3.13-.59-4.81-1.79l-.45-.32 2.25-.17.02-.18c-1.03-.26-2.08-.54-3.09-.82-2.42-.66-4.93-1.34-7.41-1.71-2.49-.37-5.06-.45-7.53-.53-1.09-.03-2.21-.07-3.32-.13h-.16l-.15-.77.12-.07c.12-.07.24-.16.37-.26.3-.23.62-.46.96-.43 1.79.19 3.63.21 5.41.22 3.44.03 7 .06 10.43 1.36Zm-7.65-2.77.7-.3c1.83-.79 3.02-.99 3.86-.66.52.21.9.62 1.17 1.26l.13.31-5.87-.61Zm8.09 1.61.14-.76 3.42 1.05-.15.82-.14.02c-.35.06-.74.13-1.13.13-.74 0-1.5-.24-2.1-1.2l-.04-.07Zm4.12-.91.48.15c1.17.38 2.11.31 3.03-1.16-.07.02-.14.03-.2.04-.4.09-.72.16-1.04.2-.22.03-.45.02-.66 0-.09 0-.19-.01-.28-.01h-.22l.02-.22.03-.39c.02-.3.04-.61.12-.9.17-.57.37-1.14.6-1.8.11-.3.22-.62.35-.98l.08-.23 5.22 3.13-.08.17c-.57 1.15-.33 2.02.84 2.98l.08.07-.07.68-.14.03c-.21.04-.41.09-.62.15-.48.12-.98.25-1.48.25h-.02c-.35 0-.69-.09-1.03-.17-.33-.08-.65-.17-.96-.16-.34 0-.85.18-1.14.55-.52.65-.93 1.12-1.42 1.16h-.07c-.43 0-.86-.31-1.53-.92l-.17-.15.34-.32c.13-.12.24-.23.36-.33.1-.09.21-.17.33-.26l.07-.05-.84-1.51Zm-.23-12.8 8.59 1.51-.34.28-.72.6c-.61.52-1.24 1.06-1.91 1.47-.12.08-.26.11-.41.11-.36 0-.77-.19-1.07-.4-.92-.65-1.82-1.38-2.69-2.08l-.68-.55c-.12-.1-.21-.22-.31-.35-.04-.05-.08-.11-.13-.17l-.34-.42Zm1.52 27.5c.82-1.17 2.03-1.29 3.42-.33l.45.31-4.12.37.25-.35Zm-.7-3.01c-.24-.04-.48-.08-.72-.1l-.2-.02.02-.2c.07-.81.23-1.25.56-1.48.25-.18.59-.21 1.04-.09.37.1.76.11 1.17.12.42.01.86.02 1.3.13l.25.06-.12.23c-.65 1.19-1.44 1.46-2.23 1.46-.36 0-.72-.06-1.07-.11Zm3.95 1.63-.08-.93 4.36-.42.05 1.03-4.34.31Zm-5.32 1.55.29.21-.98.41h-.06a5.59 5.59 0 0 0-.59-.11c-.53-.09-1.08-.18-1.61-.37-.42-.15-.51-1.22-.51-1.23-.02-.3.31-.83.59-.88.59-.09 1.18-.12 1.8-.15.21-.01.43-.02.65-.04h.21v.19c0 .36-.14.64-.25.85-.2.38-.31.57.45 1.11Zm-11.77-11.67-.05.77-.09.05c-.4.24-.78.33-1.16.33-.59 0-1.16-.22-1.71-.44-.41-.16-.79-.31-1.18-.38l-.18-.03.05-.81 4.31.5Zm-.99 4.39c.35.02.73-.14 1.12-.31.14-.06.29-.12.43-.18l-.02-.31-2.37-.61.04-.76 5.51.4-.03.87-1.07.07 1.25.9-2.15.55-.03.21c.23.07.47.16.7.24.65.23 1.24.45 1.87.43.59-.02 1.19-.29 1.83-.57.29-.13.59-.26.89-.37l.31-.11-.04.33c-.06.5-.07.85.09 1.01.25.27 1.03.27 2.67.16h.15l.23.66-.13.09c-.11.07-.22.15-.32.23-.26.19-.53.39-.83.47-.39.1-.78.11-1.17.11-.17 0-.34 0-.51.02-.29.02-.59.06-.89.1-.43.06-.86.12-1.3.12-.22 0-.44-.01-.66-.05-1.66-.29-3.35-.63-4.98-.96-1.84-.37-3.74-.76-5.61-1.07-1.68-.28-3.4-.45-5.06-.62-1-.1-2.01-.2-3.01-.33-1.18-.15-2.36-.29-3.49-.63-.53-.16-1.02-.48-1.5-.8-.21-.14-.42-.28-.63-.4l-.14-.08.25-.83.25-.02c1.12-.11 2.29-.21 3.32.91.11.12.33.15.48.16l1.94.14c4.12.3 8.39.61 12.58.86Zm6.44 6.85-1.19.2c-.65.11-1.28.16-1.91.16-1.45 0-2.88-.28-4.39-.86l-.39-.15.37-.21c1.72-.99 3.18-.43 4.59.12.6.23 1.17.45 1.74.55l1.19.2Zm-19.06-5.28h.19v1.15h-.19c-1.86.11-3.73.15-5.59.15-4.26 0-8.51-.21-12.67-.42-1.72-.09-3.44-.17-5.16-.24v-.4c8.38-.93 16.55-.64 23.43-.23Zm-23.99-6.71h-.2l-.06-.95 6.81-.52.04.93-.11.06c-.93.48-1.88.6-2.82.6-.51 0-1.02-.04-1.52-.07-.7-.05-1.42-.1-2.12-.05Zm13.64-.87h-5.21l.06-.8h5.16v.8Zm.94 4.53-.39.35c-.6.54-1.13.8-1.65.8s-1.03-.27-1.58-.81l-.35-.34h3.97Zm7.46 5.33h.17c2.43-.2 5.18-.4 7.8.82l.12.06-.05.87-8.09-.92.05-.82Zm5.92-7.82c-.74.86-1.28 1.37-1.85 1.41h-.08c-.44 0-.84-.27-1.34-.71-.22-.19-.53-.23-.86-.27-.11-.01-.22-.03-.33-.05-.63-.12-1.26-.23-1.9-.33l-.96-.16.09-.87 7.46.68-.25.29Zm-2.19-1.91h-6.67l-.05-.76h6.72v.76Zm-13.85-2.16.48-.36c.85-.64 5.05-.99 7.26-.44l.15.04v.77h-7.89Zm54.13 13.83h8.34v.79l-.16.03c-.96.21-1.92.31-2.86.31-1.46 0-2.88-.25-4.25-.75l-1.07-.39Zm2.4-3.39c-4.13.42-8.41.85-12.64.85h-.31l-.12-1.01.15-.05c.16-.06.33-.13.49-.2.37-.16.76-.32 1.15-.36 3.97-.39 8.1-.74 11.43-1.03.24-.02.49-.01.72 0 .33.01.64.03.94-.04.21-.05.41-.21.63-.37.15-.11.29-.23.45-.32l.15-.09c.28-.16.59-.36.91-.31.83.1 1.86.21 2.81.54 1.65.57 3.05.84 4.53.32.36-.13.75-.05 1.11.02.15.03.31.06.45.08l.18.02v1.09h-.45c-4.21 0-8.47.43-12.6.85Zm-6.37-22.09-.17-.99 3.37-.89.23.7-3.43 1.17Zm6.77 8 .03.66h-4.34l-.02-.66h4.33Zm12.8 17.08-.16.34c-.42.88-1.41 1.33-2.71 1.33-.78 0-1.67-.16-2.61-.5l-.76-.27 6.24-.9Zm-6.82-11.35h9.02v1.17l-.25-.07c-1.34-.35-2.72-.18-4.05 0-.78.1-1.57.2-2.37.2-.75 0-1.5-.09-2.26-.34l-.15-.05.07-.9Zm-4.22-.25c1.29-.21 2.75.21 3.8 1.07l.43.35h-6.33l.19-.31c.37-.59 1.05-.98 1.91-1.12Zm37.73-1.44-6.99-1.6.11-.96 7 1.36-.12 1.2Zm1.91-2.3.32.47-.55-.17c-5.43-1.72-10.84-1.87-16.56-2.02-3.29-.09-6.69-.18-10.08-.6l-.62-.08.55-.3c3.43-1.87 25.34.32 26.94 2.7Zm-4.71-5.12h-5.13l.32-.34c1.11-1.18 2.27-.92 3.3-.69.46.1.9.21 1.32.19h.21l-.02.83Zm10.18-19.55v.8H246.35c-.26 0-.59-.06-.9-.48l-.23-.32h11.15Zm-9.22 4.31.06 1.01-3.08.47-.06-1.29 3.08-.19Zm-4.48-.31c.22.36.45.74.79.8l.52.1-.46.27c-.87.51-1.69.68-2.49.68-.74 0-1.46-.14-2.17-.28-.88-.17-1.71-.34-2.55-.22l-.23.03v-.93h5.21l-.4-.99.14-.09c.29-.19.55-.25.79-.2.39.09.62.47.84.84Zm-1.27-3.7v.72h-3.1V92h3.1Zm-5.35-.01.04.97-5.8.5-.05-.86 5.8-.61Zm-6.41 19.19c1.2.07 2.41.22 3.58.38.52.07 1.04.13 1.56.2l.19.02-.03.66-10.65-.65v-.63h.2c.52 0 1.05 0 1.57-.01 1.18-.02 2.4-.03 3.6.04Zm-1.89-1.79.04.79-4.37.26v-1.05h4.33Zm9.12 6.46 2.64.16.04 1.06-.53.04-.75.06c-1.54.14-3.09.19-4.63.19-3.33 0-6.66-.26-9.91-.51-1.55-.12-3.15-.24-4.72-.34-2.2-.13-4.46.12-6.64.36-.98.11-1.99.22-2.98.3-.19.01-.38.04-.56.06-.22.03-.45.05-.67.07-.14.03-.24-.07-.32-.14a.18.18 0 0 0-.07-.05l-.42-.26.49-.1c9.7-2.08 19.53-1.48 29.05-.9Zm-25.48-1.86 5.29-.46.03 1.02h-5.27l-.04-.56Zm8-1.67h-3.98l-.03-.4 2.54-.33-.84-1.34 2.05-.13.25 2.2Zm-2.18-12.82.86-.09.2-.02.08.78-.17.04c-.95.23-1.91.47-2.86.71-2.1.52-4.27 1.07-6.41 1.55l-2.12.48c-3.13.72-6.37 1.47-9.57 1.94-.27.04-.53.06-.8.06-1.06 0-2.14-.27-3.19-.53-.36-.09-.71-.18-1.06-.26-.42-.09-.78-.41-1.14-.72-.15-.13-.3-.27-.46-.38l-.11-.08.19-.69.18.03c.21.04.42.07.64.09.48.06.97.12 1.44.32 2.51 1.08 5.09.56 7.58.06 2.71-.54 5.42-1.1 8.12-1.67 2.23-.46 4.45-.93 6.68-1.38.63-.13 1.27-.19 1.9-.25Zm-21.59-1.92 2.89.19-.04 1-2.88-.3.04-.89Zm-4.39 2.68c3.08 1.64 6.23 1.13 9.28.64 1.18-.19 2.4-.39 3.6-.46.95-.06 1.92-.33 2.86-.6.47-.13.95-.27 1.43-.38.25-.06.64-.09 1.05.26l.31.27-.97.2c-.42.09-.83.18-1.25.25-1.09.19-2.18.38-3.27.58-2.99.53-6.08 1.08-9.13 1.52-.16.02-.33.04-.49.04-1.25 0-2.5-.68-3.65-1.99l-.72-.82.97.51Zm-5.17 15.85c.5.25 1.04.42 1.56.58.41.13.84.26 1.25.44.4.17.77.41 1.13.65.16.11.32.21.48.31l.13.08-.22.9-.23-.12c-5.72-3.09-11.81-2.82-17.7-2.57h-.3c-2.05.1-4.13.25-6.14.39-1.36.1-2.73.19-4.09.27-.29.03-.58-.07-.85-.16-.12-.04-.23-.07-.35-.1l-.16-.04.02-.84h.19c.48-.02.95-.04 1.43-.05 1.01-.03 2.06-.05 3.08-.13 1.26-.09 2.53-.21 3.77-.33 2.33-.22 4.75-.45 7.13-.5.4 0 .8-.02 1.21-.03 2.87-.08 5.83-.17 8.67 1.24Zm-1.87-2.28-3.09-.32.03-.61h3.06v.93Zm-17.5-18.97c1.92-1.06 12.05.92 14.65 2.87l.09.07-.06.85-15.13-3.54.46-.25Zm-1.11 3.33h.19c.42-.03.84-.07 1.26-.12.93-.1 1.89-.21 2.83-.02 2.62.52 5.28 1.19 7.84 1.83.89.22 1.78.45 2.67.67.37.09.73.22 1.08.34.16.06.32.11.48.17l.16.05-.11.76-16.42-2.53.03-1.15Zm-2.8 1.17c.4-.72.77-1.08 1.2-1.18.35-.07.71.04 1.12.34l.12.09-.05.14c-.31.85-.75 1.05-1.21 1.05-.21 0-.41-.04-.61-.08-.13-.02-.27-.05-.41-.07l-.3-.03.14-.26Zm1.01 14.41c1.09-.03 2.2-.02 3.27-.02H168.69v.87h-9.68v-.58l.18-.01 1.41-.09c1.05-.07 2.13-.14 3.2-.18Zm-13.75-23.16c1.18-1.09 2.27-.5 3.23.02.3.16.61.33.92.45l1.63.61-6.09-.79.32-.29Zm1.53 2.15-11.85.5.02-.9h11.82v.4Zm-36.12-.31c.57-.22 1.13-.44 1.7-.65l1.38-.51c1.75-.64 3.56-1.31 5.35-1.93.7-.24 1.43-.44 2.17-.45 2.71.07 5.58.19 8.53.37 2.77.17 5.59.37 8.31.57l3.41.24c.21.01.42.03.63.05l.45.04-.08.8h-.17c-.49.04-.99.07-1.48.1-1.05.07-2.14.15-3.22.14h-1.01c-3.47-.02-7.06-.04-10.59-.22-4.19-.2-8.14.77-12.87 2.06-.7.19-1.43.29-2.13.39-.32.05-.65.09-.97.14l-.19.03-.16-.83.93-.36Zm-1.07 3.74c2.45-2.35 22.11-4.98 24.17-3.24l.42.35h-.55c-.65 0-1.28-.01-1.9-.02-1.33-.02-2.59-.04-3.84.04-3.5.24-6.2.51-8.73.89-.99.14-1.99.47-2.96.79-.53.17-1.08.35-1.63.5-1.42.38-3.1.81-4.82 1.04l-.61.08.44-.42Zm2.71 2.35c.88-.26 1.76-.66 2.61-1.04.97-.43 1.96-.88 2.98-1.15 2.49-.66 5.39-1.38 8.26-1.56 2.44-.16 4.93-.15 7.33-.15 1.92 0 3.9 0 5.85-.07 1.63-.07 3.29-.33 4.9-.59.71-.11 1.42-.23 2.13-.32.07 0 .15-.04.24-.07.14-.05.3-.11.47-.09 2.48.25 4.96.51 7.44.77l1.97.21-.05.82h-.17c-.27.04-.55.06-.82.08-.6.05-1.22.11-1.84.13-2.31.06-4.61.11-6.92.16l-5.25.12c-.34 0-.67.03-1.01.06-.56.04-1.14.09-1.71.05-.3-.02-.57-.17-.83-.32-.19-.11-.38-.21-.56-.26l-.21-.05c-.6-.16-1.07-.28-1.5.49-.23.42-.77.85-1.25.85h-.04c-4.67-.23-9.34.11-13.87.99-1.86.36-3.56 1.03-5.36 1.75l-.15.06c-9.76 3.86-18.02 6.28-25.98 7.62-5.22.88-10.74 1.17-17.36.91-7.34-.29-14.45.7-22.32 1.92-9.07 1.41-18.05 4.42-26.74 7.34l-2.45.82c-.41.14-.85.27-1.33.4-.02 0-.05.01-.07.01-.09 0-.16-.05-.24-.1-.04-.03-.1-.06-.17-.1l-.27-.14.24-.19c.1-.08.2-.16.29-.24.18-.16.35-.31.55-.4 7.22-3.42 14.61-5.55 22.17-7.6 4.23-1.15 8.72-2.04 13.72-2.72 3.66-.5 7.64-.75 12.18-.75h.58c5.03 0 10.24 0 15.37-.62 5.2-.63 9.96-1.57 14.55-2.87 1.51-.43 3.02-.85 4.53-1.27 3.32-.92 6.76-1.88 10.12-2.89Zm-49.84 25.51-.32.4c-1.05 1.31-1.52 1.89-1.97 1.89h-.07c-.41-.05-.64-.57-1.05-1.51l-.1-.24 3.51-.53Zm-27.99.5.11.89-3.84.89-.12-.98 3.85-.8Zm-5.11-7.69-.16-1.13 3.07-.79.17 1.2-3.08.72Zm3.82-1.68.14-.06c.23-.1.45-.26.69-.43.55-.4 1.17-.84 1.93-.44l.09.05.11.97-2.85.71-.12-.79Zm1.66 12.5.13.89-2.91.9-.16-.94 2.94-.85Zm.87-1.22.12-.32c.19-.49.51-.74.8-.96.37-.29.67-.51.64-1.25-.01-.35.87-.52.88-.52 1.14-.15 2.28-.29 3.42-.42l.89-.1c.1-.01.24-.03.37 0 1.16.37 2.32.75 3.48 1.13l.67.22.34.5-11.6 1.73Zm1.41 8.63-4.49 1.07-.13-.85 4.54-.92.08.7Zm.29-20.28.25-.38c1.01-1.56 1.53-1.6 4-1.12l.13.03.14.72-4.52.76Zm7.61-1.64-.06-.83.16-.04c4.48-1.1 8.95-1.56 13.27-1.37l.02.4-13.39 1.84Zm8.97 10.84-6.41.63.04-.26c.03-.21.05-.43.07-.62.04-.46.08-.85.27-1.08.21-.25.56-.16.88-.08.11.03.23.06.33.07l.94.08c.55.04 1.09.09 1.64.14.48.04.96.1 1.44.15l.79.09v.89Zm-7.02 1.02 11.85-.73-.2.33c-.73 1.19-1.56 1.76-2.57 1.76-.25 0-.51-.03-.78-.1-.91-.23-1.87-.24-2.8-.26h-.47c-1.25-.04-2.52-.03-3.75-.02h-1.77l-.05-.95.54-.03Zm-12.45-21.27.09-.08c.06-.05.12-.11.18-.17.15-.15.31-.3.5-.37 1.08-.39 2.16-.77 3.24-1.15 1.83-.64 3.71-1.3 5.56-2.01 4.57-1.77 8.71-2.4 12.65-1.92.14.02.27.08.39.13.05.02.09.04.14.06l.12.05v.79l-.17.02c-.19.02-.39.05-.58.09-.43.07-.88.15-1.33.1-3.26-.33-6.29.67-9.64 1.91-1.27.47-2.25.8-3.18 1.07-1.8.52-3.64 1.02-5.41 1.5l-1.1.3c-.26.07-.53.12-.8.18-.12.02-.23.05-.35.07l-.19.04-.06-.26-.78.46c-2.39 1.41-4.94 2.23-7.42 3.03-.83.27-1.69.54-2.53.84l-1.64.57 1.46-.93c2.89-1.84 6.15-3.1 9.98-3.88l.91-.18-.06-.27Zm31.09-2.88-.04.4h-4.99c-1.54.01-3.13.03-4.7-.04-3-.13-6.17.51-9.68 1.92-1.95.79-4.02 1.2-5.97 1.55l-1.34.24v.07l-4.72 1.38-.12-.76 4.71-1.49.13.8 1.21-.61c8.06-4.07 16.64-5.23 25.5-3.47Zm-6.22-2.28.21-.03h2.44l.04.6-.21.03h-2.44l-.04-.6Zm12.52 2.56-.08.75-4.01-.44v-1.1l-4.55-.79.05-.84.17-.02c1.16-.14 2.27.06 3.45.26.79.13 1.6.27 2.43.31h.22l-.18 1.33 2.5.54Zm10.23-1.35.02.61h-10.9l.03-.61h10.85Zm-9.32-1.87h6.7v.78h-6.15c-.32 0-.43-.38-.48-.52l-.08-.26Zm12.76-27.29-.05.1c-.06.13-.12.27-.18.4-.27.62-.54 1.26-1.04 1.44a.93.93 0 0 1-.29.05c-.16 0-.33-.04-.51-.13-.77-.38-1.46-1.05-2.13-1.7l-.13-.12c-.14-.14-.1-.37.03-.94.03-.15.07-.31.1-.47l-1.07-.75 1.55-.65v-.05l-2.54-.41.3-.28c.64-.6 1.61-.87 2.82-.79 2.14.14 4.49 1.35 5.84 3l.06.08-.17.73-.22-.11-.63-.3c-.48-.23-.95-.45-1.43-.7l-.22-.11c-.54-.29-1.06-.56-1.6-.69l1.51 2.4Zm-12.66-3.01c-.64.25-1.27.61-1.88.96-.29.17-.58.33-.88.49l-.2.11-.36-.92.12-.09c.18-.14.36-.31.54-.48.41-.38.83-.77 1.31-.92.56-.17 1.12-.35 1.69-.53 2.51-.79 5.11-1.62 7.71-2.03 1.3-.2 2.66.11 3.96.42.55.13 1.12.26 1.67.35.2.03.4.1.59.17.25.08.48.16.7.16 2.78 0 3.66 2.62 4.5 5.15l.24.72-.36.6-.18-.15c-.06-.05-.13-.09-.2-.13-.18-.11-.39-.24-.47-.48-.53-1.45-1.49-2.04-2.51-2.66-.16-.1-.32-.19-.48-.29-5.63-3.59-11.26-2.12-15.53-.44Zm20.04 11.83.67.9-2 2.64-.54-.84 1.87-2.69Zm.64-13.25c-.45.15-.87-.09-1.29-.33-.17-.1-.35-.2-.52-.27-2.04-.83-4.18-1.44-6.25-2.03l-.38-.11c-1.23-.35-2.41-.57-3.52-.66-1.45-.12-2.6-.09-3.62.08-2.77.47-5.32 2.08-7.79 3.62-.6.38-1.21.76-1.81 1.12-.25.15-.49.29-.78.46l-.81.47.23-1.78-3.81.78.17-.36c.05-.12.1-.23.13-.32.08-.21.14-.37.27-.46l.53-.34c.85-.55 1.72-1.12 2.61-1.6 8.64-4.64 17.73-4.51 26.29-3.98.83.05 1.68.17 2.49.28.88.12 1.78.25 2.67.29 1.47.07 2.59.99 3.61 1.93.4.36.6.72.61 1.08.01.38-.17.77-.58 1.2l-.14.15c-.44.47-.9.95-1.24 1.53l-.05.08c-.7 1.15-1.01 1.68-1.5 1.76-.43.07-.86-.24-1.64-.89-.01.05-.03.1-.04.16-.1.36-.2.73-.41.95-.43.43-.98.7-1.44.7h-.02c-.42 0-.75-.96-.81-1.32-.11-.73-.16-1.49-.21-2.22l-.06-.83-.06-.06c-.26.5-.53.79-.85.9Zm6.83 13.96-4.56 4.59-.48-.79.05-.1c.27-.49.53-.99.79-1.49.68-1.29 1.38-2.62 2.14-3.85.25-.41.71-.54 1.14-.67.19-.06.36-.11.52-.18l.21-.1.26.89-1.13.76 1.06.95Zm-5.86 11.93c1.09-.85 2.19-1.74 3.25-2.6 1.36-1.1 2.78-2.25 4.19-3.32.54-.41 1.15-.63 1.74-.84.26-.1.53-.19.78-.3l.2-.09.29.85-2.59 2.29h-1.3l-.08.2.76.27-.22.22c-1.79 1.81-10.06 7.91-13.85 7.91-.26 0-.51-.03-.72-.09l-.49-.14.46-.23c.17-.08.34-.19.51-.29.39-.24.79-.48 1.22-.52 1.93-.2 3.56-1.5 5.14-2.75.24-.19.48-.38.73-.57Zm-.87 8.3-6.85 2.01-.16-.97 6.87-1.88.14.85Zm-3.82-2.99.15.95-3.66 1.09-.16-.98 3.66-1.06Zm-1.47 5.47c3.66-1.01 7.27-2.21 10.73-3.58.64-.25 1.32-.28 1.97-.31a13 13 0 0 0 .88-.06l.2-.02.08.8-.15.05c-.34.11-.69.21-1.03.31-.72.21-1.47.43-2.18.72-6.27 2.54-12.65 4.14-18.96 4.76-2 .2-4.04.07-6.01-.06-.74-.05-1.48-.09-2.22-.12-5.89-.24-12.17-.34-18.47 1.25-2.05.52-4.15.86-6.19 1.19-1.82.3-3.7.6-5.53 1.03-1.97.46-3.94 1.14-5.85 1.8-.98.34-2 .69-3 1-1.07.34-2.17.65-3.23.95-.48.14-.96.27-1.44.41l-.21.06-.15-.77.14-.07c.07-.04.14-.07.21-.11.15-.08.31-.17.48-.23.96-.36 1.91-.73 2.87-1.11 2.22-.87 4.52-1.78 6.82-2.45 1.58-.46 3.22-.77 4.8-1.07 1.57-.29 3.19-.6 4.75-1.06.94-.28 1.91-.48 2.85-.68 1.14-.24 2.31-.49 3.42-.86 2.4-.81 4.8-.74 7.12-.69.79.02 1.62.05 2.43.03 2.08-.03 4.21.07 6.26.16 1.9.09 3.87.2 5.8.17 3.84-.03 8.36-.23 12.84-1.47Zm-60.64 7.94.59-.59c1.68-1.67 10.61-4.58 12.94-4.45.31.01.51.08.62.21l.19.23-14.34 4.6Zm15.79-5.5.16-.06c.66-.26 1.32-.54 1.97-.82 1.43-.61 2.92-1.24 4.42-1.62 4.6-1.17 9.43-1.35 14.77-.56 1.28.19 2.6.21 3.87.22.58 0 1.15.01 1.73.04.26.01.52 0 .78 0h.61l-.11.55h-.16c-1.43 0-2.88-.04-4.28-.07-3.19-.08-6.5-.17-9.71.18-3.18.34-6.39 1.14-9.49 1.91-1.37.34-2.78.69-4.18 1l-.2.04-.17-.8Zm31.86-2.74h6.61l.02.62h-6.62v-.62Zm-42.46 3.43.26 1.09-13.5 5.42-.23-1.02.16-.06 13.31-5.43Zm-8.11 8.32-5.74 2.19.27-.48c.84-1.49 3.44-2.69 5.05-1.91l.42.2Zm-4.1-1.36.2.91-2.83.92-.17-.97 2.79-.86Zm89.72-27.89.28-.02-.07.27s-.01.05-.02.08c-.02.11-.04.23-.14.3l-2.15 1.59c-2.55 1.88-5.19 3.83-7.8 5.69-.74.53-1.58.79-2.39 1.05l-.77.25.27-.46c1.23-2.06 10.78-8.6 12.77-8.75Zm1.7-9.03c-.2.09-.41.22-.61.34-.48.29-.97.6-1.48.55-1.32-.06-2.33.75-3.39 1.61-1.59 1.3-3.23 2.53-4.83 3.72-.66.49-1.32.99-1.98 1.49l-.2.15-.41-.91.1-.1c.5-.47.99-.96 1.48-1.45 3.24-3.19 6.58-6.5 11.11-6.22h.14l.23.73-.16.07Zm-2.92-1.6c-1.56.35-3.36.92-4.86 2.55-.37.4-.77.6-1.18.6h-.03c-.51-.01-1.03-.33-1.54-.94l-.15-.18.2-.12c3.39-2 6.48-3.58 10.05-2.86l.92.19-3.39.76Zm4.55-.79-.03-.66h5.14l.02.66h-5.13Zm11.31.95-.08-.96 5.5-.53.06.87-5.48.62Zm10.17-.99c-.49.52-.98.7-1.45.7-.57 0-1.11-.25-1.63-.49-.12-.06-.24-.11-.37-.17l-.88-.38h4.65l-.32.34Zm.53-2.84h2.88l.03.76h-2.89l-.02-.76Zm.68 3.76-.07-.81 3.98-.57.05.93-3.96.45Zm23.02 2.92c-.48.22-1.39.32-2.51.32-3.32 0-8.47-.86-9.6-1.84l-.38-.34h.51c4.17-.14 7.94.65 11.94 1.48l.59.12-.54.25Zm22.43 2.07c-1.47-.1-2.97-.14-4.42-.17-4.21-.1-8.57-.21-12.97-1.85l-.69-.26.73-.13c4.8-.84 9.33.2 13.72 1.21 1.21.28 2.46.57 3.69.81l-.05.4Zm-16.63-6.7c2.03.18 4.13.37 6.18.32 4.15-.09 8.64.33 13.71 1.29 2.58.49 5.22.87 7.77 1.25 1.66.24 3.37.49 5.06.77.3.05.52.35.74.64.09.12.17.23.26.32l.11.12-.09.13c-.07.1-.13.21-.2.33-.16.29-.33.58-.58.71-.37.19-.91.41-1.46.41h-.19c-.78-.07-1.56-.13-2.34-.2-2.41-.19-4.9-.39-7.33-.86-2.47-.48-4.95-1.15-7.36-1.8-1.32-.36-2.69-.73-4.04-1.06-.49-.12-.99-.16-1.52-.19-.34-.02-.68-.05-1.03-.1a2.04 2.04 0 0 1-.54-.19c-.14-.06-.27-.12-.4-.15-.42-.09-.86-.15-1.28-.21-.11-.01-.21-.03-.32-.04l-.02.24 1.21.65h-.79c-1.24.01-2.5.12-3.71.23-3.11.26-6.33.54-9.49-.79-.67-.28-1.42-.24-2.22-.19-.35.02-.71.04-1.07.04l-2.81-.07c-2.1-.05-4.21-.1-6.31-.16-.21 0-.39-.15-.55-.27a.802.802 0 0 0-.19-.13l-.21-.13.16-.18c.06-.07.12-.15.18-.24.17-.24.34-.48.58-.48 1.9.01 3.83.06 5.7.11l2.29.06c.58.01 1.23.03 1.87-.02.64-.05 1.29-.12 1.92-.19 1.25-.14 2.54-.27 3.8-.24 1.5.05 3.02.18 4.49.31Zm-2.35-3.47c-.05 1.04-.27 1.69-.67 2.03-.28.24-.63.31-.97.31-.16 0-.31-.01-.46-.03-1.5-.16-3.03-.25-4.5-.34l-1.85-.12h-.18l-.02-.85 8.67-1.24v.24Zm-38.8-13.46c1.4.36 2.84.73 4.26 1.04 1.04.22 2.09.48 3.11.73l1.62.39c.1.02.22.03.33.04.24.02.52.04.74.22 1.12.87 2.33.96 3.6 1.05.59.04 1.2.09 1.8.22 1.7.37 3.41.85 5.07 1.31 1.02.28 2.06.58 3.1.84.78.2 1.58.31 2.36.42l.49.07c2.71.39 5.41.78 8.24 1.19l3.11.44-.1.24c-.96 2.24-2 3.2-3.59 3.31-.91.06-1.83.45-2.73.81l-.25.1c-3.36 1.38-6.77 1.55-9.67 1.52-.84 0-1.68-.01-2.52-.02-3.49-.03-7.11-.06-10.66.06-1.18.04-2.38.33-3.54.6-.54.13-1.1.26-1.65.37-.27.05-.55.12-.82.18-.61.14-1.24.28-1.88.33-3.74.29-7.72.59-11.72.78h-.24c-.66 0-1.31-.12-1.95-.25-.32-.06-.65-.12-.97-.17l-.2-.03.09-.71 8.77-1.3-.64-1.11 2.61-1.99v-.05l.06-.05c.11-.09.21-.21.32-.33.26-.28.52-.58.85-.63 2.15-.37 3.34-2.36 4.6-4.47l.1-.17c-.41-.21-.82-.42-1.22-.64-1.06-.56-2.07-1.09-3.12-1.5-1.35-.52-2.74-.8-4.16-1.06-2.7-.5-5.6-.98-9.11-1.52-.34-.05-.68-.04-1.05-.02-.48.02-.97.04-1.45-.1-1.15-.34-2.38-.62-3.61 0-.25.12-.53.1-.77.07-.11-.01-.22-.03-.32-.02-2.24.06-4.49.11-6.73.15-5.22.11-10.61.22-15.91.54-4.27.26-8.49 1.7-12.58 3.1-.73.25-1.45.5-2.18.74-2.95.98-5.76 1.58-8.37 1.78-2.03.16-4.1-.03-6.1-.22-.81-.07-1.65-.15-2.48-.2-1.06-.07-2.12-.15-3.18-.23-.63-.05-1.26-.1-1.89-.14-.33-.02-.71-.07-.95-.36-.2-.23-.27-.57-.24-1.04.03-.42.14-.68.33-.83.24-.18.54-.12.78-.08.08.01.15.03.23.04.87.08 1.76.18 2.62.28 1.83.21 3.71.45 5.57.4 6.09-.11 11.51-.94 16.57-2.55 5.4-1.72 10.93-2.74 16.43-3.03 10.43-.57 20.87-.69 31.02-.37 3.28.1 6.59.96 9.8 1.78Zm-80.6 2.25 1.75-1.87 1.54 1.33-.16.54h-3.13Zm72.29-6.31.07.78-.18.03c-.17.03-.35.07-.52.11-.38.08-.76.17-1.15.17h-.09c-.48-.02-.97-.08-1.44-.15-.41-.06-.84-.12-1.26-.14-1.26-.07-2.55-.11-3.78-.14-.53-.02-1.06-.03-1.58-.05h-.22l.03-.23c.19-1.26.91-1.95 2.01-1.96 1.61-.01 3.21-.01 4.87 0h2.38l-.31 1.31 1.17.3Zm-1.21-2.82h-6.42l-.03-.8h6.45v.8Zm-1.68-5.16v.77h-7.68v-.77h7.68Zm-15.03 6.6c1.58-.1 3.2.05 4.76.2.67.06 1.34.13 2.02.17.14 0 .23.11.33.23.04.05.09.11.16.18l.26.26-.36.08c-7.02 1.45-14.11 1.52-20.96 1.59-1.54.01-3.07.03-4.61.06h-.19l-.07-.75.18-.03.85-.18c.62-.14 1.26-.28 1.9-.34 1.12-.11 2.24-.23 3.36-.34 4.06-.42 8.25-.84 12.39-1.12Zm-32.71 2.21c10.7-2.52 21.5-3.22 30.65-3.58l.03.4-30.8 3.98-.05-.75.17-.04Zm1.04 1.84c3.12-.57 6.25-1.15 9.37-1.72.4-.07.8-.06 1.19-.04h.2c.17.01.32.06.47.1.06.02.12.04.19.05l.13.03.09.69-.13.06c-.21.1-.41.22-.62.33-.46.26-.94.52-1.44.63-1.24.27-2.49.51-3.71.75-1.52.29-3.09.59-4.63.96-.77.18-1.55.41-2.31.62-2.03.58-4.13 1.18-6.3 1.08-.69-.04-1.45.32-2.17.67-1.02.49-2.04.65-3.05.65s-1.95-.15-2.9-.3c-.86-.13-1.75-.27-2.62-.29-.3 0-.48-.39-.7-.83-.08-.16-.15-.32-.23-.44l-.07-.11.38-.58.15.05c.11.04.23.09.34.14.23.1.44.17.64.2.44 0 .88-.04 1.15-.29.47-.43 1-.81 1.56-.8.39.02.77.23 1.15.65.14.15.46.18.95.09 4.31-.78 8.61-1.58 12.92-2.37Zm-10.09-.94c.61 0 1.2.14 1.79.28.26.07.53.13.79.18l.17.03-.08 1.08-.17.02c-1.94.22-3.89.29-5.84.29-2.13 0-4.25-.09-6.34-.18-2.3-.1-4.67-.2-7.01-.18h-.19l-.06-.84.19-.02c.15-.02.3-.04.45-.07.33-.05.66-.1 1-.12l2.11-.08c4.32-.16 8.78-.32 13.18-.42Zm-16.82 2.83-.18.07-2.21.26-.04-1.23h2.4l.04.9Zm-10.83-6.53 19.07-.53v.76l-.15.04c-3.62.65-7.29.83-10.93.83-2.12 0-4.22-.06-6.3-.12l-1.86-.05-.02-.93h.2Zm8.18 6.48h-5.26l.26-.33c.54-.68 1.16-1.06 1.83-1.13.82-.09 1.71.27 2.73 1.1l.44.36Zm-6.22-1.54-.17.34c-.38.74-.69 1.07-1.08 1.15a.88.88 0 0 1-.17.02c-.44 0-.9-.32-1.46-.79l-.34-.29 3.22-.42Zm-10.54-7.57c1.55-1.53 3.16-1.27 4.73-1.03.36.06.71.11 1.07.15l.16.02.09.89-4.39.51.59 1.36-1.93 1.17.32-2.52-.85-.34.22-.21Zm1.61 4.1-.41.42c-.41.42-.84.86-1.34.86h-.12c-.38-.05-.73-.37-1.06-.98l-.16-.3h3.09Zm-7 7.37c4.64-1.03 9.4-1.09 14.16-.18l.03-.29-.36-.11c-.38-.11-.76-.23-1.14-.33l-.19-.05c-.53-.13-1.07-.27-1.63-.62l-.45-.28.53-.08c.06-.01.13-.03.19-.04.16-.04.34-.08.52-.05l1.49.22c3.44.51 6.99 1.04 10.48 1.63.52.09.93.75 1.25 1.39l.14.28h-.31c-1.69.07-3.3-.52-4.85-1.09-1.61-.6-3.15-1.16-4.76-1.06l-.04.2.09.09c.11.1.21.2.31.23 1.39.47 2.8.98 4.17 1.48 3.13 1.14 6.36 2.32 9.59 3 8.36 1.74 15.72 1.13 22.51-1.86 4.94-2.18 10.35-3.61 16.06-4.25 1.3-.14 2.63-.13 3.92-.12.5 0 1 .01 1.5 0 2.42-.02 4.84-.03 7.26-.04 2.96-.01 5.91-.03 8.87-.05h.07c2.86 0 5.42 1.22 7.33 2.29 1.15.64 2.38 1.11 3.56 1.56.61.23 1.24.47 1.86.74.78.33 1.79.8 2.78 1.54l.21.16-.2.16c-1.93 1.55-3.93 2.06-5.8 2.38l-.21.03c-.83.13-1.48.24-1.49 1.72 0 .37-.47.78-.74.9-.82.38-1.63.7-2.4.94-1.04.33-2.09.65-3.13.97-1.72.53-3.51 1.07-5.25 1.65-.28.09-.54.33-.82.59-.19.18-.39.36-.61.5l-.75.5.47-.77c1.36-2.21 3.08-3.76 4.9-5.41.92-.83 1.87-1.68 2.79-2.65l-.98-.7 1.16-1.33-.23-.12c-1.95-.98-3.8-1.9-5.8-2.26-4.26-.78-8.62-.74-12.84-.7-1.43.01-2.9.03-4.35.01-3.33-.05-6.87.05-10.27 1.64-2.74 1.29-5.61 2.28-8.38 3.24-.68.24-1.36.47-2.03.71-.5.17-1.02.13-1.56.09-.2-.02-.39-.03-.6-.04-.19.49-.47.79-.85.88-.57.15-1.32-.18-2.22-.98l-1.15 2.92-.8-1.19-.17.39h-.13c-.22 0-.42-.02-.61-.04-.36-.03-.66-.06-.91.05s-.5.23-.74.34c-1.09.52-2.22 1.05-3.51.8-.61-.11-.88.54-1.17 1.57l1.83.55-1.74 1.33 1.85 1.26-.49 2.15.06.02.92-3.79.24.49c.09.19.17.37.25.54.14.32.26.59.42.77.19.21.42.34.68.49.12.07.24.14.35.21l1.11.74-.28.16c-.09.05-.18.12-.26.19-.24.18-.49.35-.75.34-.14-.01-.28-.04-.42-.08-.26-.06-.48-.11-.65 0-.15.09-.27.32-.36.67l2.54 1.39-.08.72h-.18c-.32 0-.63-.01-.95-.02-.68-.02-1.39-.04-2.07.04-.28.04-.57.07-.86.1-1.27.15-2.59.3-3.79.81-1.3.55-2.6 1.25-3.85 1.93-1.39.75-2.83 1.53-4.29 2.11-4.69 1.89-8.45 3.93-11.83 6.45-.88.66-1.85 1.13-2.79 1.58-.6.29-1.22.6-1.81.94-1.43.84-2.85 1.78-4.23 2.68l-.74.48c-.93.61-1.86 1.23-2.78 1.86l-1.29.87-.18.12-.51-.95.36-.25c.15-.1.3-.2.44-.31.89-.68 1.78-1.4 2.64-2.11 1.96-1.6 4-3.26 6.14-4.44 2.39-1.31 4.73-2.84 7-4.33.74-.48 1.48-.97 2.22-1.45 1.02-.66 2.11-1.18 3.17-1.68.62-.3 1.27-.6 1.89-.94.59-.31 1.17-.69 1.74-1.05l.9-.57c.08-.05.16-.11.25-.17.25-.18.51-.39.8-.36.9.03 1.57-.46 2.25-1.64.28-.49.85-.89 1.32-.92.91-.07 1.62-.6 2.21-1.67.25-.44.48-.95.71-1.55.18-.47.34-.97.53-1.55.08-.24.16-.49.25-.77l-.6-.48c-.66-.53-1.38-1.11-2.09-1.7-.26-.21-.52-.42-.79-.62-.67-.52-1.37-1.06-1.97-1.74-1.22-1.36-2.47-2.12-3.82-2.33-1.92-.29-3.48-1.44-4.74-2.53-1.26-1.08-2.82-1.79-4.28-1.95-2.82-.3-5.7-.4-8.49-.5a395.3 395.3 0 0 1-3.44-.13c-.46-.02-.96-.06-1.45-.19l-.8-.21.81-.18Zm41.09 23.6-4.99 1.35-.31-1.71-.33.15c-.43.19-.84.37-1.23.61-.17.1-.34.27-.5.44-.25.25-.5.51-.81.59-1.58.45-3.18.87-4.73 1.29-2.36.63-4.8 1.28-7.18 2.01-.9.28-1.79.8-2.66 1.3-.49.29-1 .59-1.51.84-.99.49-2.01.97-2.99 1.43-.73.34-1.46.69-2.19 1.04-1.74.84-3.47 1.7-5.2 2.56l-.49.24c-.25.12-.49.26-.73.4l-.55.31-.26-.89.12-.08c.38-.25.76-.52 1.14-.78.83-.57 1.69-1.16 2.56-1.68 2.53-1.52 5.24-3.14 7.96-4.64.94-.52 1.93-.94 2.88-1.34.46-.2.92-.39 1.38-.6.57-.26 1.15-.52 1.72-.78.91-.41 1.82-.83 2.73-1.24.21-.1.43-.16.65-.22.12-.03.23-.07.35-.1.37-.12.74-.22 1.11-.32.83-.22 1.62-.42 2.31-.9 2.07-1.43 4.17-1.44 5.77-1.29.03 0 .12-.03.37-.32.75-.85 1.41-.3 1.89.1.18.15.35.29.51.36.17.08.39-.03.63-.14.29-.13.62-.28.94-.14.26.12.45.39.6.87.07.22.24.39.47.62.12.12.25.25.37.4l.2.24Zm-30.15.86c.63-.49 1.3-.89 1.95-1.28.53-.32 1.09-.65 1.6-1.02 1.13-.81 2.3-1.75 3.78-3.02.06-.05.11-.38.14-.63.03-.23.07-.5.13-.8l.03-.14 7.92-1.02.22 1.08-.13.07c-9.86 5.21-19.54 11.47-28.76 18.61l-.18.14-.41-.7.08-.11c.08-.1.15-.22.23-.33.17-.26.35-.52.57-.71l.69-.55c3.97-3.17 8.07-6.45 12.13-9.61Zm-10.98 6.45.12-.1 6.43-5.51.46.98-6.51 5.61-.49-.99Zm10.96-23.95c.03.1.09.2.15.3.06.1.11.19.16.3.18.43.35.87.5 1.27l.18.45c.23.4.48.82.72 1.24.67 1.16 1.31 2.25 1.91 3.41.22.42.15 1.12.11 1.64-.01.14-.15.26-.41.35-.09.03-.21.06-.33.06-.11 0-.21-.03-.29-.11-.94-.98-.87-1.35-.85-1.47.25-1.35-.34-1.76-1.03-2.23l-.16-.11c-.94-.66-1.66-1.29-1.58-2.98.03-.59-.43-1.33-.8-1.93l-.08-.13c-.17-.27-.42-.46-.7-.65-.13-.09-.26-.19-.38-.29l-.14-.12.49-.74.07-.02c1.7-.47 1.84-.23 2.45 1.75Zm-2.25-4.38.05-.78 3.44.51-.25.28c-.51.56-.97.75-1.39.75-.46 0-.87-.24-1.23-.45-.17-.1-.33-.19-.49-.26l-.13-.06Zm15.37 10c-.48-.7-.97-1.43-1.52-2.08-.26-.31-.53-.47-.74-.43-.28.04-.5.38-.63.66-.1.21-.3.31-.44.39-.04.02-.08.04-.11.06l-.22.16-.82-2.4c-.14.17-.28.35-.41.52-.43.56-.77 1-1.19 1-.53 0-1.03-.36-1.52-.71-.19-.14-.4-.29-.59-.4l-.14-.08.29-.9 1.73.88.12-.18c.16-.26.33-.52.52-.77.81-1.06 1.66-1.35 2.6-.88.25.13.52.21.8.3.27.08.55.17.82.3l.17.08c.41.19.88.41 1.09.85.62 1.31 1.17 2.65 1.71 3.95.19.46.38.92.56 1.36l.04.09-.05.09c-.75 1.22-1.56 1.82-2.48 1.82h-.06c-.83-.02-1.63-.51-2.4-.99l-.68-.42.44-.13c.43-.12.89-.08 1.33-.04.95.09 1.77.17 2.32-1.34-.17-.24-.34-.5-.52-.75Zm-8.19-5.95-.03.14-.14.02c-.13.02-.24.03-.34.03-.14 0-.25-.03-.35-.11-.21-.19-.21-.54-.19-1.56-.23-.16-.52-.2-.82-.24-.63-.08-1.41-.18-1.73-1.47l-.04-.17 1.85-.72.34.34c.92.88 1.86 1.8 1.45 3.74Zm-2.78 12.74c.18-.33.38-.63.68-.63.36 0 .66.41 1.15 1.26l.09.16-7 5.07-.39-.77.11-.1c.2-.18.39-.38.59-.57.44-.44.89-.89 1.39-1.21l.09-.06c1.26-.81 2.45-1.58 3.29-3.14ZM8.73 48.2v-.24c-.04-.68-.02-1.34.4-1.58.42-.24 1.09-.02 2.38.81l.4.25-3.18.76Zm1.23 9.52.15-.32c.29-.61.74-.71 1.14-.81.46-.11.83-.19 1.02-1.02l.03-.12.12-.03c1.35-.31 1.59-.13 2.16 1.62l.08.24-4.69.44Zm12.97 8.47c-.56-.22-1.11-.45-1.66-.69-2.27-.96-4.62-1.95-7.06-1.95a.52.52 0 0 1-.38-.17c-.04-.03-.07-.07-.12-.1l-.18-.14.16-.16s.07-.08.1-.12c.08-.11.17-.24.33-.21 3.95.28 7.49.98 10.82 2.14 2.01.7 2.78 1.8 3.17 4.53l.03.17-.17.05c-.3.08-.59.13-.85.13-.7 0-1.28-.35-1.83-1.41-.45-.87-1.37-1.68-2.35-2.07Zm-7.23 4.68c1.01.25 1.73.73 2.12 1.41.46.79.5 1.88.12 3.24-.74 2.63-2.01 5.07-3.88 7.47-.22.29-.51.47-.79.64-.12.08-.24.15-.35.24l-.17.13-.37-.56.03-.09c.02-.07.03-.14.05-.22.04-.23.08-.45.24-.54 1.14-.73 1.71-2.15 2.26-3.53.25-.62.5-1.25.8-1.82.35-.66.29-1.84.24-2.88l-.03-.61c-.02-.57-.16-1.15-.31-1.75-.07-.29-.14-.58-.2-.88l-.06-.31.31.08Zm-6.59 13.6-.24.15-.17.12-.46-.67.09-.12c.38-.51.75-1.02 1.12-1.54.88-1.23 1.79-2.49 2.78-3.61.74-.84.8-1.36.25-2.22-.66-1.04-1.32-2.09-2.03-3.21L9.27 71.5h.36c.14 0 .28-.02.43-.04.36-.05.72-.11 1 .13.99.83 1.92 1.81 2.83 2.75l.15.15c.2.21.29.7.24.99-.06.32-.1.66-.15 1-.12.94-.25 1.91-.66 2.58-.84 1.37-1.84 2.59-2.82 3.77-.33.4-.65.79-.97 1.19-.16.2-.37.33-.56.44Zm.23 2.69-2.89 2.36-.32-.76 2.85-2.4.36.81Zm-4.87-7.34c.5-1.12 1.2-1.58 2.35-1.48l.25.02-.07.24c-.8 2.72-3.22 6.35-4.9 6.71l-.39.08.16-.36c.09-.21.18-.39.25-.56.16-.35.29-.64.43-.92.22-.42.44-.84.67-1.26.43-.79.88-1.61 1.25-2.47Zm-.38-4.26.23-.78.17.02c.18.02.37.02.56.03.48.01.98.02 1.41.28.4.23.8 1.46.62 1.88-.2.47-.55.78-.92.83h-.11c-.23 0-.54-.1-.84-.48-.28-.36-.52-.77-.75-1.17-.1-.18-.21-.36-.31-.54l-.05-.08Zm1.46 8.13c.13-.23.24-.47.36-.72.26-.55.53-1.12.92-1.49 1.76-1.67 1.71-4.07 1.44-6.19-.04-.29-.35-.67-.6-.81-.49-.28-1-.48-1.58-.72-.24-.1-.49-.2-.76-.32l-.55-.24.58-.14c2.41-.58 3.76.35 5.79 3.99l.06.1-.06.1c-.4.68-.78 1.42-1.14 2.14-.99 1.95-2.01 3.97-3.71 5.12l-.15.1-.67-.8.07-.12ZM3.07 66.93l.15-.03c2.81-.62 5.81-.5 9.44.39l1.61.39H3.04l.03-.75ZM1.89 68.9c.27-.03.55-.06.82-.1.6-.08 1.21-.16 1.83-.14 2.7.08 5.57.21 8.78.4 1.71.1 1.89.55 2.17 3.02l.08.73-.44-.59c-1.85-2.47-3.98-2.43-6.24-2.37-.44 0-.88.02-1.33.01-1.31-.03-2.63-.02-3.92-.02H1.7v-.93l.17-.02Zm-.66 14.66-.5.85.84-6.59.29.31c1.46 1.55 1.29 2.13-.64 5.43Zm.29 8.39.45-.92c1.12-2.33 4.8-5.82 6.03-5.34l.31.11-6.79 6.15Zm2.24 3.14-.32.26-.45-.65.08-.11c.12-.17.24-.36.36-.54.26-.41.53-.83.86-1.14l.18-.17c2.84-2.6 5.77-5.29 8.71-7.82 2.8-2.41 4.59-6.07 6.05-9.31.69-1.53-.03-4.31-1.08-5.35-.28-.28-.55-.58-.81-.88-.11-.13-.23-.26-.34-.39l-.08-.09.34-.84.19.1c.17.09.34.16.52.23.41.17.84.33 1.17.7 2.46 2.71 2.94 5.1 1.7 8.53-.95 2.64-2.13 4.55-3.62 5.84-.5.44-1 .89-1.5 1.33-.56.5-1.12 1.01-1.69 1.5a2299.8 2299.8 0 0 1-7.48 6.43l-2.47 2.12c-.1.09-.21.17-.31.26Zm4.9 1.2C8.58 98 8.24 98.5 6.6 99.25l-.15.07-.42-.56 2.65-3.04-.03.57Zm-.99-1.26c-.2.08-.4.16-.6.25l-.21.1-.29-.9.04-.08c1.13-2.05 2.64-3.25 4.61-3.66v-.09l-.02-.34c0-.17.03-.21.1-.22.16-.18.3-.35.43-.51.32-.38.58-.7.85-.99.32-.34.66-.65.99-.94.69-.62 1.38-1.2 2.05-1.76 1.49-1.25 3.04-2.54 4.36-4.09 2.25-2.65 3.27-5.78 3.04-9.31-.03-.52.1-1.05.22-1.57.06-.23.11-.46.16-.69l.02-.11.64-.24.09.13c.09.14.2.28.31.42.25.33.52.66.62 1.08.29 1.24.49 2.55.6 3.88.24 2.91-.58 4.95-2.65 6.62-2.46 1.99-4.89 4.2-7.23 6.33-1.05.96-2.11 1.92-3.17 2.87l-.71.63c-.94.84-1.91 1.71-2.9 2.49-.42.33-.9.52-1.35.7Zm3.81.13c-.39.33-.82.58-1.23.83-.19.11-.38.22-.56.34l-.21.14-.32-.91.1-.09 9.9-8.61 5.3-4.61c2.12-1.84 3.16-4.31 3.18-7.53 0-1.88-.15-2.46-1.04-3.89l-.12-.19.21-.1c.7-.33 1.39-.34 1.99-.03.77.39 1.32 1.29 1.55 2.51.71 3.77.21 5.61-2.15 7.85-.68.64-1.38 1.25-2.07 1.84l-1.91 1.64c-4.13 3.55-8.39 7.22-12.6 10.81Zm2.74 2.1-.38-1.16 2.45-1.57.36.99-2.42 1.73Zm-5.21 8.1.27.7-.08.09c-1.36 1.6-2.96 2.67-4.51 3.7-.7.47-1.43.95-2.12 1.48l-.21.16-.42-1.03L9 105.37Zm.05 10.24c-2.09 2.22-4.55 3.04-6.94 3.82-.54.18-1.08.36-1.61.55l-.22.08L.07 119l9.64-4.09-.65.69Zm-.62-6.11c-.25.12-.51.25-.76.38l-.7.36.45-.65c1.54-2.27 14.52-10.94 16.27-10.37l.51.17-.5.2c-.07.03-.14.05-.21.08-.14.05-.27.09-.38.17l-3.96 2.7c-1.39.95-2.79 1.9-4.18 2.85l-.18.12c-1.52 1.03-3.1 2.1-4.67 3.1-.55.35-1.12.63-1.68.9Zm4.39-1.42c.1-.08.21-.16.31-.24.22-.17.45-.35.69-.5l3.44-2.11c5.56-3.41 11.3-6.93 16.97-10.36.99-.6 2.05-1.02 3.08-1.43l.36-.14c1.08-.43 2.17-.85 3.26-1.26.93-.35 1.86-.71 2.79-1.07.15-.06.29-.18.44-.31.13-.11.27-.23.42-.31.27-.15.53-.32.8-.5.66-.43 1.35-.88 2.08-1l.24-.04c3.68-.63 7.49-1.29 11.29-.34.65.16 1.34.13 2.03.05-.62-.12-1.23-.26-1.83-.4-2.95-.67-6.01-1.35-9.05-.37a620.3 620.3 0 0 0-12.67 4.25c-.66.23-1.35.43-2 .62-1.88.54-3.83 1.1-5.52 2.56-.18.16-.39.28-.58.4-.25.16-.49.3-.68.52-1.19 1.39-2.58 1.63-4.48.79l-.31-.14.27-.2c.11-.08.21-.16.3-.24.19-.15.35-.28.52-.38.41-.25.81-.5 1.22-.75 2.49-1.53 5.06-3.11 7.83-3.85.74-.2 1.45-.53 2.07-.95 3.6-2.47 7.77-4.07 13.13-5.03 2-.36 4.03-.42 5.75-.43 1.6 0 3.31.04 4.99.44 1.44.34 2.87.88 4.25 1.4.54.2 1.09.41 1.63.6.6.21 1.19.44 1.78.67l.6.23.05-.16-1.2-.76c-1.2-.76-2.44-1.54-3.65-2.34-.28-.19-.52-.48-.75-.76l-.3-.36-.19-.2.25-.11c.13-.06.28-.15.42-.24.37-.23.75-.48 1.1-.33.86.37 1.67.99 2.45 1.6l.11.08c1.69 1.3 3.18 2.07 4.65 2.38-.48-.45-1-.83-1.54-1.24-1.16-.87-2.36-1.77-3.23-3.37l-.09-.17.17-.1c1.21-.69 2.08.07 2.86.73.44.38.87.75 1.34.88l-.3-1.61.27.03c1.11.11 1.63 1.03 2.14 1.92l.08.15c.3.52.68.92.89.92.04-.02.08 0 .12 0 .44 0 .95.07 1.29.44.3.33.42.83.38 1.57.47-.32.84-.42 1.19-.33.4.11.71.48.95 1.14.02.05.15.15.45.2 1.34.23 2.57.42 3.75.58l.15.02c.21.03.56.09.64-.02 1-1.31 2.22-1.35 3.4-1.38.21 0 .41-.01.62-.03l-.11-.31.1-.09c.13-.12.27-.26.4-.39.3-.31.61-.64.98-.81.83-.39 1.67-.7 2.56-1.03.37-.13.74-.27 1.12-.42l.24-.09.13 1.13 1.97-.44.25.57-.93 1.21c.41.88.71 1.29 1.01 1.35.28.06.66-.17 1.28-.74.94-.88 1.91-1.53 2.89-1.94l.75-.32-.52.63c-2.43 2.94-5.48 4.31-8.43 5.64l-.35.16c-3.38 1.52-6.23 2.09-9.07 1.81 1.33.56 3.62.52 5.91-.17 1.51-.45 2.98-.98 4.53-1.54.68-.25 1.37-.49 2.07-.73l.56-.2-.33.5c-.95 1.42-4.09 2.64-8.4 3.27-4.37.64-9.99.58-12-1.07l-.43-.35h3.9l-9.56-2.87 2.39 1.21-.08.73-.2-.02-.41-.03c-.31-.02-.63-.03-.94-.1-.94-.21-1.89-.44-2.83-.66-1.58-.38-3.21-.77-4.82-1.08-5.3-1.05-10.68-.29-16.43 2.29-1.29.58-2.57 1.09-3.8 1.5-3.62 1.23-7.08 3.29-10.42 5.29-1.03.62-2.1 1.26-3.16 1.86a671.3 671.3 0 0 0-7.13 4.15c-1.52.89-3.03 1.78-4.55 2.67-.38.22-.77.4-1.15.57l-.51.24-.2.1-.24-.72.12-.09ZM35 100.84l-2.92 1.21-.21-.91 2.92-1.23.21.92Zm-21.82 17-.28-1.1 2.94-1.39.25.89-2.92 1.61Zm2.67-5.31c-.25.08-.49.15-.74.24l-.21.07-.18-.76 1.25-.66c.8-.42 1.6-.84 2.4-1.28l2.28-1.26c1.09-.61 2.23-1.24 3.35-1.84.75-.4 1.52-.74 2.27-1.06l.41-.18c2.71-1.19 5.42-2.37 8.13-3.54 2.13-.92 4.34-1.88 6.54-2.8.8-.33 1.59-.68 2.39-1.03 2-.87 4.06-1.77 6.14-2.45 4.98-1.64 9.54-1.98 13.95-1.03 2.35.5 4.75.95 7.07 1.38 1.29.24 2.57.48 3.86.73.31.06.61.17.9.27.13.05.26.09.39.13l.14.04v.82l-.17.03c-.16.02-.31.06-.47.1-.36.09-.74.18-1.12.09-5.86-1.28-12.13-1.76-19.73-1.52-1.85.06-3.66.58-5.7 1.65-1.24.65-2.56 1.11-3.83 1.56-.84.3-1.71.6-2.55.96-4.96 2.11-9.92 4.25-14.87 6.38l-10.26 4.41c-.53.23-1.08.4-1.62.57Zm12.62 22.22c-1.83.61-3.72 1.23-5.59 1.82-.14.04-.28.11-.43.17-.28.12-.61.27-.94.27-.4 0-.81-.21-1.15-.95-.03-.03-.24-.05-.36-.06-.14-.01-.28-.02-.43-.05l-.27-.06.13-.24c.59-1.05 1.42-1.34 2.45-.85 1.86.88 3.51.14 5.56-.83l-2.73-1.25.27-.2c1.3-.97 2.39-.24 3.35.4.72.47 1.39.92 2.13.75l.11.38c-.71.23-1.42.47-2.13.7Zm-.39-2.98-.15-1.01 2.84-.79.17 1.12-2.86.68Zm3.86 1.22 6.21-2.05-.12.37c-.36 1.15-2.19 1.97-4.08 1.97-.43 0-.87-.04-1.29-.13l-.72-.15Zm.9 15.06c.18-.44.42-.9.84-1.02.47-.13 1.03.2 1.74.73l.41.31-3.11.28.12-.3Zm2.05 2 .24-.37c.56-.85 1.23-1.34 1.94-1.4.66-.06 1.33.25 1.94.89l.27.28-4.38.59Zm4.52 1.28.12-.3c.25-.63.54-.96.9-1.02.49-.08.93.37 1.3.8l.26.3-2.57.22Zm7.84-15.21.04-.72.09-.05c1.55-.96 4.45-.74 5.51.86l.22.34-5.86-.43Zm6.09 6.7.36-.24c.63-.42 1.58-.51 2.53-.26 1.03.27 1.86.87 2.22 1.61l.2.41-5.32-1.51Zm6.46-13.88c-.81-.02-1.6-.6-2.35-1.15-.33-.24-.67-.49-1-.68l-.1-.06.03-.81h.19c.13 0 .26-.02.39-.04.33-.05.71-.1 1 .12 1.64 1.25 3.35 1.14 5.16 1.03.62-.04 1.26-.08 1.9-.06.39.01.78 0 1.18 0h.74l.03.91-.18.02c-.67.08-1.34.18-2.01.28-1.49.22-3.02.45-4.54.45h-.41Zm6.6 21.68h-5.76v-.68h5.76v.68Zm.66-2.7c-1.17 1.07-2.39.94-3.58.81-.85-.09-1.64-.18-2.42.16l-.26.11-.05-.95 6.73-.53-.43.39Zm23.26 1.51-.17.02c-5.96.52-12.02.54-17.89.56h-1.99l-.05-1.04.19-.02c.13-.01.26-.03.4-.04.28-.03.57-.07.86-.08l.7-.03c4.42-.16 8.84-.33 13.27-.48a84.1 84.1 0 0 1 3.93-.02c.19 0 .35.1.5.18.06.03.11.07.17.09l.12.06-.03.8Zm-7.93-4.13v-.76h2.58v.76h-2.58Zm4.25 1.16-.06 1.15-3.44-.44.02-1.04 3.48.33Zm8.34 1.73c-.56.77-1.08 1.14-1.59 1.14h-.08c-.49-.04-.93-.43-1.3-1.16l-.15-.29h3.35l-.23.32Zm.34-6.02c-.28.06-.56.12-.85.14-5.15.34-9.82.64-14.29.91-1.59.1-3.2.16-4.76.22l-.69.03h-.04c-.15 0-.29-.03-.48-.08-.11-.03-.23-.05-.38-.08l-.49-.1.42-.27c.11-.07.2-.14.27-.19.14-.1.24-.18.38-.19 1.14-.08 2.29-.22 3.41-.36 2.72-.34 5.53-.69 8.34-.09.42.09.87-.05 1.35-.19.3-.09.6-.18.91-.22l.99-.12c3.43-.42 6.97-.87 10.46-1.23h.11c.97-.11 2.17-.24 2.85 1.4l.12.28h-2.12c-1.58 0-3.07-.01-4.57.01-.3 0-.6.07-.92.13Zm13.22 5.69c-.25.04-.49.09-.74.14-.55.11-1.11.23-1.68.25-1.62.08-3.21.08-4.97.07h-.09c-.88 0-1.59 0-1.87 1.23l-.08.37-2.37-2.55 11.89-.53.08.99-.18.03Zm3.68-4.58-2.41-.19.04-1.12 2.42.35-.05.96Zm3.13-1.93-.15.02-.38.06c-.27.05-.56.1-.85.11-.64.04-1.27.08-1.91.11-1.92.12-3.91.24-5.86.26h-.04c-.68 0-1.35-.2-2-.39-.3-.09-.6-.17-.89-.24l-.16-.04.06-1.11h.18c.58-.03 1.15-.06 1.73-.08 1.32-.06 2.69-.13 4.03-.14.51 0 .98.08 1.46.17.94.17 1.83.33 2.76-.19.41-.23.91.05 1.4.33.19.11.4.22.57.29l.15.06-.11.77Zm1.38 1.45-.26-.14.23-.19c1.37-1.15 2.57-.91 4.13-.43l.44.13-.4.23c-.88.51-1.67.84-2.49.84-.52 0-1.06-.13-1.64-.44Zm5.61 7.89-3.26-.3.05-.7h3.25l-.04 1Zm7.56-7.81c-.49.27-1.06.4-1.65.4-1.1 0-2.28-.45-3.23-1.29l-.52-.46.68.11c.46.07.93 0 1.44-.08 1.06-.16 2.27-.35 3.34 1.01l.14.19-.21.11Zm9 1.51h-5.17l.03-1.03 5.17.31-.03.73Zm-3.54-2.35c-.15.56-.38.91-.69 1.07a.86.86 0 0 1-.42.09c-.39 0-.8-.2-1.2-.4-.47-.23-.96-.42-1.44-.61l-.66-.27-.13-.06.06-.83H131.7c.45 0 .93.01 1.38-.01.29-.01.59-.02.89-.04.91-.03 1.85-.06 2.75-.23 1.37-.25 2.52 0 3.62.81l.17.12-.13.16c-1.23 1.58-2.2 1.48-5.01.17Zm5.42.16c.72-.7 1.37-1 1.96-.93.63.08 1.2.56 1.79 1.51l.23.37-4.27-.67.29-.28Zm4.7 8.58-4.21-.39.05-1.02 4.23.29-.06 1.12Zm-3.83-11.24-.34-.34h10.33l.02.75-.08.09c-.71.58-2.35.85-4.12.85-2.37 0-4.96-.48-5.81-1.35Zm14.92 4.44a6 6 0 0 1-.95.1c-.09 0-.18 0-.26-.01-2.3-.23-4.62-.52-7-.82-.19-.02-.34-.15-.48-.27-.05-.04-.1-.09-.16-.12l-.08-.06-.04-.72.16-.04c.16-.04.32-.1.49-.16.38-.13.76-.28 1.16-.25 1.81.1 3.65.28 5.47.51.55.07 1.09.25 1.61.43.23.08.47.16.7.23l.15.04-.07 1.05-.17.02c-.18.02-.35.05-.53.08Zm7.67 3.77c-.12.34-.32.82-.73 1.02-.12.06-.25.09-.4.09s-.3-.03-.47-.09c-.7-.27-1.45-.4-2.17-.53-.44-.08-.89-.16-1.34-.27-.85-.21-1.77-.58-1.92-2.16l-.03-.32.3.12c.46.18.91.43 1.35.67 1.62.9 3.01 1.67 4.71-.54l.26-.35.09.43c.06.27.13.52.19.75.14.5.26.89.15 1.21Zm10.34.22c-.5.62-.98.82-1.43.82-.41 0-.79-.16-1.13-.31-.46-.2-.87-.37-1.25-.16l-.32.17.1-1.26 4.27.45-.23.29Zm-2.74-.9-.19-.94.04-.07c.67-1.13 1.53-.65 2.23-.26.23.13.45.25.66.32l.69.24-3.43.71Zm.22-3.1.03-.06c.49-.94 1.16-.7 1.65-.52.25.09.48.17.68.14l.21-.04.09.92-2.54.47-.12-.91Zm10.82 5.46-.65-.25-1.02-.39c-.11-.04-.22-.09-.33-.15-.58-.27-.97-.45-1.52.34-.32.46-.95.55-1.55.55-.23 0-.45-.01-.65-.03h-.1c-.3-.02-.51-.39-.73-.79-.08-.14-.16-.29-.24-.41l-.06-.08.2-.6h1.54c1.23-.01 2.51-.03 3.77.05.39.02.73.32 1.05.61.14.12.27.24.41.33l.12.09-.26.72Zm1.15-6.78c-.87.8-1.76.69-2.62.59-.16-.02-.31-.04-.47-.05-1.58-.13-3.17-.25-4.75-.38-.88-.07-1.75-.13-2.63-.2-.18-.01-.36-.03-.53-.13-.91-.55-1.66-.48-2.42.21-.26.23-.59.3-.9.36-.09.02-.19.04-.29.06v1.61l-2-.19v-.19c.07-1.02-.08-1.71-.45-2.05-.26-.24-.63-.32-1.14-.24-1.01.15-2.12.15-3.3 0-2.4-.31-4.84-.68-7.2-1.03l-2-.3c-.25-.04-.49-.11-.72-.17l-.31-.09-.16-.04.05-.82h.19c.28 0 .56-.02.85-.03.63-.03 1.27-.07 1.9.06 3.69.78 7.7 1.03 12.63.78 2.04-.09 4.11.25 6.12.59.87.15 1.77.3 2.65.41.13.02.25.06.36.1.13.05.26.09.36.08l.24-.03c.39-.05.79-.1 1-.35.06-.1-.02-.59-.08-.94-.04-.26-.09-.55-.12-.83l-.03-.31.3.11c2.92 1.04 5.98.94 8.94.83 2.21-.08 4.49-.16 6.74.22l1.1.19-1.1.21c-4.67.88-9.48.9-14.71.07l-.02.12c.09.03.17.06.26.09.29.11.57.21.85.24 1.69.17 3.35.31 4.94.4 1.05.06 1.76.7 2.45 2.21l.22.47-.48-.21c-.34-.15-.64-.28-.93-.41-.63-.28-1.18-.52-1.73-.73a3.11 3.11 0 0 0-.24-.09c-.26-.11-.7-.29-.82-.18Zm29.21 6.31c-.06.03-.11.06-.17.09-.14.08-.28.16-.43.21-.31.09-.62.19-.92.29-.94.3-1.91.61-2.88.82-.1.02-.19.04-.29.04l2.43.22-.25.29c-.55.65-1.18 1-1.81 1h-.15c-.68-.06-1.28-.52-1.75-1.33l-.19-.33.99.09c-.31-.07-.64-.21-.99-.4l-.34-.19.99-.48s-.04-.09-.05-.1c-.4-.08-6.21.53-6.64.73-.03.02-.06.05-.1.08-.12.1-.26.23-.44.19-1.59-.31-3.28-.67-4.98-1.27l-.9-.32 6.04-.42v-.04l-1.48-.12c-1.42-.11-2.9-.22-4.34-.37-.45-.04-.89-.18-1.31-.31l-.2-.06.63 1.64-.13.09c-.18.12-.35.25-.53.37-.41.3-.83.6-1.27.8-.39.18-.84.1-1.24.03h-.08c-1.17-.22-2.39-.46-3.64-.73-.18-.04-.33-.16-.53-.32-.11-.08-.23-.18-.39-.3l-.34-.24 1.51-.43-2.52-.51.14-.24c.06-.1.1-.18.14-.26.08-.16.14-.28.25-.36.45-.35.91-.21 1.31-.1.43.12.81.23 1.23-.13.2-.17.5-.22.84-.16.69.14 1.39.72 1.79 1.49.13.24.33.54.61.58.27.03.53-.2.71-.4l.98-1.12-.11-.29.37.1c.15-.05.29-.1.44-.16.46-.17.95-.37 1.44-.35 1.84.03 3.7.13 5.5.24l1.02.06c.29.02.69.07.87.37.67 1.13 1.54 1.12 2.55 1.12h.23c2.19-.02 4.46-.03 6.7-.01.62 0 1.19.19 1.73.57l.27.19-.29.15Zm-20.44-4.99.97.06c.18.01.36.03.54.04.38.03.77.07 1.15.06.57 0 1.13-.03 1.7-.06a59 59 0 0 1 1.88-.06c.36 0 .74.05 1.1.1l.47.06.19.02-.06.88-.17.02c-.9.1-1.85.21-2.83.21-1.33 0-2.71-.2-4.08-.91l-.86-.44Zm17.56.57.23.12-.18.19c-.53.59-1.54.89-2.81.89-.71 0-1.5-.09-2.34-.29l-.23-.05.09-.22c.24-.56.69-.97 1.3-1.19.32-.12.67-.18 1.05-.19-.54 0-1.07 0-1.61-.01-.66-.01-1.33-.02-1.95-.27-.38-.15-.7-.46-1.02-.77-.13-.13-.27-.25-.4-.37l-.32-.27.41-.08c3.95-.75 8.16-.06 9.01 1.47l.17.3h-4c.81.03 1.7.28 2.6.73Zm12.81 3.65h-4.52v.06l2.45 1.4h-.76c-.37 0-.72.02-1.06.04-.3.02-.6.04-.88.04-.39 0-.77-.04-1.13-.15-.24-.08-.48-.11-.74-.14-.71-.1-1.5-.21-2.22-1.29-.38-.58-1.34-.58-2.26-.59-.39 0-.79 0-1.15-.05l-.37-.03c-.65-.03-1.4-.07-1.97-1.31l-.12-.27.45-.02c2.11-.11 4.1-.22 6.03.77.37.19.83.4 1.28.38.87-.03 1.76-.09 2.62-.16.91-.06 1.85-.13 2.78-.16.36 0 .75.13 1.1.27.15.06.3.12.45.17l.17.05-.17 1Zm9.45-4.48c-.24.13-.54.09-.87-.11-1.64-1.01-3.22-.62-4.9-.21-.3.08-.61.15-.91.22-.57.12-1.15.14-1.71.16-.46.01-.93.03-1.39.1-.62.1-1.24.28-1.85.46-.35.1-.7.2-1.05.29-.21.05-.43.07-.7.1-.15.01-.31.03-.51.05l-.41.05.74-1.19-6.73-.67-.03-.72.05-.06c.55-.63 1.18-.64 1.8-.65.34 0 .67 0 .98-.11-.05-.02-.1-.03-.15-.05-.46-.14-.89-.28-1.32-.3-.69-.03-1.4 0-2.08.04-.56.03-1.14.05-1.71.05-1.21 0-2.41-.01-3.62-.03-.86 0-1.72-.02-2.57-.03h-4.76l.53 1.89-.28-.02c-1.24-.07-2.48.06-3.68.19-2.02.21-4.12.44-6.19-.32l-.37-.14.33-.22c1.8-1.18 3.7-.98 5.16-.68.77.16 1.19.25 1.47-.8.11-.41.56-.77.91-.87 2.02-.6 4.02-.75 6.11-.47 2.13.29 4.34.26 6.47.24.61 0 1.24-.03 1.83-.01h.06c1.95 0 3.91-.02 5.86-.04 2.16-.02 4.39-.04 6.58-.04.42 0 .83.18 1.23.35.17.08.35.15.52.21l.15.05-.09.96h-3.25l-.03.25c.12.04.23.09.35.14.33.14.65.26.95.26h.03c2.13-.06 4.3-.15 6.4-.25.79-.04 1.58-.07 2.37-.11h.92v.21c-.03 1.03-.23 1.64-.62 1.84ZM259.46 43.43c-.09 0-.18.02-.26.02h-1.99l.58.07c.33.04.65.08.98.13.32.06.65.14.97.21l.19.05c.03-.31-.03-.42-.06-.45-.07-.07-.24-.05-.41-.03Z"/><path class="cls-1" d="M246.43 152.5c-.44-.09-.87-.2-1.31-.3-1.13-.27-2.31-.55-3.46-.65-1.16-.09-2.35 0-3.5.07-.45.03-.91.07-1.36.09l.03.79h9.6ZM259.9 48.43s-.06.04-.1.05c-.29.16-.6.32-.92.39-1.27.26-2.54.47-3.78.65.27 0 .54-.01.81-.02l3.73-.1c.08 0 .17 0 .25.01v-.97Z"/><rect class="cls-1" x="239.51" y=".72" width="10.93" height="31.14" rx="2.98" ry="2.98"/><path class="cls-1" d="m216.67 29.19.33 1.17c.25.89 1.06 1.5 1.98 1.5h6.14c1.83 0 3.11-1.81 2.49-3.54l-8.86-24.65a4.48 4.48 0 0 0-4.21-2.96h-6.12c-1.91 0-3.61 1.22-4.23 3.03l-8.4 24.62c-.58 1.71.69 3.5 2.5 3.5h6.22c.93 0 1.74-.62 1.99-1.51l.32-1.16c.13-.47.56-.79 1.04-.79h7.75c.49 0 .91.32 1.04.79Zm-3.53-9.96h-2.76c-.36 0-.61-.34-.52-.68l1.46-4.58c.13-.41.71-.41.85 0l1.49 4.58c.1.34-.16.69-.52.69Z"/><rect class="cls-1" x="151.69" y=".72" width="10.49" height="31.14" rx="2.95" ry="2.95"/><path class="cls-1" d="M175.16 31.86h7.04c1.55 0 2.46-1.74 1.59-3.02l-8.12-11.8c-.44-.64-.45-1.48-.03-2.14l7.26-11.21c.83-1.28-.09-2.97-1.62-2.97h-7.15c-.65 0-1.26.33-1.62.88l-8.9 13.74c-.25.38-.24.87.02 1.25l9.94 14.44c.36.52.95.83 1.59.83Z"/><rect class="cls-1" x="107.44" y=".72" width="10.49" height="31.14" rx="2.89" ry="2.89"/><path class="cls-1" d="M130.9 31.86h7.1c1.53 0 2.44-1.72 1.57-2.98l-8.15-11.84c-.44-.63-.45-1.47-.03-2.11l7.29-11.26c.82-1.27-.09-2.94-1.6-2.94h-7.2c-.65 0-1.25.33-1.6.87l-8.91 13.76c-.24.37-.23.86.02 1.22l9.96 14.46c.36.52.94.82 1.57.82ZM79.21 0h-2.03c-9.17 0-16.62 7.32-16.62 16.32s7.46 16.32 16.62 16.32h2.03c9.17 0 16.62-7.32 16.62-16.32S88.38 0 79.21 0Zm5.54 16.76c0 3.56-2.94 6.45-6.56 6.45s-6.56-2.89-6.56-6.45v-.88c0-3.56 2.94-6.45 6.56-6.45s6.56 2.89 6.56 6.45v.88ZM29.37 31.96c1.9 0 3.6-1.22 4.2-3.02l3.86-10.84c.2-.55 1.02-.41 1.02.18v10.77c0 1.55 1.26 2.81 2.81 2.81h4.88c1.55 0 2.81-1.26 2.81-2.81V3.69A2.97 2.97 0 0 0 45.98.72h-8.37c-1.31 0-2.46.86-2.84 2.11l-5.05 16.56c-.15.48-.83.48-.98 0L23.68 2.83A2.98 2.98 0 0 0 20.84.72h-8.37A2.97 2.97 0 0 0 9.5 3.69v25.38a2.78 2.78 0 0 0 2.78 2.78h4.93a2.78 2.78 0 0 0 2.78-2.78V18.28c0-.59.82-.73 1.02-.17l3.83 10.81a4.43 4.43 0 0 0 4.2 3.03h.33Z"/></g></svg>