<svg id="_レイヤー_2" data-name="レイヤー 2" xmlns="http://www.w3.org/2000/svg" viewBox="0 0 226.77 128.9"><defs><style>.cls-1{fill:#231815}</style></defs><g id="_レイヤー_1-2" data-name="レイヤー 1"><path class="cls-1" d="M112.53 128.9H69.28V65.75h21.37v-1.71H67.42v64.86H46.13V64.04H22.9v1.71h21.37v63.15H0V87.86h21.14v20.19h1.85V86H0V43.63h44.37v-1.71H0V0h44.28v17.08H22.91v1.71h23.23V0h21.29v18.79h23.23v-1.71H69.29V0h43.25v41.92H69.2v1.71h43.34V86H90.58v22.05h1.85V87.86h20.11v41.04Zm-40.73-2.53H110V90.38H94.94v20.19h-6.9v-27.1H110V46.15H66.66v-6.76H110V2.53H71.8v12.03h21.37v6.76H64.89V2.53H48.65v18.79H20.38v-6.76h21.37V2.53H2.52V39.4h44.37v6.76H2.52v37.32h23v27.1h-6.9V90.39H2.52v35.99h39.23v-58.1H20.38v-6.75h28.27v64.86h16.24V61.52h28.28v6.75H71.8v58.1ZM161.47 128.9h-47.08v-19.08h13.86v-1.71h-13.86V0h14.65v86.08h1.58V0h14.65v86.08h1.56V0h14.65v108.11h-14.89v1.71h14.89v19.08Zm-44.56-2.53h42.03v-14.03h-14.89v-6.76h14.89V2.53h-9.6v86.08h-6.61V2.53h-9.6v86.08h-6.62V2.53h-9.6v103.06h13.86v6.76h-13.86v14.03ZM226.77 128.9h-31.09V72.93h-1.56v55.97h-31.09V74.64h14.65v35.18h1.56V72.94h-16.21V0h63.75v17.09h-49.1v1.71h49.1v54.14h-16.21v1.71h16.21v33.47h-16.21v1.71h16.21v19.08Zm-28.57-2.52h26.05v-14.03h-16.21v-6.76h16.21V77.17h-16.17l-.03-1.66v-5.1h16.21V21.32h-49.1v-6.76h49.1V2.52h-58.7v67.89h16.21v41.93h-6.61V77.16h-9.6v49.21h26.05V70.4h6.61v55.97Zm16.26-31.8h-6.41v-6.41h6.41v6.41Zm-3.88-2.52h1.36V90.7h-1.36v1.36Zm3.4-33.51h-13.95v-6.76h13.95v6.76Zm-11.43-2.52h8.91v-1.71h-8.91v1.71Zm-12.78 2.52h-13.95v-6.76h13.95v6.76Zm-11.43-2.52h8.91v-1.71h-8.91v1.71Zm35.64-16.09h-13.95v-6.76h13.95v6.76Zm-11.43-2.53h8.91V35.7h-8.91v1.71Zm-12.78 2.53h-13.95v-6.76h13.95v6.76Zm-11.43-2.53h8.91V35.7h-8.91v1.71Z"/></g></svg>