<svg data-name="レイヤー 2" xmlns="http://www.w3.org/2000/svg" viewBox="0 0 291.25 43.75"><g data-name="レイヤー 1"><path d="M43.67 21.33c-.06-.16-.12-.3-.18-.41-.11-.22-.22-.45-.2-.75.02-.43.13-.66.2-.84.06-.14.07-.17.05-.25-.03-.15-.07-.19-.13-.25-.15-.16-.27-.33-.29-.83-.03-.67-.1-.75-.42-1.03-.35-.31-.29-.73-.26-1.01.01-.09.03-.24.01-.28-.06-.06-.13-.12-.2-.18-.27-.23-.61-.52-.56-.97.04-.29-.08-.67-.27-.89-.06-.07-.13-.13-.21-.19-.2-.16-.44-.36-.49-.84-.02-.22 0-.39.02-.53.03-.2.03-.22-.05-.3-.08-.08-.15-.13-.23-.19-.23-.17-.49-.38-.64-.85-.04-.11-.18-.16-.73 0-.16.05-.24.07-.32.07-.3 0-.46-.18-.57-.29-.11-.11-.19-.2-.44-.21-.27-.02-.31.02-.33.04-.11.09-.23.16-.47.11-.11-.02-.21-.05-.29-.08-.24-.08-.43-.15-1.03-.02-.58.12-.78.04-1-.09-.1-.06-.18-.11-.43-.12-.18-.02-.61.11-.79.17l-.11.03c-.38.11-.81-.05-1.16-.17-.1-.04-.25-.09-.3-.1-.26-.02-.44.02-.61.05-.27.05-.54.1-.88-.12-.25-.16-.3-.14-.67.01l-.05.02c-.47.19-1.02.35-2.06.02-.47-.15-.61-.54-.58-.84.03-.33.27-.6.57-.63.32-.04.58.1.77.2l.09.04c.19.1.44.13.5.07.3-.27.98-.54 1.49-.35.16.07.3.16.41.25.21.15.25.17.3.15.62-.3 1.12-.32 1.45-.07.2.15.49.26.73.17.4-.17.88-.32 1.44.01.21.12.26.15.9-.04.37-.11.72-.06 1.09 0 .37.06.75.12 1.13-.01.38-.13.67.07.86.21.22.15.22.15.33.05.15-.13.22-.26.23-.36 0-.12-.09-.24-.18-.33-.18-.19-.46-.34-.85-.42-.46-.1-.59-.29-.74-.5-.04-.05-.07-.1-.12-.16-.2-.26-.51-.46-.76-.49-.58-.07-.7-.68-.78-1.08-.05-.25-.12-.33-.5-.43-.62-.15-1.01-.63-1.08-1.02-.02-.1-.05-.28-.46-.28-.68 0-.95-.61-1.08-.91a1.16 1.16 0 0 0-.08-.16c-.03-.04-.1-.15-.69-.07-.82.11-1.2-.47-1.33-.72-.12-.23-.22-.44-.64-.37-.37.05-.65 0-.83-.16-.2-.17-.24-.43-.25-.61-.16.01-.36.11-.41.29-.06.2-.05.34-.04.47.01.2.03.45-.2.75-.17.22-.38.34-.55.44-.14.08-.24.14-.29.23-.07.15-.11.29-.14.45-.04.16-.07.32-.15.5-.2.47-.69.88-1.16.71-.44-.16-.6-.52-.47-1.07.06-.26.21-.45.33-.6.03-.04.1-.12.12-.16-.07-.22-.03-.49.1-.73s.33-.41.56-.46c.06-.04.39-.4.47-.79.03-.15.02-.26-.05-.31-.05-.01-.3.05-.41.08-.21.06-.4.11-.6.11-.34 0-.57-.24-.73-.41-.09-.09-.2-.21-.26-.21-.12 0-.2.05-.32.12-.14.08-.31.18-.55.18-.29 0-.5-.2-.69-.38-.11-.11-.28-.26-.36-.26-.12 0-.26.08-.38.15-.18.1-.39.24-.66.2-.48-.04-.68-.23-.81-.36-.09-.09-.11-.1-.26-.1-.24.01-.32.11-.45.25-.12.14-.28.33-.58.38-.39.07-.6-.19-.71-.33-.11-.14-.13-.16-.23-.16-.09 0-.1 0-.18.2-.06.15-.14.36-.36.47-.43.21-.73 0-.94-.15-.17-.12-.26-.18-.41-.15-.15.03-.15.03-.17.1-.04.11-.12.34-.43.43-.23.06-.42.01-.55-.02-.03 0-.06-.02-.08-.02-.04.07-.04.09-.04.09s.07.04.13.08c.15.1.35.23.44.47.14.36.05.59 0 .73-.03.08-.04.1-.02.14.02.03.15.09.21.12.18.08.43.19.52.46.07.2.03.36 0 .47-.02.07-.02.1-.02.13.37.5.28.9.15 1.15-.12.22-.34.33-.59.3-.4-.06-.92-.54-.97-.78-.02-.08-.03-.15-.05-.22-.07-.35-.08-.36-.24-.42-.81-.33-.87-.85-.79-1.23.03-.13.02-.13-.18-.27-.05-.03-.08-.06-.12-.08-.2-.14-.25-.36-.29-.51-.04-.18-.05-.2-.15-.21-.08 0-.14.03-.34.31-.13.19-.28.4-.51.51-.26.12-.52.12-.73.13-.14 0-.29 0-.38.05-.06.03-.08.07-.14.18-.07.13-.16.31-.37.44-.24.14-.52.13-.75.11-.06 0-.23-.01-.28 0 .01 0 0 .04-.01.09-.03.13-.07.33-.22.51-.19.22-.46.25-.68.27-.13.01-.25.02-.31.07v.09c0 .16 0 .43-.26.7-.31.32-.72.26-.97.22-.08-.01-.12-.02-.15-.02-.03.04-.03.09-.03.2 0 .17-.01.43-.25.65-.21.2-.44.25-.63.29-.16.03-.29.06-.43.16q-.08.05-.06.16c.02.12.04.31-.08.49-.15.23-.4.28-.58.31-.09.02-.2.04-.25.08v.08c.02.18.07.49-.2.83-.33.43-.64.45-.83.45q-.09 0-.11.03s-.07.08-.13.13c-.09.08-.25.23-.25.33 0 .02.01.07.11.16.02 0 .19-.08.27-.11.23-.09.53-.22.9-.22h.04c.26 0 .47.1.63.17.1.05.21.09.25.09.08-.01.28-.12.41-.19.29-.15.58-.3.83-.31.41-.01.67.13.87.25.21.12.23.12.32.07.58-.33 1.24-.17 1.63.07.23.14.48 0 .74-.16.61-.4 1.31-.08 1.57.03.1.05.62-.06.83-.17.17-.09.62-.27 1.12-.07.44.18.6.09.79-.03.11-.07.26-.15.44-.18.36-.05.69.08.89.34.17.22.2.5.1.75-.22.53-1.37.75-2.12.56-.58-.15-1.09-.04-1.32.13-.46.34-1.13.14-1.47.04a.88.88 0 0 0-.24.11c-.36.17-.95.44-1.62.13-.4-.19-.66-.11-.97-.02-.28.09-.64.2-1.04-.02-.3-.16-.7-.31-.92-.12-.38.31-1.07.32-1.46.12-.22-.11-.51-.12-.57-.06-.28.28-.65.55-1.37.38-.16-.04-.28-.03-.35.02-.07.05-.13.15-.15.3-.09.52-.33.85-.74 1.02-.12.05-.23.31-.19.7.05.46-.2.74-.35.91-.03.04-.1.11-.11.13-.09.24-.06.36-.03.5.04.17.09.38-.04.67-.14.32-.31.43-.44.53-.08.06-.14.1-.2.19-.01.03.01.09.02.12.06.16.15.41.03.73-.09.24-.22.38-.33.49-.1.1-.18.19-.26.37-.03.07-.03.1.08.28.1.17.25.42.13.73-.05.14-.14.23-.2.31-.08.09-.13.15-.15.27-.01.06 0 .09.05.21.07.16.16.37.18.73.02.5-.21.71-.35.83l-.07.07c0 .12.03.19.09.3.16.3.28.62-.16 1.22-.03.05-.05.08-.06.1.14.07.58.05.66 0 .32-.23.76-.49 1.27-.37.28.06.63-.04.74-.22.12-.2.33-.35.59-.41.27-.07.55-.04.73.08.06-.03.14-.1.18-.18.11-.22.34-.4.62-.48.29-.08.58-.06.81.08.05.03.19.04.32-.01.11-.04.16-.1.17-.12.06-.21.23-.39.48-.49.32-.14.71-.13 1 .02.05.03.13 0 .17-.02.16-.07.31-.24.36-.41.16-.61.91-.89 1.37-.82.06 0 .16-.02.26-.1.11-.08.16-.18.17-.24.02-.19.13-.36.32-.49.34-.24.87-.29 1.19-.2h.04c.1-.06.21-.26.25-.45.11-.49.67-.88 1.18-.81.22.03.4-.11.45-.33.13-.55.76-.95 1.07-1.01.05-.01.12-.03.22-.47.14-.67.62-.75.85-.79l.08-.02c.05-.01.23-.2.33-.49.11-.33.47-.53.76-.58.3-.05.56.03.71.22.35.43-.04 1.28-.37 1.56-.15.12-.53.45-.75.74-.14.19-.21.38-.27.56-.04.1-.07.2-.12.28-.21.43-.54.53-.76.59-.06.02-.15.04-.17.06-.14.13-.17.26-.21.43-.04.17-.09.39-.27.57-.16.17-.44.29-.73.42-.21.09-.53.24-.59.32-.22.31-.53.73-.97.98-.11.06-.21.11-.29.15-.23.11-.33.15-.43.43-.11.31-.11.56.02.83.09.19.17.25.46.2.3-.06.49.09.61.18s.15.12.38-.01c.72-.42 1.08-.19 1.33-.02.04.03.09.06.13.08.25.12.56.1.83-.05.63-.36 1.34-.07 1.72.15.05 0 .17-.05.35-.14.26-.12.56-.27.87-.24.18.02.36.09.54.16.39.16.76.3 1.14.03.55-.4 1.31-.22 1.79.07.16.09.5.07.72-.12.33-.29.9-.26 1.07-.25.18.01.63.08.86.35.09.11.61.18 1.16-.19.57-.38 1.03-.14 1.36.03.19.1.36.19.54.19.4 0 .53-.1.67-.22.15-.12.36-.28.75-.25.36.03.6.16.81.27.19.1.36.2.63.2.2 0 .58-.28.73-.58.04-.09.08-.21.01-.29-.28-.35-.39-.44-.58-.45-.48-.03-.83-.48-1.02-.71-.06-.07-.1-.15-.15-.23-.1-.18-.18-.3-.32-.36-.28-.12-.93-.4-1.01-1.1-.04-.39-.2-.48-.35-.54l-.05-.02c-.32-.13-1.03-.4-.93-1.11.03-.2-.03-.33-.39-.43-.48-.13-.83-.62-.83-1.17 0-.14-.11-.33-.2-.48-.11-.18-.21-.35-.21-.54 0-.31.18-.58.46-.67.31-.1.64.04.88.38.16.22.23.43.28.6.08.25.09.25.19.27.66.13 1.09.58 1.1 1.15 0 .08.1.21.55.37l.05.02c.34.13.75.82.83 1.13.06.23.35.64.67.75.64.22.83.45 1 .9.16.38.45.58.93.6.78.04 1.01.12 1.31.46.17.19.71.46 1.02.34.58-.23 1.04 0 1.3.63l.03.07c.16.4.21.42.41.38.62-.14 1.42-.04 1.76.43.09.13.69.13.98 0 .25-.11.52-.12.76-.02.26.11.47.32.59.61.04.11.17.19.33.22.18.04.32 0 .38-.06.18-.17.45-.27.76-.27.34 0 .66.11.84.29.69.65 1.21.77 1.38.7.1-.05.11-.22.11-.32-.01-.4 0-.66 0-.85.01-.29.02-.4-.06-.63Z"/><path d="M16.42 41.4c-.17-.28-.42-.7-.1-1.52.05-.13.03-.17-.05-.3-.12-.21-.31-.53-.02-1.12.18-.35.18-.58 0-1.03-.19-.5.05-.87.2-1.09.04-.05.1-.15.1-.18 0-.05-.11-.25-.15-.33-.17-.32-.36-.69-.24-1.05.03-.09.07-.18.1-.27.14-.35.21-.52.09-.71-.29-.47-.22-.93-.15-1.43.02-.15.04-.31.06-.48.01-.15-.02-.18-.02-.18-.05-.03-.19 0-.22.03-.14.11-.86.65-1.62.13-.33-.22-.74-.11-1.11 0-.08.02-.16.04-.23.06-.39.1-.76-.04-1.06-.16-.1-.04-.22-.08-.31-.1-.06-.02-.17.03-.28.08-.21.09-.5.21-.85.13-.3-.06-.52-.24-.62-.49-.12-.3-.06-.67.17-1.01.3-.45.67-.31.84-.25.14.05.16.05.22.01.6-.39 1.2.03 1.49.24.15.11.25.15.66-.14.61-.43 1.22-.19 1.8.1.14.07.14.07.26-.08.11-.13.26-.32.53-.36.17-.03.31 0 .4.02.01-.03.03-.07.05-.12.06-.18.02-.22-.12-.35-.13-.13-.33-.32-.31-.64.02-.31.19-.48.3-.6.1-.1.13-.13.12-.24-.01-.14-.07-.21-.16-.32-.12-.14-.28-.33-.28-.65 0-.35.25-.54.4-.65.03-.02.1-.08.12-.11v-.02c-.05-.14-.12-.18-.2-.24-.1-.06-.36-.23-.28-.59.04-.18.15-.31.24-.42.11-.13.15-.19.14-.29 0-.02-.03-.07-.05-.1-.03-.05-.06-.11-.09-.18-.17-.42-.09-.68-.04-.87.05-.18.07-.23-.13-.41l-.05-.05c-.09-.09-.2-.19-.34-.19h-.02c-.12 0-.27.11-.43.29-.4.49-1.39.14-1.66-.07-.14-.09-1.49-.17-1.89-.09-.07.01-.09.03-.1.04-.23.38-.87.56-1.27.37-.31-.15-.42-.5-.27-.87.12-.31.11-.33.02-.49-.06-.11-.15-.27-.23-.52-.14-.44-.02-.76.06-.96 0-.02.03-.07.04-.1-.05-.04-.07-.04-.07-.04-.17.02-.38.21-.59.41-.1.1-.17.22-.23.33-.1.17-.21.37-.43.49-.44.23-.82.27-1.02.25-.11-.02-.14-.02-.2 0-.18.07-.23.16-.31.29-.11.19-.27.47-.78.47-.55 0-.77.11-1.04.34-.13.12-.19.17-.21.2.12.17.29.44.12.92-.17.48-.79.44-1.05.4-.2-.03-.35-.11-.45-.17-.19-.11-.27-.15-.64.1-.1.07-.19.15-.27.24-.23.23-.55.54-1.14.38-.43-.12-.77-.06-.88.16-.17.36.13 1.08.39 1.29.4.31.26.68.18.88-.07.18-.12.33-.04.57 0 .02.01.03.16.09.16.07.41.17.6.44.22.31.21.83-.01 1.2-.05.08-.07.2-.01.29.07.12.27.17.54.15h.08l.08.03c.04.02.42.19.75.24.42.07.58 0 .76-.08.15-.06.33-.14.58-.14.4 0 .72.24.76.56.01.14 0 .62-.84.8-.11.02-.23.08-.35.13-.23.1-.49.23-.82.19-.24-.02-.41-.16-.53-.25-.16-.13-.21-.17-.37-.09v.02c0 .35.47 1.11.78 1.26.66.33.78.63.79 1.3 0 .34.18.5.49.65.26.13.73.37.78 1.04.03.37.11.42.37.44h.12c.5.02.91.11.96 1.04.02.4.13.41.52.42h.15c.62.04.84.37.99.91.1.35.32.49.5.51.57.06.94.37 1.02.84 0 .03.01.05.05.07.1.07.35.1.59.04.16-.04.3-.03.42.05.19.12.23.33.26.5.02.12.05.24.1.29.02 0 .06 0 .19-.06.14-.07.5-.24.74.09.08.11.36.5.66.75.04.04.21.01.33 0 .27-.04.83-.13 1.03.48.02.07.04.09.04.09.02 0 .17-.08.23-.1.15-.07.34-.15.54-.15.23 0 .42.11.55.31.24.37.51.56.65.64 0-.03-.02-.07-.03-.12-.06-.22-.16-.54.04-1.04.06-.14.03-.19-.08-.37ZM43.42 24.78s.06-.11.08-.15a3.89 3.89 0 0 0-.32-.06c-.24-.04-.54-.08-.84-.2-.23-.09-.4-.28-.55-.44-.06-.07-.18-.19-.22-.21-.15-.04-.32 0-.52.06-.48.13-1.13.3-2.09-.46-.3-.24-.42-.18-.7-.07-.37.16-.87.38-1.61-.36l-.09-.09q-.21-.21-.67-.07l-.06.02c-.28.09-.93.31-1.34-.09-.01-.01-.03-.02-.04-.03-.13-.09-.38-.26-.34-.58 0-.06.01-.11.02-.17.04-.29.06-.44-.11-.58s-.16.04-.24.07c-.15.05-.31.1-.48.13-.2.03-.34-.06-.45-.13-.14-.09-.23-.16-.6.13-.28.22-.35.42-.44.65-.05.12-.09.24-.15.36-.28.52-.64.59-1.01.66-.09.02-.18.03-.28.06-.3.07-.63-.05-.97-.17-.23-.08-.47-.17-.66-.18-.08-.01-.2.05-.33.13-.38.2-.96.51-2.02.04-.36-.17-.83-.06-1.14.12-.52.3-1.13.05-1.7-.24-.36-.18-.65-.16-1.03.08-.54.34-1 .22-1.58-.06-.54-.27-.77-.21-1-.03-.52.44-1.11.36-1.68.21-.35-.1-.59-.09-.65 0-.06.1-.12.22-.09.49.01.09.1.21.18.33.12.16.25.33.29.56.06.32-.11.59-.25.81-.04.06-.11.17-.14.24 0 .01.03.03.05.07.16.2.45.57.15 1.29-.06.15 0 .38.07.61.07.25.14.5.08.74-.03.11-.06.2-.1.29-.08.2-.12.32-.05.62l.04.15c.12.47.21.85-.06 1.32-.22.4-.17.52-.08.69.07.15.17.36.1.66-.13.52-.14 1.03-.02 1.25.22.41.29.7.06 1.33-.01.03 0 .04 0 .05.11.1.42.13.65.02.13-.06.23-.16.33-.25.19-.19.54-.54 1.04-.13.28.22.43.3.92-.21.4-.42.8-.64 1.15-.64.22 0 .41.09.55.25.18.2.26.43.24.68-.03.35-.29.7-.78 1.07-.08.06-.16.12-.22.17l-.03.02c-.27.22-.48.39-.88.39-.12 0-.25-.01-.36-.03-.25-.03-.5-.06-.6.05-.04.04-.07.08-.11.13-.26.32-.74.91-1.34.44-.2-.15-.4-.17-.49-.16 0 .1.06.26.11.42.12.4.27.85.14 1.29-.04.13-.09.27-.13.4-.13.38-.27.77-.13 1.05.29.59.34 1.08.15 1.56-.15.38-.15.68 0 .96.25.46.22.91.07 1.19.11.08.31.15.53.1l.11-.02c.25-.06.45-.1.65-.1.29 0 .53.09.82.3.35.25.86.23 1 .12.34-.27.87-.24 1.58-.17.57.05.95.02 1.19-.31.1-.13.12-.2.14-.28.09-.29.23-.41.66-.53.17-.05.29-.13.34-.24.06-.12.06-.27 0-.44-.22-.6.06-1.3.46-1.58.02-.02.05-.03.08-.05.26-.17.45-.29.37-1.05-.02-.24-.05-.44-.07-.61-.08-.66-.14-1.05.26-1.39.31-.27.49-.91.43-1.01-.16-.27-.19-.64-.08-.94.1-.28.31-.48.58-.57a.55.55 0 0 1 .5.06c.27.18.4.57.45 1.35.03.49-.08.72-.18.92-.03.06-.06.12-.09.19-.1.26-.24.44-.35.58-.1.13-.19.24-.23.38-.03.1.02.46.06.69.08.47.15.95.03 1.31-.21.61-.44 1.02-.64 1.35-.07.17.12 1.33.22 1.48.11.09.89.29 1.13.12.46-.33 1.28-.65 1.69-.66.06-.02.17-.26.22-.37.05-.1.09-.19.13-.26.23-.38.85-.71 1.42-.58.38.09.53 0 .63-.31.19-.59.47-1.14 1.34-1.04.44.04.45.04.62-.34.38-.84 1.26-.91 1.52-.91.34 0 .54-.28.63-.45l.06-.12c.16-.33.37-.74.92-.77.06 0 .15-.08.21-.21.07-.15.07-.28.04-.32 0-.02-.1-.02-.38.27-.25.26-.57.29-.81.31-.17.01-.3.03-.41.1-.02.02-.05.1-.07.14-.06.14-.16.4-.44.35-.43-.08-.89.14-1.23.3-.12.06-.23.1-.32.14-.05.02-.09.05-.15.09-.19.13-.46.31-1.18.38-.47.05-.69-.25-.82-.48-.1-.18-.31-.56-.25-1.3.02-.24.06-.52.1-.8.05-.35.12-.91.1-1-.11-.37-.14-.84.07-1.08.19-.21.46-.07.73.08.14.07.29.15.39.17.51.09.68-.11.91-.39l.09-.1c.14-.16.27-.34.38-.52.24-.36.47-.69.82-.83.74-.31 1.89-.28 2.39-.04.21.09.88-.16 1.31-.5.54-.43 1.04-.51 1.62-.25.52.23.57.12.68-.11.06-.13.07-.25.08-.4.03-.32.06-.75.66-1.22.35-.27.52-1.04.56-1.49.05-.68.19-.97.57-1.12.07-.03.07-.03.1-.09.27-.6.2-.94.14-1.21-.04-.17-.08-.35-.02-.54.09-.32.22-.53.31-.68ZM27.47 30.2h-.01s-.13.05-.19.07c.01.16-.03.29-.13.38-.08.07-.19.11-.33.11-.15 0-.34-.05-.58-.14-.33-.13-.6-.09-.97-.04l-.2.03c-.27.04-.58.05-.72-.15-.07-.09-.08-.21-.04-.35a1.92 1.92 0 0 0-.3-.08c-.26-.07-.48-.12-.48-.34 0-.29.38-.39 1.24-.5.22-.03.39-.11.55-.18.18-.08.35-.15.55-.16.25 0 .4.16.54.31.08.08.19.16.6.2.66.06.96.2.96.44s-.25.32-.5.4Zm.39-3.01c-.23.19-.69.31-1.03.3-.06 0-.12-.01-.18-.02-.13-.01-.24-.03-.36 0-.06.01-.12.04-.19.06-.15.05-.32.11-.53.11-.34 0-.47-.1-.59-.27-.05-.07-.06-.09-.19-.11l-.21-.02c-.55-.05-1.12-.11-1.12-.51 0-.11.04-.21.13-.29.18-.16.52-.2.98-.2.29 0 .52-.06.79-.12.12-.03.23-.06.36-.08.3-.06.54.03.75.12.16.06.29.12.42.1.19-.01.65-.02.93.2.13.11.21.25.21.42 0 .11-.06.21-.17.31Zm8.09 3.28c-.13.12-.32.19-.55.19-.27 0-.59-.09-.82-.24-.25-.16-.54-.17-.91-.03-.24.09-.44-.02-.6-.11-.15-.08-.27-.15-.45-.11-.31.06-.47-.11-.51-.28-.06-.28.17-.68.56-.79.06-.02.12-.04.19-.05.45-.13.88-.25 1.12-.06.1.08.59.07.78 0 .23-.1.82-.2 1.1.11.14.16.21.36.18.54-.02.11-.07.2-.14.27.09.09.18.19.18.34 0 .09-.04.17-.11.24Zm.1-3.69-.04-.12.04.12s-.06.02-.08.03c0 .02.01.04.02.06.1.29.19.57.01.72-.05.04-.11.06-.17.06-.09 0-.17-.04-.2-.06-.37-.21-1.17-.4-1.64-.21-.23.1-.5.2-.83.25-.11.01-.42.06-.53-.16-.09-.2.06-.4.21-.56-.05-.03-.13-.06-.17-.08-.18-.08-.36-.15-.37-.34 0-.24.26-.36 1.27-.56l.08-.02s.11-.07.16-.1c.23-.16.54-.38.83-.22.15.08.25.16.32.21.11.09.16.12.28.12s1.2.01 1.2.49c0 .24-.24.32-.39.37Z"/><path d="M36.87 35.56c.37-.17.62-.15.82-.13.18.01.33.03.56-.08.07-.03.11-.11.17-.24.06-.14.14-.31.32-.43a.8.8 0 0 1 .4-.12c.11-.01.18-.02.22-.06a.61.61 0 0 0 .15-.3c.06-.21.14-.46.55-.7.1-.06.21-.23.33-.52v-.06a.068.068 0 0 0-.06-.04c-.25-.05-.6-.09-.86 0-.09.04-.63.29-1.07.39-.28.06-.44.07-.6.07-.11 0-.25 0-.46.03-.14.02-.29.25-.29.39 0 .03 0 .06.11.07.09 0 .12 0 .17-.04.05-.03.13-.07.25-.09.01 0 .48-.02.6.11l.06.07v.09c-.06.51-.57.55-.79.56-.12.04-.24.08-.37.11-.16.04-.37.09-.41.16-.36.56-.97.69-1.27.63l-.36-.06.24-.27c.1-.11.18-.23.25-.36.04-.07.04-.19.03-.29 0-.1-.01-.19.02-.27.03-.08.07-.14.12-.21.07-.1.16-.22.16-.32 0-.06 0-.1-.01-.12h-.01c-.12-.06-.31-.15-.46-.09-.1.05-.19.18-.26.38-.18.58-.56 1.07-.98 1.29-.07.04-.15.08-.22.13-.3.17-.66.39-1.09.31 0 .09.01.23.02.29.02.2.03.32-.01.43-.25.59-.31.87-.12 1.24.09.06.17.03.45-.22.22-.2.49-.44.85-.44h.11c.62 0 .81-.24.97-.46.11-.15.26-.36.57-.36h.01c.27.01.57.02.7-.13.02-.02.06-.06.5-.3Z"/><rect x="280.53" y="6.59" width="10.71" height="30.51" rx="2.92" ry="2.92"/><path d="m258.15 34.48.32 1.15c.25.87 1.04 1.47 1.94 1.47h6.01c1.79 0 3.04-1.78 2.44-3.46l-8.68-24.15a4.37 4.37 0 0 0-4.12-2.9h-6c-1.87 0-3.54 1.19-4.14 2.96l-8.23 24.12c-.57 1.68.68 3.42 2.45 3.42h6.09c.91 0 1.7-.61 1.95-1.48l.31-1.13c.13-.46.55-.78 1.02-.78h7.6c.48 0 .89.32 1.02.77Zm-3.45-9.76H252a.53.53 0 0 1-.51-.67l1.43-4.49c.13-.4.7-.41.83 0l1.46 4.49c.1.34-.16.67-.51.67Z"/><rect x="194.49" y="6.59" width="10.28" height="30.51" rx="2.89" ry="2.89"/><path d="M217.48 37.1h6.9c1.52 0 2.41-1.7 1.55-2.96l-7.96-11.56c-.43-.63-.44-1.45-.03-2.09l7.11-10.99c.81-1.25-.09-2.91-1.58-2.91h-7.01c-.64 0-1.24.32-1.58.86l-8.72 13.46c-.24.37-.23.85.02 1.22l9.74 14.15c.35.51.93.82 1.55.82Z"/><rect x="151.14" y="6.59" width="10.28" height="30.51" rx="2.83" ry="2.83"/><path d="M174.12 37.1h6.95c1.5 0 2.39-1.69 1.54-2.92l-7.99-11.6c-.43-.62-.44-1.44-.03-2.07l7.14-11.03c.8-1.24-.09-2.88-1.57-2.88h-7.06c-.63 0-1.22.32-1.57.85l-8.73 13.49c-.24.37-.23.84.02 1.2l9.75 14.17c.35.51.92.81 1.54.81ZM123.48 5.88h-1.99c-8.98 0-16.29 7.17-16.29 15.99s7.31 15.99 16.29 15.99h1.99c8.98 0 16.29-7.17 16.29-15.99s-7.31-15.99-16.29-15.99Zm5.43 16.43c0 3.49-2.88 6.32-6.43 6.32s-6.43-2.84-6.43-6.32v-.86c0-3.49 2.88-6.32 6.43-6.32s6.43 2.84 6.43 6.32v.86ZM74.65 37.19c1.87 0 3.52-1.19 4.12-2.96l3.78-10.62c.19-.54 1-.4 1 .17v10.56c0 1.52 1.23 2.75 2.75 2.75h4.78c1.52 0 2.75-1.23 2.75-2.75V9.5c0-1.61-1.3-2.91-2.91-2.91h-8.2c-1.28 0-2.41.84-2.79 2.06l-4.94 16.23c-.14.47-.82.47-.96 0L69.09 8.65a2.898 2.898 0 0 0-2.79-2.06h-8.2c-1.61 0-2.91 1.3-2.91 2.91v24.87c0 1.51 1.22 2.73 2.73 2.73h4.83c1.51 0 2.73-1.22 2.73-2.73V23.8c0-.58.8-.71 1-.17l3.75 10.6a4.346 4.346 0 0 0 4.12 2.97h.32Z"/></g></svg>