<svg id="_レイヤー_2" data-name="レイヤー 2" xmlns="http://www.w3.org/2000/svg" viewBox="0 0 104.04 69.17"><defs><style>.cls-1{fill:#231815}</style></defs><g id="_レイヤー_1-2" data-name="レイヤー 1"><path class="cls-1" d="M48.62 45.13c-1.27-4.04-6.2-17.71-7.76-21.31.85-.29 2.45-.46 3.46-.29.11.53.42 1.08.88 1.5.58.53 1.87 1.3 4.03.51 3.26-1.2 3.56-5.49 3.12-6.92l-.04-.13-.08-.11c-1.26-1.74-4.58-4.47-6-5.64-.17-.14-.3-.25-.4-.33l-.03-.03c-.07-.06-.15-.11-.22-.17-.54-.44-1.28-1.04-3.12-1.04h-.43c-1.39-.03-4.55-.1-10.92.85-.06-1.3-.17-3.66-.17-5.03 0-2.5-3.31-4.91-6.58-6-.53-.18-.95-.33-1.3-.46-1.79-.65-2-.65-4.59.04l-.16.04-.13.1c-1.41 1.06-2.05 1.92-2.06 2.8-.02 1 .72 1.61 1.38 2.14.21.17.42.34.6.52.78.78.78.83.76 1.67v.53c0 .37.01 1.04.03 1.85.04 1.79.1 4.65.02 5.97-.69.29-1.28.55-1.85.8-1.15.51-2.15.95-3.51 1.45-.16-.05-.53-.29-.8-.47-.88-.58-2.22-1.47-3.96-1.24-.33.04-.64.1-.93.15-.48.1-.88.4-1.09.84-.21.44-.2.94.02 1.38.43.83.58 1.55.41 1.93-.11.24-.2.47-.28.67-.36.91-.39.99-1.11.99-.44 0-.93-.01-1.42-.02-1.68-.04-2.75-.05-3.37.13-1.23.37-1.05 1.76-.92 2.78.04.32.08.65.1.97.08 1.52.75 2.41 2.11 2.78.08.02.28.26.41.41.4.48 1.01 1.2 2.18 1.33.92.1 2.18.16 2.99.2 0 1.87-.13 6.86-1.62 12.07-1.91 6.67-4.08 11.12-4.53 12.02l-.67-.67-.15 1.81c-.02.22-.41 5.51 3.06 7.54 3.51 2.06 6.37.52 7.3.01l.24-.13.12-.25c.53-1.12 1.53-3.06 2.14-4.24 1.34 1.34 3.9 3.91 4.37 4.44.41.46.71.8.87.99.31 1.62 1.81 4.28 5.71 4.28 3.51 0 4.13-.19 5.04-1.52.15-.22.33-.48.59-.78 1.61-1.87 1.69-3.23 1.69-6.88 0-3.33-.39-29.82-.44-33.19.39-.38.86-.72 1.2-.91.65 2.55 3.08 12.9 3.68 17.44.28 2.15.67 4.52 1.03 6.81.48 2.97.93 5.77.97 6.97v.11l.4 1.28c1.51 4.9 1.56 5.1 2.49 5.75.08.05.21.17.35.3.9.8 3.01 2.69 6.09 1.18 3.35-1.64 4.27-3.24 4.27-7.46 0-3.01-1.04-6-2.23-9.46-.41-1.18-.83-2.39-1.23-3.68ZM15.91 49.2c.18-2.4.4-5.38.5-8.26.04-1.1.05-2.28.06-3.43.02-2.31.05-5.74.42-6.59 1-.12 2.05-.24 2.35-.26.14.06.71.36.71 1.47 0 2.03.38 18.48.67 21.61.06.62-.06.92-.18.99-.22.14-.85.04-1.53-.37-.24-.14-.52-.27-.84-.43-.7-.33-1.54-.73-2.38-1.44.05-.91.13-2.02.23-3.28Z"/><path class="cls-1" d="M103.07 57.86c-.59-1.46-1.73-3.94-2.59-5.83 1.17.46 2.16.72 2.86.31.37-.22.61-.61.65-1.08.15-1.49.09-3.46-1.69-5.53-1.05-1.22-2.15-1.96-3.12-2.6-.48-.32-.95-.63-1.37-.97.13-1.44 1-2.78 1.86-3.53.62-.54 1.13-.69 1.37-.64l.12.02h.12c1.56-.21 1.6-2.24 1.68-5.92.01-.56.03-1.17.04-1.81.12-4.12-.35-13.7-.37-14.1v-.2l-.1-.17c-.12-.22-2.94-5.32-5.84-7.31-3.9-2.66-7.77-2.22-9.27-1.9-.75-1.15-2.66-3.88-4.62-5.24-2.61-1.8-5.58-1.61-7.16-.5-1.06.75-1.69 2.38-1.43 3.71.19 1.02.83 1.77 1.83 2.16.04.68-.37 1.54-.63 1.74-.39 0-1 .06-1.69.11-.79.06-1.68.14-2.18.14s-1.94 0-2.2 5.32c-.11 2.24 1.03 3.43 1.67 3.92.08.74.1 1.5.05 1.94-.63-.3-1.77-1.18-2.44-1.7l-.24-.18c-.2-2.56-.04-3.5.47-4.74.79-1.93-.17-4.52-1.47-6.23-1.41-1.85-2.97-3.23-4.41-3.89-1.54-.71-5.02-.32-5.73.64-1.04 1.4 1.31 4.09 1.41 4.21 1.06 1.2 1.63 2.3 1.65 2.57 0 .49.07 6.42.11 9.92 0 .25-.1.49-.27.66-2.61 2.6-4.25 4.03-4.81 4.37-.37.01-.7 0-.99-.02-.66-.04-1.29-.07-1.77.41-.45.46-.51 1.13-.46 2 .14 2.32 1.69 4.86 3 5.68l.12.08.14.03c1.22.27 2.97.73 3.86.96.12 1.24.38 4.1.43 5.36-2.08 2.09-6.29 8.69-7.41 13.58-1.22 5.36.96 11.22 3.61 12.26 2.46.97 6.85.9 7.88-1.16.08-.15.23-.37.66-.44.59-.1 1.22.15 1.36.28.24.37 2.32 3.38 4.09 2.7l.08-.04c3.46-1.75 5.24-3.42 5.77-5.43.07-.25.19-.66.36-1.18.99-3.16 3.25-10.37 3.17-18.26 0-.11.09-.21.21-.2.16 0 .31.02.46.02.11 0 .19.1.18.21-.08 1.84-.27 5.77-.45 8.35-.29 4.13-.45 9.25.94 12.32 1.45 3.21 5.35 6.12 10.31 6.12.56 0 1.14-.04 1.73-.12 5.76-.78 8.47-1.44 10.28-4.55 1.72-2.93 1.14-4.31.35-6.22l-.17-.42Zm-10.41-9.24c-.18.19-.36.38-.53.58l-2.09 2.12c-.46.47-.67.57-1.31.4-.35-.09-.53-.17-.61-.22.05-.09.15-.25.38-.48.59-.59 1.23-1.29 1.85-1.95.8-.86 1.55-1.68 1.94-2 .52-.43 1.02-1.02 1.33-1.39.35.06.74.21.79.42.12.53-.96 1.69-1.74 2.54Zm-2.02-21.38c.57-.29 1.23-.4 1.74-.4.42 0 .74.07.81.19.19.51.13 1.81-.04 2.42-.5-.07-.92.04-1.33.15-.24.06-.5.13-.81.18-.76.11-1.12.66-1.33 1.07-.22-.19-.44-.5-.44-.98 0-.92.53-2.19 1.4-2.62Zm2.67-8.43c-.31 0-.83-.1-1.15-.16-.47-.08-.92-.16-1.29-.16-.71 0-1.34-.09-2.07-.2l-.29-.04c-.05 0-.13-.13-.19-.27.43-.49.93-1.24 1.55-2.17.36-.54.69-1.05.9-1.31.51-.62.62-.68 1.38-.84.39-.08.73-.04.95.12.16.12.26.29.29.53.12.96.08 3.61-.08 4.5Zm-1.63 19.44c.21.29-.57 1.08-.9 1.41-.58.59-1.9 2.22-2.42 2.9-.18-.11-.49-.38-.9-.93-.85-1.15-.72-2.86-.6-3.64.18-.04.55-.07.86-.09.23-.01.49-.03.76-.05 1.7-.16 3.01.13 3.21.4Zm-4.72 19.17c.28-.16.59-.2.84-.2.36.77 1.15 1.71 2.53 1.81 1.16.09 2.1-.2 2.66-.82.35-.38.52-.88.49-1.37.25-.21 1.05-.49 1.7-.45.27.33.5 1.86-.28 3.09-.82 1.29-1.84 1.48-3.53 1.79-.17.03-.33.06-.51.09-1.21.23-2.81.26-3.62-.91-.69-.99-.55-2.78-.27-3.04Zm-9.87-26.95c.16-.13.9-.13 1.39-.13.58 0 1.69.36 1.77 1.23 0 0 .02.21-.19.8-.16.46-.51.81-.94.95-.32.1-.47.09-.51.08-1.27-.2-1.49-.58-1.66-1.35-.2-.9.01-1.46.14-1.59Zm1.38-9.22c.33 0 .52.04.57.11l.09.12c.28.38.36.48.36 1v.19c.01 1.07-.09 1.37-.77 1.48-1.31.2-1.53-.28-1.66-.85-.16-.71-.09-1.5.15-1.84.06-.09.13-.13.23-.14.43-.04.77-.06 1.03-.06Zm-1.24-6.01c-.57.07-2.91-.67-3.36-1.12.06-.19.58-.75 1.81-.83 1.8-.11 3.36.44 3.57.79-.12.35-1.31 1.04-2.01 1.15Zm-7.44 35.21c.05-1.08.11-2.2.22-3.33.13-1.22.14-2.26.16-3.25.01-.76.03-1.54.09-2.42.04-.57.13-1.29.21-1.99.23-1.86.26-2.33.07-2.71-.18-.36-.51-.58-.89-.58-.7 0-1.17.59-2.12 2.42v-5.73c0-.76.4-1.68.99-2.28.22-.22.76-.41 1.3-.35.45.05.78.25.99.58.33.52.38 2.4.42 3.77.06 2.14.12 3.38.61 4.05.09.13.19.24.29.36.54.65 1.16 1.38.54 6.8-.36 3.17-1.82 6.09-3.17 8.18.15-1.06.21-2.25.27-3.54Zm-13.04 7.73c.2-1.43 1.74-4.23 2.97-6.48l.41-.75c.7-1.29 1.67-1.65 2.19-1.74.16-.03.32-.04.45-.04.27 0 .47.05.59.1.12.26.35.94-.1 1.73-.34.59-1.06 1.71-1.82 2.9-1.19 1.87-2.55 3.99-3.16 5.15-.25.47-.53.45-.74.38-.44-.15-.87-.68-.79-1.24Z"/></g></svg>