<svg data-name="レイヤー 2" xmlns="http://www.w3.org/2000/svg" viewBox="0 0 96.1 13.94"><g data-name="レイヤー 1"><path d="M1.87 9.07c-.42.62-.85 1.16-1.27 1.62-.54.54-.71.56-.52.06.08-.12.13-.21.17-.29.85-1.77 1.39-3.81 1.62-6.12H.31l-.23-.4h1.79V.23L3.78.4c.38.12.42.33.12.64l-.4.23v2.66h.23l.58-1.16 1.04 1.1c.19.23.15.39-.12.46H3.5V6.7c.96.23 1.58.62 1.85 1.16.31.69.15 1.16-.46 1.39-.46.12-.73-.08-.81-.58-.08-.5-.14-.79-.17-.87-.08-.23-.21-.44-.4-.64v5.89c0 .23-.25.4-.75.52-.58.12-.87 0-.87-.35V9.06Zm6.18.64c-1 1-1.95 1.81-2.83 2.43-.12.08-.33.21-.64.4-.77.46-.87.38-.29-.23 1.39-1.19 2.54-2.95 3.47-5.26H4.81l-.23-.4h3.47V3.99H6.84c-.19.35-.39.67-.58.98-.19.35-.42.69-.69 1.04l-.23.35c-.27.35-.37.27-.29-.23.5-1.42.85-3.1 1.04-5.03l1.56.64c.27.23.29.44.06.64l-.23.12c-.15.39-.31.75-.46 1.1h1.04V.17L9.91.4c.38.12.42.35.12.69l-.35.23v2.25h1.39l.92-1.21 1.21 1.16c.19.23.15.39-.12.46H9.67v2.66h1.91l.98-1.33 1.21 1.21c.23.27.19.44-.12.52H9.84c.19.35.37.66.52.92.35.54.81 1.06 1.39 1.56.69.62 1.5 1.16 2.43 1.62-.66.31-1.16.79-1.5 1.44-.77-.73-1.35-1.39-1.73-1.96-.46-.69-.89-1.54-1.27-2.54v4.97c0 .23-.12.38-.35.46-.31.12-.6.17-.87.17s-.4-.17-.4-.52V9.69ZM20.39 10.75c1.19-.19 2.21-.37 3.06-.52.35-.08.52-.06.52.06 0 .15-.44.4-1.33.75l-1.27.52c-1.16.46-1.85.73-2.08.81-.31.08-.79.23-1.44.46l-.17.29c-.31.54-.62.56-.92.06l-1.04-1.68c1.23-.15 2.21-.29 2.95-.4V7.29h-2.31l-.12-.4h4.39l.98-1.33L23 6.77c.27.27.23.44-.12.52H20.4v3.47Zm4.16-6.42c.08 1.08.25 2.1.52 3.06.42 1.5 1.04 2.6 1.85 3.29.54.46.9.56 1.1.29.15-.19.37-.56.64-1.1l.4-.81c.15-.19.23-.13.23.17-.19.96-.29 1.6-.29 1.91-.04.31-.04.52 0 .64.04.08.19.35.46.81.19.31.21.58.06.81-.19.31-.56.38-1.1.23a4.6 4.6 0 0 1-1.33-.58c-1.7-1.04-2.83-2.54-3.41-4.51-.35-1.19-.6-2.6-.75-4.22H16l-.12-.4h7.05l-.06-1.5-.12-2.2 1.85.17c.58.19.65.4.23.64l-.35.17c-.04.5-.02 1.41.06 2.72h2.54L28 2.59l1.44 1.21c.27.27.23.44-.12.52h-4.8Zm.46-3.23c.38 0 .75.04 1.1.12.54.15.9.4 1.1.75.19.31.23.6.12.87-.31.54-.75.62-1.33.23-.12-.15-.21-.4-.29-.75-.08-.35-.25-.62-.52-.81-.39-.19-.44-.33-.17-.4ZM38.29 1.27c.77 1.23 1.96 2.29 3.58 3.18.38.23.85.44 1.39.64.5.15.96.33 1.39.52-.31.19-.58.39-.81.58-.19.15-.42.48-.69.98-.54-.31-1.06-.65-1.56-1.04-.89-.69-1.7-1.5-2.43-2.43-.46-.62-.89-1.37-1.27-2.25-1.58 2.47-3.56 4.31-5.95 5.55-.23.15-.52.27-.87.35-.19-.08-.14-.23.17-.46.38-.27.77-.58 1.16-.92.73-.69 1.39-1.42 1.96-2.2.77-1.08 1.46-2.33 2.08-3.76l1.96.58c.38.19.44.37.17.52l-.29.17Zm-6.7 10.4c.92.04 1.83.06 2.72.06.38-.81.73-1.85 1.04-3.12h-3.99l-.17-.4h10.23l.98-1.27 1.56 1.16c.31.27.27.44-.12.52h-6.59c.35.27.38.48.12.64l-.46.17c-.66.89-1.29 1.66-1.91 2.31.81 0 1.87-.02 3.18-.06 1.5-.04 2.29-.06 2.37-.06-.35-.54-.75-1-1.21-1.39-.62-.38-.69-.6-.23-.64.92.31 1.66.62 2.2.92.85.5 1.41 1.12 1.68 1.85.12.31.12.62 0 .92-.19.5-.46.71-.81.64-.39 0-.66-.21-.81-.64-.23-.66-.4-1.06-.52-1.21-2.66.5-5.07.87-7.22 1.1l-.23.35c-.27.42-.54.41-.81-.06l-.98-1.79Zm7.74-7.05 1.33 1.1c.27.23.23.39-.12.46h-6.36l-.12-.4h4.28l.98-1.16ZM47.96 7.92c-.12.12-.33.29-.64.52-.46.35-.87.62-1.21.81-.35.12-.37 0-.06-.35.5-.46.96-.96 1.39-1.5 1.04-1.31 1.83-2.58 2.37-3.81h-3.64l-.12-.4h1.91V.06l1.85.29c.46.19.5.42.12.69l-.46.17v1.96h.46l.58-.87 1.21 1.16c.23.23.19.4-.12.52l-.35.12c-.15.27-.33.54-.52.81s-.62.77-1.27 1.5v.46c.65.12 1.14.25 1.44.4.54.31.81.71.81 1.21 0 .42-.15.67-.46.75-.46.12-.75-.02-.87-.4-.23-.81-.54-1.37-.92-1.68v5.84c.04.23-.1.4-.4.52-.35.15-.64.21-.87.17-.12-.04-.19-.13-.23-.29V7.9Zm7.74 4.45h1.62l1.04-1.39 1.39 1.27c.27.27.23.44-.12.52h-9.48l-.12-.4h4.04V5.78h-3l-.12-.4h3.12V.23l1.91.23c.31.12.33.33.06.64l-.35.23v4.04h1.21l.92-1.21 1.27 1.16c.23.23.19.39-.12.46h-3.29v6.59ZM72.5 7.8c-.73.81-1.39 1.48-1.96 2.02-.77.69-1.52 1.29-2.25 1.79-1.08.73-1.7 1.04-1.85.92-.08-.08 0-.21.23-.4.96-.81 1.75-1.6 2.37-2.37 1.31-1.58 2.27-3.24 2.89-4.97h-4.97l-.23-.4h5.78V.29l1.91.17c.42.12.46.35.12.69l-.29.17v3.06h3.06l1.04-1.39 1.44 1.27c.27.27.23.44-.12.52H74.3c.15.42.31.77.46 1.04.5.92 1.08 1.73 1.73 2.43.81.85 2.16 1.73 4.04 2.66-.54.23-.92.48-1.16.75-.27.31-.48.6-.64.87-1.66-1.23-2.87-2.6-3.64-4.1-.19-.35-.48-1.1-.87-2.25v7.05c0 .19-.15.33-.46.4-.15.04-.39.08-.69.12-.39.04-.58-.06-.58-.29V7.8ZM85.41 9.65c.96-.19 1.73-.38 2.31-.58.46-.04.4.14-.17.52-.27.15-.5.29-.69.4-.77.42-1.73.89-2.89 1.39l-.23.58c-.19.35-.42.33-.69-.06l-.98-1.44c.65-.12 1.31-.25 1.96-.4V5.15h-1.79l-.06-.4h1.85V.58l1.5.12c.42.12.46.33.12.64l-.23.12v3.12l.64-1.04L87.1 4.7c.23.23.21.39-.06.46h-1.62v4.51Zm4.62-.46c-.23.85-.5 1.5-.81 1.96-.54.85-1.31 1.52-2.31 2.02-.62.31-1.12.48-1.5.52-.27 0-.31-.08-.12-.23.73-.46 1.23-.83 1.5-1.1 1.04-.96 1.71-2.5 2.02-4.62l1.5.64c.23.19.25.39.06.58l-.35.23ZM88.7 7.28v.4c0 .15-.1.27-.29.35-.08.04-.23.08-.46.12-.42.08-.64 0-.64-.23v-6.3l1.68.87h.75c.31-.81.52-1.6.64-2.37l1.56.58c.31.23.33.44.06.64l-.29.12c-.42.46-.79.81-1.1 1.04h2.77l.58-.92 1.39 1.39c.19.23.15.4-.12.52l-.29.12v3.64c0 .15-.06.27-.17.35-.19.12-.42.19-.69.23-.35.08-.52-.02-.52-.29v-.23h-1.68v3.12c.31 0 .58-.02.81-.06.08-.54.17-1.42.29-2.66l1.1.46c.23.15.25.31.06.46l-.29.12c-.27.66-.5 1.18-.69 1.56.27-.04.54-.1.81-.17-.04-.23-.12-.48-.23-.75-.08-.15 0-.19.23-.12.46.23.77.56.92.98.19.42.04.73-.46.92-.27 0-.4-.13-.4-.4v-.29c-.5.39-.87.66-1.1.81l-.12.23c-.15.23-.29.23-.4 0l-.52-.81v1.16c0 .19.08.31.23.35.27.08.71.1 1.33.06.5 0 .85-.08 1.04-.23.15-.12.4-.67.75-1.68.31-.5.42-.52.35-.06l-.12 1.04c-.04.27-.02.44.06.52l.35.35c.12.15.19.27.23.35.04.27-.12.48-.46.64-.27.12-.67.19-1.21.23h-1.21c-.81 0-1.39-.02-1.73-.06-.5-.08-.75-.4-.75-.98V7.32h-2.02Zm0-4.39v1.85h1.68V2.89H88.7Zm0 2.25v1.73h1.68V5.14H88.7Zm3.06-2.25v1.85h1.79V2.89h-1.79Zm0 2.25v1.73h1.79V5.14h-1.79Z"/></g></svg>