<svg data-name="レイヤー 2" xmlns="http://www.w3.org/2000/svg" viewBox="0 0 236.07 231.86"><g data-name="レイヤー 1"><path d="M206.39 86.32c-.24-.67-.5-1.21-.74-1.69-.43-.88-.83-1.7-.77-2.77.09-1.63.49-2.54.78-3.2.25-.57.36-.83.25-1.31-.17-.75-.36-.96-.64-1.26-.54-.59-.96-1.18-1.04-3.03-.11-2.75-.41-3.24-1.87-4.52-1.21-1.06-1.01-2.54-.86-3.62.09-.66.17-1.28-.07-1.53-.26-.26-.58-.53-.86-.77-1.06-.9-2.26-1.92-2.07-3.45.16-1.34-.32-2.98-1.18-4-.28-.33-.59-.59-.9-.84-.76-.63-1.62-1.33-1.8-3.06-.09-.84 0-1.5.08-2.03.11-.84.15-1.12-.35-1.62-.34-.34-.69-.6-1.03-.86-.85-.65-1.81-1.38-2.35-3.11-.33-1.04-1.61-.89-3.59-.3-.58.17-.88.25-1.16.25-.98-.02-1.51-.57-1.94-1.02-.47-.48-.9-.94-2.11-1.02-1.27-.08-1.51.12-1.69.27-.32.26-.7.5-1.47.34-.46-.1-.83-.22-1.18-.35-.93-.32-1.81-.62-4.37-.08-2.15.45-2.85.17-3.67-.32-.43-.25-.83-.5-1.96-.57-.86-.06-2.6.47-3.44.72l-.39.12c-1.38.4-3.03-.21-4.35-.7-.53-.2-1.09-.4-1.34-.42-1.09-.08-1.89.06-2.58.2-1.02.19-1.99.38-3.19-.4-1.21-.78-1.66-.6-3.16.01l-.23.09c-1.82.73-3.93 1.34-7.96.05-1.62-.52-2.08-1.86-1.99-2.84.11-1.11.88-2 1.84-2.1 1.16-.13 2.08.36 2.82.75.13.07.25.13.37.19.75.37 2.04.67 2.56.18 1.07-.99 3.63-2.02 5.46-1.3.59.23 1.08.59 1.55.93.89.64 1.26.87 1.73.64 1.6-.77 3.83-1.46 5.32-.34.9.67 2.27 1.22 3.43.74 1.58-.66 3.3-1.19 5.36.01.98.57 1.35.69 4.04-.11 1.4-.41 2.76-.2 4.21.02 1.52.23 3.1.48 4.75-.08 1.29-.44 2.29.26 3.02.77.94.66 1.24.82 1.95.15.7-.65 1.06-1.26 1.08-1.81.03-.66-.44-1.26-.85-1.71-.79-.87-2.04-1.49-3.7-1.85-1.66-.36-2.08-.97-2.67-1.82-.15-.21-.3-.43-.48-.67-.89-1.16-2.26-2.03-3.4-2.18-1.99-.25-2.4-2.39-2.7-3.95-.24-1.26-.76-1.71-2.39-2.11-2.28-.56-3.71-2.29-3.96-3.71-.08-.46-.27-1.53-2.36-1.53h-.1c-2.3 0-3.26-2.19-3.78-3.37-.13-.29-.26-.59-.35-.72-.29-.44-.89-.8-3.25-.49-2.87.37-4.26-1.48-4.83-2.62-.49-.97-1.05-2.07-3.1-1.76-1.35.21-2.31.04-2.94-.51-.77-.67-.85-1.68-.85-2.57 0 .02-.07-.01-.23-.03-.77-.11-2.09.43-2.4 1.53-.25.91-.21 1.52-.17 2.07.06.79.11 1.61-.7 2.66-.63.82-1.39 1.26-2.06 1.64-.62.36-1.11.65-1.35 1.14-.32.66-.46 1.27-.62 1.93-.14.6-.29 1.22-.57 1.9-.7 1.7-2.49 3.15-4.04 2.6-2.24-.8-1.74-3.01-1.58-3.73.21-.93.74-1.61 1.22-2.21.39-.49.65-.85.59-1.04-.27-.79-.14-1.77.33-2.64.45-.83 1.16-1.42 1.93-1.61.39-.09 1.89-1.82 2.28-3.58.18-.82.05-1.41-.37-1.74-.3-.24-1.34.04-2.11.25-.75.2-1.52.41-2.24.41-1.16 0-1.95-.83-2.58-1.5-.49-.52-.95-1-1.41-1-.64 0-1.07.26-1.56.55-.53.31-1.13.67-1.97.67-.96 0-1.72-.72-2.46-1.42-.61-.58-1.25-1.18-1.78-1.18-.62 0-1.22.34-1.8.67-.69.39-1.48.83-2.37.74-1.77-.17-2.46-.83-2.97-1.31-.4-.38-.6-.57-1.41-.53-1.19.07-1.64.59-2.16 1.2-.45.53-1.01 1.19-2.03 1.37-1.3.23-1.96-.61-2.4-1.17-.42-.53-.67-.85-1.33-.82-.69.04-.85.31-1.16 1.13-.21.56-.47 1.26-1.19 1.62-1.45.71-2.45.01-3.26-.55-.64-.45-1.19-.83-2.02-.69-.89.15-.95.34-1.08.72-.14.42-.38 1.12-1.4 1.41-.79.22-1.48.03-1.99-.1-.68-.18-.69-.18-.86.14-.44.78-.34.85.49 1.38.56.36 1.26.82 1.59 1.67.49 1.25.19 2.01-.03 2.56-.14.35-.21.55-.11.89s.6.56 1.13.79c.69.3 1.54.67 1.84 1.56.23.68.1 1.2 0 1.62-.08.33-.13.55-.04.87l.03.04c1.09 1.45 1.29 2.84.6 4.13-.38.71-1.06 1.05-1.85.94-1.41-.19-3.34-2.05-3.5-2.74-.07-.32-.13-.6-.19-.86-.29-1.41-.35-1.7-1.25-2.07-2.35-.98-3.32-2.45-2.88-4.38.19-.86-.12-1.06-.94-1.62-.18-.12-.33-.22-.49-.34-.66-.48-.83-1.21-.97-1.79-.18-.74-.26-1.1-1.01-1.24-.69-.12-1.11.38-1.86 1.47-.51.75-1.04 1.52-1.85 1.88-.94.42-1.9.45-2.74.46-.66.01-1.28.03-1.72.24-.4.19-.56.49-.79.93-.26.5-.58 1.11-1.32 1.56-.82.5-1.85.44-2.75.38-.51-.03-1.14-.07-1.39.06-.14.07-.19.19-.3.72-.1.5-.24 1.19-.78 1.81-.65.74-1.58.83-2.4.91-.6.06-1.16.11-1.52.39-.22.17-.23.25-.22.75 0 .6.01 1.52-.91 2.46-1.06 1.09-2.51.88-3.46.75-.24-.03-.78-.11-.91-.07-.38.35-.4.7-.41 1.29-.02.64-.04 1.51-.83 2.25-.75.7-1.58.89-2.31 1.05-.63.14-1.23.27-1.89.71-.57.38-.54.59-.47 1.14.06.44.15 1.04-.24 1.63-.47.73-1.3.9-2.03 1.05-.51.1-1.03.21-1.33.48-.09.09-.12.14-.04.68.09.7.24 1.76-.69 2.98-1.18 1.55-2.25 1.6-2.96 1.63-.47.02-.61.03-.84.33-.11.15-.27.29-.46.47-.46.43-1.15 1.08-1.15 1.69 0 .31.2.65.59 1 .22.2.77 0 1.63-.36.97-.4 2.16-.9 3.57-.86.96.03 1.71.37 2.37.67.51.23.95.43 1.29.37.38-.07 1.14-.45 1.8-.8 1.1-.56 2.23-1.14 3.15-1.18 1.47-.06 2.44.49 3.23.93.85.48 1.17.63 1.77.29 2.14-1.22 4.6-.62 6.05.26 1.28.78 2.62-.1 3.5-.67 2.24-1.46 4.86-.28 5.85.17.67.3 3.02-.29 3.79-.69.63-.32 2.28-1 4.09-.25 2.01.83 2.81.36 3.65-.13.44-.26.94-.56 1.57-.64 1.26-.17 2.42.27 3.1 1.17.56.74.68 1.69.34 2.53-.77 1.86-5.15 2.69-7.98 1.97-2.52-.64-4.69-.16-5.72.6-1.68 1.24-4.3.44-5.56.06-.18-.04-.85.28-1.26.47-1.43.67-3.59 1.69-6.09.51-1.81-.85-3-.49-4.25-.11-1.11.34-2.37.72-3.79-.04-1.94-1.04-3.38-1.19-4.27-.44-1.32 1.11-3.91 1.14-5.34.43-.96-.48-2.39-.65-2.9-.13-1.07 1.1-2.41 2.03-5.03 1.41-.78-.18-1.39-.13-1.81.15-.42.28-.7.8-.83 1.55-.34 1.92-1.21 3.14-2.66 3.71-.82.33-1.26 1.69-1.09 3.33.17 1.63-.71 2.61-1.3 3.26-.23.25-.46.51-.53.7-.42 1.12-.28 1.7-.13 2.31.15.64.32 1.36-.14 2.38-.52 1.15-1.1 1.56-1.62 1.92-.33.23-.61.43-.93.86-.2.27-.18.39.03.97.23.62.53 1.46.11 2.59-.33.89-.81 1.38-1.23 1.82-.4.42-.78.82-1.15 1.63-.25.55-.11.87.33 1.6.39.65.88 1.45.48 2.5-.18.46-.47.79-.73 1.09-.33.38-.61.7-.74 1.3-.08.41.02.66.24 1.16.27.63.61 1.41.67 2.78.08 1.79-.71 2.49-1.24 2.95-.35.3-.43.4-.45.63-.05.63.16 1.02.41 1.46.62 1.14.97 2.18-.62 4.36-.16.22-.52.76-.32.97.61.63 3.05.45 3.43.18 1.23-.88 2.87-1.84 4.73-1.42 1.33.3 2.98-.21 3.52-1.11.41-.7 1.14-1.2 2.05-1.42.94-.23 1.95-.13 2.57.26.12.07.29.05.41.01.4-.12.8-.49 1.02-.96.37-.76 1.19-1.39 2.19-1.69 1.03-.31 2.07-.21 2.84.26.4.25 1.1.24 1.74 0 .51-.2.89-.52.98-.82.21-.71.79-1.3 1.63-1.66 1.16-.5 2.57-.46 3.59.08.38.2.82.08 1.13-.06.8-.35 1.5-1.17 1.72-1.98.57-2.16 3.32-3.18 4.97-2.94.38.06.95-.14 1.44-.52s.83-.88.88-1.32c.08-.62.45-1.18 1.07-1.61 1.24-.85 3.24-1.05 4.39-.75.18.05.35.02.53-.1.58-.36 1.07-1.36 1.23-2.12.38-1.75 2.34-3.09 4.19-2.87 1.12.13 2.08-.58 2.36-1.73.48-2 2.81-3.48 3.93-3.72.42-.09.81-.17 1.27-2.29.51-2.36 2.14-2.64 3.01-2.79.13-.02.24-.04.34-.06.47-.11 1.27-1.06 1.69-2.3.39-1.14 1.63-1.83 2.69-2.02 1.02-.18 1.9.07 2.39.69 1.2 1.49-.24 4.59-1.41 5.58l-.05.05c-.53.44-2.14 1.8-3.03 3.02-.6.82-.9 1.64-1.17 2.36-.14.39-.28.75-.45 1.1-.74 1.54-1.91 1.86-2.76 2.1-.39.11-.73.2-.92.38-.66.64-.81 1.27-.99 1.99-.16.67-.34 1.42-.97 2.06-.59.61-1.67 1.09-2.8 1.6-.99.44-2.21.99-2.54 1.44-.88 1.21-2.08 2.85-3.75 3.82-.41.24-.81.42-1.13.56-.99.45-1.53.69-2.02 2.03-.5 1.37-.46 2.52.1 3.72.5 1.06 1.08 1.32 2.39 1.07.99-.18 1.61.3 2.06.65.54.42.87.68 2.09-.01 2.65-1.51 3.87-.73 4.85-.11.19.12.37.24.57.34 1.15.57 2.59.49 3.84-.21 2.39-1.34 5.11-.18 6.51.64.24.14 1.24-.34 1.78-.59 1.01-.48 2.15-1.02 3.23-.91.63.06 1.31.33 2.02.61 1.64.65 3.33 1.32 5.07.05 2.02-1.47 4.86-.76 6.68.29.83.48 2.42.38 3.47-.53.94-.81 2.64-.99 3.93-.89.67.05 2.32.28 3.11 1.22.62.74 3.06.85 5.34-.68 2.05-1.38 3.68-.53 4.99.16.8.42 1.55.81 2.4.81 1.79-.01 2.39-.48 3.02-.97.6-.47 1.3-1 2.68-.9 1.33.1 2.21.57 3.05 1.03.77.42 1.57.85 2.79.85h.02c1.08 0 2.75-1.32 3.37-2.64.22-.48.4-1.16-.02-1.68-1.14-1.42-1.72-1.93-2.69-1.99-1.73-.11-3.04-1.79-3.74-2.69-.23-.29-.42-.61-.6-.92-.42-.7-.78-1.31-1.49-1.62-1.13-.48-3.48-1.48-3.75-4.01-.19-1.74-.94-2.28-1.73-2.6-.1-.04-.2-.08-.31-.12-1.23-.48-3.68-1.43-3.35-3.89.16-1.19-.4-1.85-1.93-2.28-1.72-.48-2.98-2.26-2.99-4.23 0-.71-.47-1.5-.88-2.19-.42-.71-.77-1.31-.78-1.95 0-1.03.6-1.92 1.51-2.22 1.04-.34 2.16.16 2.99 1.33.59.84.86 1.65 1.07 2.3.33 1.01.45 1.28 1.13 1.41 2.42.47 3.99 2.09 4.01 4.14 0 1.05 1.85 1.7 2.54 1.95l.2.07c1.17.43 2.71 3.05 3.01 4.2.27 1.06 1.56 2.86 3.04 3.37 2.4.82 3.07 1.66 3.75 3.33.7 1.73 2.07 2.63 4.2 2.74 3.16.17 3.89.51 4.94 1.67.78.86 3.15 2.09 4.67 1.49 2.06-.81 3.64-.04 4.57 2.25l.11.28c.63 1.58.96 2.12 2.24 1.82 2.33-.53 5.33-.18 6.55 1.52.61.84 3.33.72 4.57.17.87-.39 1.82-.41 2.67-.07.93.37 1.66 1.13 2.11 2.2.25.58.88 1.03 1.7 1.2.79.17 1.59.03 1.99-.35.64-.61 1.61-.95 2.72-.95 1.21 0 2.41.39 3.05 1.01 2.78 2.65 5.12 3.37 6.1 2.92.64-.29.75-1.12.73-1.76-.05-1.6 0-2.65.03-3.43.05-1.2.08-1.69-.29-2.72Z"/><path d="M87.77 170.53c.17.49.34.62.4.64.26.11.92-.17 1.4-.39.57-.25 1.27-.56 1.97-.56.74 0 1.34.35 1.78 1.03 1.34 2.06 3.05 3.04 3.55 2.96.11-.45 0-.8-.14-1.29-.25-.84-.59-2 .13-3.88.31-.81.08-1.19-.37-1.95-.65-1.09-1.55-2.59-.36-5.69.29-.75.1-1.07-.23-1.65-.47-.81-1.11-1.91-.05-4.03.78-1.54.79-2.6.06-4.54-.68-1.79.18-3.08.76-3.94.24-.36.48-.72.5-.95.03-.28-.39-1.08-.66-1.61-.64-1.23-1.36-2.6-.95-3.87.12-.39.28-.77.43-1.14.51-1.25.91-2.22.28-3.24-1.06-1.73-.82-3.44-.54-5.42.09-.62.18-1.26.24-1.95.06-.66-.06-1.07-.35-1.22-.46-.25-1.25 0-1.45.17-.5.41-3.15 2.39-5.92.49-1.52-1.04-3.4-.51-4.91-.08-.32.09-.62.18-.9.24-1.42.34-2.79-.17-4-.62-.49-.18-.95-.35-1.31-.43-.38-.08-.87.12-1.43.35-.84.34-1.88.77-3.14.5-1.02-.21-1.78-.81-2.12-1.67-.42-1.05-.19-2.37.65-3.61.98-1.46 2.11-1.05 2.78-.81.54.2.86.31 1.34 0 2.15-1.37 4.3.13 5.45.94.85.6 1.52.66 3.24-.57 2.22-1.59 4.45-.7 6.72.43.93.46 1.12.23 1.68-.45.42-.5.94-1.13 1.85-1.29.75-.14 1.3.05 1.66.17.04.01.08.03.13.04.07-.12.21-.38.41-.94.36-1.03 0-1.38-.6-1.96-.52-.5-1.16-1.12-1.09-2.18.08-1.05.66-1.65 1.09-2.09.44-.45.68-.7.63-1.36-.06-.71-.39-1.11-.77-1.58-.44-.53-.99-1.19-1-2.29 0-1.15.8-1.76 1.4-2.21.72-.54.79-.66.64-1.09-.26-.73-.65-.98-1.03-1.22-.41-.26-1.16-.74-.9-1.83.15-.62.53-1.08.87-1.49.44-.52.75-.89.69-1.54-.02-.17-.14-.39-.27-.63-.11-.19-.23-.4-.32-.64-.61-1.52-.34-2.45-.13-3.2.22-.78.36-1.24-.66-2.15-.05-.05-.11-.11-.18-.17-.4-.39-1-.97-1.81-.92-.66.04-1.36.5-2.08 1.37-1.37 1.66-5.08.35-6.01-.37-.64-.5-6.44-.75-8.01-.44-.38.07-.63.2-.73.37-.78 1.32-3.08 1.99-4.47 1.3-1.02-.5-1.35-1.61-.86-2.88.56-1.47.45-1.67.03-2.41-.26-.46-.59-1.04-.89-2-.51-1.62-.07-2.77.22-3.53.27-.7.24-.73.08-.89-.27-.27-.51-.39-.73-.36-.78.09-1.63.78-2.66 1.78-.45.43-.74.95-1.02 1.45-.38.67-.77 1.37-1.52 1.76-1.67.87-3.07 1.05-3.82.94-.43-.07-.68-.11-1.08.05-.89.35-1.17.82-1.48 1.37-.42.73-.94 1.63-2.71 1.64-2.35.02-3.36.52-4.51 1.49-1.24 1.05-1.15 1.17-.91 1.5.39.54 1.04 1.44.42 3.21-.55 1.55-2.75 1.4-3.67 1.26-.7-.1-1.24-.4-1.67-.64-.86-.47-1.37-.76-3.12.41-.43.29-.8.66-1.16 1.01-.94.94-2 1.99-4.1 1.42-2.01-.55-3.59-.21-4.12.9-.81 1.68.48 4.84 1.72 5.8 1.32 1.02.89 2.15.57 2.97-.28.73-.57 1.49-.15 2.63.12.32.32.43.94.67.64.26 1.5.61 2.19 1.6.76 1.09.74 2.98-.06 4.3-.27.44-.39 1.14-.05 1.69.39.65 1.33.94 2.65.84l.21-.02.19.09s1.7.78 3.15 1c1.82.28 2.59-.05 3.34-.36.57-.24 1.21-.51 2.16-.51 1.37 0 2.43.77 2.54 1.83.05.46-.02 2.03-2.98 2.66-.5.11-.99.33-1.5.56-.88.39-1.87.84-3.03.73-.82-.08-1.41-.55-1.88-.92-.72-.57-1.12-.89-2.18-.33-.12.06-.14.32-.13.47.02 1.62 2.01 4.82 3.44 5.52 2.47 1.23 2.87 2.22 2.89 4.8.01 1.63.92 2.41 2.27 3.09 1.01.5 2.69 1.34 2.88 3.78.13 1.63.59 2.16 1.96 2.24.17.01.33.02.49.02 1.93.08 3.2.39 3.37 3.72.1 2.07.99 2.11 2.58 2.18.2 0 .4.02.59.03 2.24.16 2.95 1.23 3.55 3.29.47 1.64 1.56 2.31 2.43 2.41 2.08.22 3.38 1.27 3.67 2.96.05.26.18.46.43.62.59.39 1.75.47 2.76.21.51-.13.94-.09 1.3.14.58.37.71 1.04.84 1.69.11.59.22 1.14.6 1.44.29.23.58.15 1.3-.2.57-.28 1.64-.79 2.34.19.33.46 1.5 2.05 2.72 3.12.35.31 1.03.2 1.75.09 1.09-.17 2.92-.45 3.6 1.58ZM205.65 99.41c-.15-.12-1.15-.28-1.63-.35-.95-.14-2.14-.32-3.25-.78-.83-.34-1.48-1.04-2.04-1.65-.41-.45-.84-.91-1.13-.98-.75-.19-1.51.01-2.38.24-1.93.51-4.32 1.15-7.99-1.76-1.45-1.15-2.2-.83-3.33-.34-1.41.61-3.17 1.38-5.94-1.37-.13-.13-.25-.25-.36-.37-.95-.96-1.07-1.09-3.22-.42-.07.02-.16.05-.27.09-1.02.34-3.41 1.15-4.85-.26-.06-.06-.16-.13-.27-.21-.47-.33-1.24-.88-1.14-1.83.02-.22.06-.44.09-.65.16-1.1.31-2.04-.64-2.8-.25-.2-.82 0-1.48.21-.54.18-1.15.38-1.85.49-.64.1-1.07-.2-1.46-.46-.63-.43-1.23-.84-2.99.54-1.23.96-1.57 1.88-1.92 2.84-.16.44-.33.9-.59 1.38-1.02 1.9-2.21 2.12-3.73 2.4-.35.06-.73.14-1.16.23-1.06.25-2.33-.2-3.67-.67-.95-.33-1.92-.68-2.77-.75-.47-.04-.97.23-1.61.57-1.54.82-3.66 1.94-7.72.17-1.6-.73-3.69-.26-5.05.53-1.89 1.1-4.18.12-6.35-.98-1.6-.8-2.95-.7-4.65.36-1.99 1.23-3.66.84-5.86-.27-2.11-1.06-3.34-1.07-4.56-.06-1.93 1.62-4.17 1.3-6.3.72-1.72-.47-2.8-.4-3.19.22-.32.5-.6 1.12-.43 2.3.07.51.44 1.01.84 1.54.46.61.93 1.25 1.09 2.05.22 1.06-.41 2.03-.95 2.89-.29.46-.62.97-.66 1.29 0 .08.22.36.34.52.61.77 1.62 2.07.53 4.67-.33.78-.03 1.81.26 2.8.28.96.54 1.86.33 2.7-.11.43-.24.78-.38 1.12-.32.83-.55 1.43-.22 2.81l.15.6c.46 1.87.79 3.22-.19 4.95-1.03 1.82-.72 2.48-.36 3.24.27.58.61 1.29.36 2.31-.47 1.86-.66 4.26-.03 5.42.84 1.56 1.06 2.59.21 4.97-.15.43-.02.63.13.77.59.56 2.09.63 3.13.15.62-.28 1.08-.74 1.49-1.15.77-.77 1.83-1.82 3.52-.48 1.42 1.13 2.35 1.26 4.4-.88 1.52-1.59 2.99-2.42 4.26-2.42.73.01 1.37.3 1.85.84.64.71.93 1.5.84 2.34-.12 1.27-1.09 2.57-2.95 3.96-.4.3-.73.57-1.02.8-1.05.86-1.8 1.46-3.24 1.47-.46 0-.97-.06-1.41-.11-1.11-.13-2.26-.26-2.83.39-.15.18-.31.37-.47.57-1.05 1.3-2.63 3.25-4.67 1.66-1-.78-2.16-.88-2.61-.66-.14.07-.18.14-.18.3 0 .47.23 1.2.47 1.97.48 1.55 1.02 3.29.57 4.91-.15.53-.34 1.07-.52 1.6-.56 1.63-1.15 3.32-.5 4.62 1.12 2.25 1.3 4.07.58 5.88-.66 1.67-.66 3.03 0 4.28.99 1.86.8 3.68.08 4.65.05.06.13.14.23.23.52.42 1.53.82 2.68.57l.45-.1c.99-.23 1.77-.4 2.53-.4 1.04 0 1.94.33 3.01 1.12 1.55 1.14 3.89 1.09 4.64.49 1.24-.97 3.28-.86 6.03-.6 2.41.23 4.13.07 5.26-1.43.44-.58.55-.95.65-1.27.28-.94.66-1.33 2.3-1.79.83-.23 1.4-.64 1.7-1.22.3-.59.31-1.37.02-2.19-.78-2.18.25-4.8 1.66-5.78.13-.09.26-.17.39-.26 1.01-.65 1.97-1.26 1.64-4.63-.09-.98-.2-1.8-.29-2.51-.33-2.53-.5-3.91.9-5.11 1.3-1.11 2.27-3.97 1.82-4.73-.57-.95-.68-2.27-.28-3.35.36-.97 1.08-1.68 2.03-2 .56-.19 1.11-.12 1.57.19.93.63 1.41 2.14 1.59 5.05.12 1.84-.28 2.65-.67 3.43-.13.25-.26.52-.37.83-.35.96-.87 1.63-1.33 2.22-.41.53-.8 1.03-1.01 1.68-.17.53.04 1.84.23 3 .29 1.82.6 3.68.13 5.03-.84 2.39-1.75 4.05-2.53 5.36-.44.74.44 6.06.92 6.55.59.5 4 1.45 5.24.55 1.76-1.27 5-2.53 6.54-2.55.53 0 .98-.99 1.35-1.78.16-.36.32-.7.5-.99.82-1.36 3.14-2.56 5.17-2.1 1.76.4 2.63-.04 3.12-1.58.8-2.53 1.93-4.16 4.88-3.85 2.12.21 2.16.21 2.99-1.65 1.4-3.11 4.68-3.38 5.66-3.38 1.65-.01 2.57-1.31 2.97-2.08.09-.17.17-.33.25-.49.64-1.28 1.36-2.72 3.31-2.83.46-.03.96-.47 1.28-1.14.33-.68.37-1.42.12-1.79-.18-.27-.32-.28-.38-.28-.19 0-.76.08-1.95 1.32-.88.92-2.01 1.01-2.92 1.09-.73.06-1.36.12-1.89.49-.19.13-.33.47-.47.79-.23.55-.52 1.22-1.22 1.11-1.88-.33-3.84.59-5.26 1.25-.47.22-.88.41-1.23.53-.26.09-.47.24-.74.42-.72.49-1.72 1.16-4.52 1.44-1.58.17-2.34-.82-2.83-1.69-.39-.69-1.19-2.11-.93-4.93.09-.98.25-2.13.4-3.25.24-1.76.51-3.76.37-4.19-.4-1.31-.52-3.08.17-3.88.48-.56 1.34-.11 2.33.41.6.32 1.22.64 1.73.73 2.34.4 3.18-.59 4.14-1.74.12-.14.23-.28.35-.42.6-.69 1.1-1.43 1.6-2.15.92-1.35 1.8-2.63 3.06-3.15 2.82-1.17 7.36-1.06 9.24-.19 1.14.53 4.06-.69 5.81-2.1 2.02-1.62 3.82-1.9 6.02-.93 2.16.95 2.77.64 3.41-.69.29-.6.33-1.18.38-1.78.1-1.24.23-2.77 2.47-4.53 1.64-1.29 2.31-4.73 2.44-6.37.22-2.85.83-3.62 1.97-4.1.32-.13.47-.2.66-.6 1.17-2.58.83-4.09.58-5.19-.15-.65-.29-1.27-.1-1.92.36-1.23.84-2.03 1.19-2.62.49-.83.49-.9.31-1.22Zm-80.68 8.87c0-.3.12-.56.35-.77.66-.59 2.13-.67 3.61-.68 1.22 0 2.18-.24 3.3-.51.45-.11.91-.22 1.41-.32 1.05-.21 1.92.12 2.76.45.65.26 1.27.5 1.92.44.53-.04 2.36-.12 3.38.69.43.34.65.77.65 1.3 0 .28-.16.57-.5.84-.83.68-2.51 1.16-3.81 1.08-.84-.05-1.5-.22-2.29-.06-.77.16-1.65.66-2.8.67h-.03c-1.23 0-1.59-.37-1.92-.85-.21-.31-.38-.56-1.14-.64-.27-.03-.56-.06-.85-.09-1.99-.2-4.05-.41-4.07-1.54Zm15.49 13.47c-.4.13-1.07.35-1.2.51.13.6.02 1.1-.32 1.4-.24.21-.56.31-.98.31-.55 0-1.26-.18-2.15-.53-1.43-.57-2.63-.4-4.16-.18-.26.04-.53.08-.8.11-1.35.18-2.1.06-2.42-.38-.22-.3-.22-.7.01-1.22.02-.05.01-.07 0-.08-.13-.27-1.1-.51-1.68-.66-.94-.24-1.57-.4-1.57-.88 0-.69 1.15-1.08 4.57-1.52.93-.12 1.68-.45 2.34-.75.67-.3 1.31-.58 2-.58h.01c.76 0 1.3.55 1.82 1.09.45.46 1.07.81 2.75.96 1.41.13 3.42.44 3.43 1.28 0 .58-.77.83-1.67 1.12Zm33.97 1.2c-.44.42-1.12.61-1.87.61-1.03 0-2.19-.35-3.05-.89-1.13-.72-2.48-.78-4.12-.18-.76.28-1.4-.06-2.01-.4-.62-.34-1.26-.68-2.14-.51-1.15.22-1.41-.51-1.46-.74-.2-.88.59-2.24 1.88-2.59.25-.07.5-.14.76-.22 1.69-.49 3.29-.95 4.05-.35.6.48 2.82.39 3.65.05.92-.38 2.99-.68 3.86.29.48.53.7 1.17.6 1.75-.08.47-.36.86-.8 1.1 0 0-.01 0-.02.01.06.09.21.25.33.36.31.31.66.65.66 1.09 0 .23-.1.44-.29.62Zm.62-14.97c-.24.08-.73.25-.77.37.03.16.11.38.19.63.39 1.19.62 1.99.21 2.34a.55.55 0 0 1-.36.13c-.25 0-.49-.13-.59-.19-1.62-.91-4.97-1.7-7.04-.84-.9.37-1.96.78-3.23.96-.57.08-1.36.12-1.6-.38-.2-.41.08-.97.87-1.76.14-.14.21-.26.19-.33-.05-.25-.74-.54-1.15-.71-.64-.27-1.14-.48-1.15-.92 0-.53.74-.97 4.7-1.78l.31-.06c.16-.04.51-.27.84-.49.87-.59 1.95-1.32 2.82-.86.54.29.91.58 1.21.81.48.38.76.62 1.47.61h.02c.72 0 4.31.26 4.32 1.48 0 .59-.66.82-1.25 1.02Z"/><path d="M163.93 150.99c.87-.78 1.87-1.67 3.19-1.64 3.06.1 3.94-1.1 4.65-2.05.48-.65.95-1.24 1.91-1.22 1.17.04 2.5.09 3.21-.69.19-.21 1.88-1.12 1.89-1.13 1.32-.6 2.21-.53 3-.46.75.06 1.45.12 2.51-.38.48-.23.69-.69.92-1.23.24-.53.51-1.13 1.1-1.53.44-.3.95-.36 1.39-.42.47-.06.88-.11 1.16-.42.42-.46.56-.92.72-1.4.25-.78.53-1.67 2-2.54.66-.39 1.19-1.51 1.53-2.33.09-.22.08-.47-.03-.68a.852.852 0 0 0-.58-.43c-1.06-.2-2.56-.37-3.71-.01-.06.03-2.41 1.12-4.28 1.54-1.08.25-1.66.26-2.33.28-.49.01-1.04.03-1.9.14-.85.11-1.63 1.28-1.59 2.07.02.48.32.73.92.76.53.02.72-.08.95-.21.19-.11.43-.24.85-.31.05 0 1.71-.01 1.98.28l.1.1v.16c-.17 1.63-1.88 1.74-2.76 1.78-.48.19-1.01.32-1.51.44-.86.21-1.68.41-1.97.86-1.31 2.04-3.51 2.51-4.59 2.33l-.55-.09.37-.42c.41-.47.78-.99 1.08-1.55.23-.43.21-.97.18-1.45-.02-.36-.03-.66.05-.92.09-.22.24-.44.42-.69.33-.46.73-1.03.73-1.58 0-.49-.1-.81-.26-.89l-.13-.06c-.54-.25-1.45-.68-2.25-.33-.56.25-1 .87-1.31 1.84-.7 2.2-2.11 4.09-3.69 4.91-.31.16-.61.34-.92.53-1.23.73-2.62 1.56-4.29 1.13-.07-.02-.16-.03-.2 0-.22.19-.12 1.17-.05 1.75.07.72.11 1.17-.01 1.46-1.05 2.46-1.34 3.79-.4 5.53.82.62 1.46.1 2.52-.85Z"/><rect x="225.35" y="200.58" width="10.71" height="30.51" rx="2.92" ry="2.92"/><path d="m202.97 228.47.32 1.15c.25.87 1.04 1.47 1.94 1.47h6.01c1.79 0 3.04-1.78 2.44-3.46L205 203.48a4.37 4.37 0 0 0-4.12-2.9h-6c-1.87 0-3.54 1.19-4.14 2.96l-8.23 24.12c-.57 1.68.68 3.42 2.45 3.42h6.09c.91 0 1.7-.61 1.95-1.48l.31-1.13c.13-.46.55-.78 1.02-.78h7.6c.48 0 .89.32 1.02.77Zm-3.45-9.76h-2.7a.53.53 0 0 1-.51-.67l1.43-4.49c.13-.4.7-.41.83 0l1.46 4.49c.1.34-.16.67-.51.67Z"/><rect x="139.31" y="200.58" width="10.28" height="30.51" rx="2.89" ry="2.89"/><path d="M162.31 231.09h6.9c1.52 0 2.41-1.7 1.55-2.96l-7.96-11.56c-.43-.63-.44-1.45-.03-2.09l7.11-10.99c.81-1.25-.09-2.91-1.58-2.91h-7.01c-.64 0-1.24.32-1.58.86l-8.72 13.46c-.24.37-.23.85.02 1.22l9.74 14.15c.35.51.93.82 1.55.82Z"/><rect x="95.96" y="200.58" width="10.28" height="30.51" rx="2.83" ry="2.83"/><path d="M118.94 231.09h6.95c1.5 0 2.39-1.69 1.54-2.92l-7.99-11.6c-.43-.62-.44-1.44-.03-2.07l7.14-11.03c.8-1.24-.09-2.88-1.57-2.88h-7.06c-.63 0-1.22.32-1.57.85l-8.73 13.49c-.24.37-.23.84.02 1.2l9.75 14.17c.35.51.92.81 1.54.81ZM68.3 199.87h-1.99c-8.98 0-16.29 7.17-16.29 15.99s7.31 15.99 16.29 15.99h1.99c8.98 0 16.29-7.17 16.29-15.99s-7.31-15.99-16.29-15.99Zm5.43 16.43c0 3.49-2.88 6.32-6.43 6.32s-6.43-2.84-6.43-6.32v-.86c0-3.49 2.88-6.32 6.43-6.32s6.43 2.84 6.43 6.32v.86ZM19.47 231.19c1.87 0 3.52-1.19 4.12-2.96l3.78-10.62c.19-.54 1-.4 1 .17v10.56c0 1.52 1.23 2.75 2.75 2.75h4.78c1.52 0 2.75-1.23 2.75-2.75V203.5c0-1.61-1.3-2.91-2.91-2.91h-8.2c-1.28 0-2.41.84-2.79 2.06l-4.94 16.23c-.14.47-.82.47-.96 0l-4.94-16.23a2.898 2.898 0 0 0-2.79-2.06H2.91c-1.61 0-2.91 1.3-2.91 2.91v24.87c0 1.51 1.22 2.73 2.73 2.73h4.83c1.51 0 2.73-1.22 2.73-2.73V217.8c0-.58.8-.71 1-.17l3.75 10.6a4.346 4.346 0 0 0 4.12 2.97h.32Z"/></g></svg>