<svg data-name="レイヤー 2" xmlns="http://www.w3.org/2000/svg" viewBox="0 0 311.81 42.25"><g data-name="レイヤー 1"><rect x="297.66" y=".93" width="14.15" height="40.3" rx="3.86" ry="3.86"/><path d="m268.1 37.77.43 1.52a2.658 2.658 0 0 0 2.57 1.94h7.94c2.37 0 4.02-2.35 3.22-4.58L270.8 4.76c-.82-2.3-3-3.83-5.44-3.83h-7.93c-2.47 0-4.67 1.57-5.47 3.92l-10.87 31.86c-.76 2.22.89 4.52 3.24 4.52h8.05c1.2 0 2.25-.8 2.57-1.96l.42-1.5c.17-.61.72-1.03 1.35-1.03h10.04c.63 0 1.18.42 1.35 1.02Zm-4.56-12.89h-3.57c-.46 0-.79-.44-.67-.88l1.89-5.93c.17-.53.92-.54 1.1 0l1.92 5.93a.7.7 0 0 1-.67.89Z"/><rect x="184.02" y=".93" width="13.58" height="40.3" rx="3.82" ry="3.82"/><path d="M214.38 41.23h9.12c2.01 0 3.19-2.25 2.05-3.9l-10.51-15.27c-.57-.83-.59-1.92-.04-2.77l9.4-14.51c1.07-1.66-.12-3.85-2.09-3.85h-9.26c-.84 0-1.63.43-2.09 1.14l-11.51 17.78c-.32.49-.31 1.13.02 1.61l12.87 18.69a2.47 2.47 0 0 0 2.05 1.08Z"/><rect x="126.75" y=".93" width="13.58" height="40.3" rx="3.74" ry="3.74"/><path d="M157.1 41.23h9.18c1.99 0 3.16-2.23 2.03-3.86l-10.55-15.33c-.56-.82-.58-1.9-.04-2.74l9.43-14.57c1.06-1.64-.12-3.8-2.07-3.8h-9.32c-.84 0-1.61.42-2.07 1.13l-11.53 17.81c-.31.48-.3 1.11.02 1.58l12.88 18.71c.46.67 1.22 1.07 2.03 1.07ZM90.22 0h-2.63C75.73 0 66.08 9.48 66.08 21.13s9.65 21.13 21.51 21.13h2.63c11.86 0 21.51-9.48 21.51-21.13S102.08 0 90.22 0Zm7.17 21.69c0 4.6-3.81 8.35-8.49 8.35s-8.49-3.75-8.49-8.35v-1.13c0-4.6 3.81-8.35 8.49-8.35s8.49 3.75 8.49 8.35v1.13ZM25.72 41.36c2.46 0 4.65-1.57 5.44-3.91l4.99-14.02c.25-.72 1.31-.53 1.31.23V37.6a3.63 3.63 0 0 0 3.63 3.63h6.31a3.63 3.63 0 0 0 3.63-3.63V4.78c0-2.12-1.72-3.85-3.85-3.85H36.35a3.85 3.85 0 0 0-3.68 2.73l-6.53 21.43c-.19.63-1.08.63-1.27 0L18.36 3.66A3.85 3.85 0 0 0 14.68.93H3.85C1.72.93 0 2.65 0 4.78v32.85c0 1.99 1.61 3.6 3.6 3.6h6.38c1.99 0 3.6-1.61 3.6-3.6V23.67c0-.76 1.06-.94 1.31-.23l4.96 14a5.733 5.733 0 0 0 5.44 3.92h.42Z"/></g></svg>